M48
; DRILL file {KiCad (5.1.10-1-10_14)} date Monday, June 21, 2021 at 12:00:01 AM
; FORMAT={-:-/ absolute / inch / decimal}
; #@! TF.CreationDate,2021-06-21T00:00:01-04:00
; #@! TF.GenerationSoftware,Kicad,Pcbnew,(5.1.10-1-10_14)
FMAT,2
INCH
T1C0.0079
T2C0.0118
T3C0.0157
T4C0.0200
T5C0.0433
%
G90
G05
T1
X2.8575Y-4.625
X2.8575Y-4.7425
X2.8898Y-4.3081
X2.8917Y-4.435
X2.9685Y-4.3209
X2.9961Y-4.1614
X3.0197Y-4.3622
X3.0512Y-4.1614
X3.0728Y-4.0748
X3.0866Y-4.6969
X3.1102Y-4.4311
X3.126Y-4.748
X3.126Y-4.815
X3.14Y-4.195
X3.15Y-4.055
X3.1614Y-4.8386
X3.225Y-4.3525
X3.2283Y-4.7402
X3.235Y-4.2375
X3.2375Y-4.1525
X3.2638Y-4.7638
X3.3Y-4.57
X3.3675Y-4.74
X3.3996Y-4.7953
X3.3996Y-4.878
X3.4125Y-4.7275
X3.4547Y-4.7953
X3.4547Y-4.878
X3.47Y-4.1325
X3.4961Y-4.8366
X3.555Y-4.725
X3.595Y-4.7475
X3.6Y-4.8575
X3.6325Y-4.1825
X3.65Y-4.225
X3.6575Y-4.875
X3.67Y-4.2675
X3.7008Y-4.189
X3.705Y-4.29
X3.7677Y-4.1929
X3.8075Y-4.2075
X3.811Y-4.2677
X4.0525Y-4.875
X4.18Y-4.16
X4.225Y-4.19
X4.325Y-4.3775
X4.325Y-4.5825
X4.375Y-4.3775
X4.375Y-4.5825
X4.425Y-4.3775
X4.425Y-4.5825
X4.475Y-4.3775
X4.475Y-4.5825
X4.525Y-4.3775
X4.525Y-4.5825
X4.535Y-4.86
X4.575Y-4.5825
X4.675Y-4.95
X4.75Y-4.055
X4.75Y-4.925
X4.825Y-4.95
X4.875Y-4.3525
X4.905Y-4.21
X4.95Y-4.72
X4.995Y-4.84
X5.0Y-4.72
X5.04Y-4.1425
X5.05Y-4.72
X5.0925Y-4.2
X5.1Y-4.72
X5.15Y-4.72
X5.175Y-4.3525
X5.18Y-4.2275
X5.225Y-4.3525
X5.225Y-4.7175
X5.245Y-4.1825
X5.275Y-4.7175
X5.3Y-4.1825
X5.37Y-4.6225
X5.4025Y-4.75
X5.4225Y-4.8325
X5.4775Y-4.75
X5.5075Y-4.6275
X5.5325Y-4.8675
X5.55Y-4.285
X5.5875Y-4.8675
X5.63Y-4.175
X5.6325Y-4.7725
X5.6525Y-4.1425
X5.675Y-4.77
X5.755Y-4.875
X5.81Y-4.1425
X5.875Y-4.19
X5.895Y-4.13
X5.9Y-4.225
X5.925Y-4.77
X5.95Y-4.875
X5.9775Y-4.57
X5.995Y-4.8
X6.0Y-4.875
X6.025Y-4.19
X6.155Y-4.85
X6.17Y-4.13
X6.2675Y-4.8
X6.28Y-4.5675
X6.29Y-4.865
X6.35Y-4.055
X6.3898Y-4.5098
X6.4232Y-4.4469
X6.4587Y-4.4705
X6.5059Y-4.752
X6.5256Y-4.1535
X6.5256Y-4.372
X6.5374Y-4.7972
X6.561Y-4.1772
X6.561Y-4.3957
X6.5748Y-4.2224
X6.6004Y-4.4488
X6.6425Y-4.625
T2
X2.8878Y-4.3622
X2.9272Y-4.3917
X2.9665Y-4.3622
X2.9961Y-4.248
X3.0177Y-4.2795
X3.0394Y-4.7539
X3.0394Y-4.8091
X3.0571Y-4.25
X3.0945Y-4.2047
X3.0965Y-4.2795
X3.1475Y-4.2975
X3.175Y-4.24
X3.175Y-4.3525
X3.28Y-4.195
X3.625Y-4.6075
X3.625Y-4.72
X3.6634Y-4.1476
X3.73Y-4.6625
X3.73Y-4.715
X3.775Y-4.76
X3.8051Y-4.1476
X3.82Y-4.715
X3.8475Y-4.305
X3.8475Y-4.655
X3.875Y-4.2275
X3.875Y-4.3825
X3.875Y-4.5775
X3.875Y-4.7325
X4.625Y-4.2275
X4.625Y-4.7325
X4.6525Y-4.305
X4.6525Y-4.655
X4.68Y-4.715
X4.725Y-4.6175
X4.725Y-4.76
X4.7525Y-4.245
X4.755Y-4.2975
X4.77Y-4.6625
X4.77Y-4.715
X4.7975Y-4.2
X4.7975Y-4.34
X4.8425Y-4.245
X4.8475Y-4.2975
X4.875Y-4.24
X5.325Y-4.6075
X5.325Y-4.72
X5.3525Y-4.6625
X5.4875Y-4.825
X5.5325Y-4.78
X5.5475Y-4.655
X5.5748Y-4.1884
X5.575Y-4.7325
X5.63Y-4.825
X6.2875Y-4.825
X6.325Y-4.2275
X6.325Y-4.3825
X6.325Y-4.5775
X6.325Y-4.7325
X6.325Y-4.78
X6.3325Y-4.87
X6.3525Y-4.305
X6.3525Y-4.655
X6.385Y-4.78
X6.385Y-4.87
X6.4213Y-4.2992
X6.4213Y-4.7579
X6.4587Y-4.2539
X6.4646Y-4.3425
X6.4646Y-4.8563
X6.5079Y-4.813
X6.5157Y-4.3425
X6.5197Y-4.2559
X6.5433Y-4.8386
X6.563Y-4.2992
X6.5748Y-4.8819
X6.6063Y-4.8386
X6.6122Y-4.7126
X6.6122Y-4.7992
T3
X3.2875Y-4.1175
T4
X3.075Y-4.925
X3.125Y-4.925
X3.175Y-4.925
X3.225Y-4.925
X3.275Y-4.925
X3.325Y-4.925
X3.375Y-4.925
X3.425Y-4.925
X3.475Y-4.925
X3.525Y-4.925
X3.575Y-4.925
X3.625Y-4.925
X3.675Y-4.925
X3.725Y-4.925
X3.775Y-4.925
X3.825Y-4.925
X3.875Y-4.925
X3.925Y-4.925
X3.975Y-4.925
X4.025Y-4.925
X4.075Y-4.925
X4.125Y-4.925
X4.175Y-4.925
X4.225Y-4.925
X4.275Y-4.925
X4.325Y-4.925
X4.375Y-4.925
X4.425Y-4.925
X4.475Y-4.925
X4.525Y-4.925
X4.575Y-4.925
X4.625Y-4.925
X4.875Y-4.925
X4.925Y-4.925
X4.975Y-4.925
X5.025Y-4.925
X5.075Y-4.925
X5.125Y-4.925
X5.175Y-4.925
X5.225Y-4.925
X5.275Y-4.925
X5.325Y-4.925
X5.375Y-4.925
X5.425Y-4.925
X5.475Y-4.925
X5.525Y-4.925
X5.575Y-4.925
X5.625Y-4.925
X5.675Y-4.925
X5.725Y-4.925
X5.775Y-4.925
X5.825Y-4.925
X5.875Y-4.925
X5.925Y-4.925
X5.975Y-4.925
X6.025Y-4.925
X6.075Y-4.925
X6.125Y-4.925
X6.175Y-4.925
X6.225Y-4.925
X6.275Y-4.925
X6.325Y-4.925
X6.375Y-4.925
X6.425Y-4.925
T5
X2.89Y-4.09
X2.97Y-4.96
X6.61Y-4.09
X6.61Y-4.96
T0
M30
