G04 #@! TF.GenerationSoftware,KiCad,Pcbnew,(5.1.10-1-10_14)*
G04 #@! TF.CreationDate,2021-07-01T19:14:09-04:00*
G04 #@! TF.ProjectId,MacIIfxRAMSIMM,4d616349-4966-4785-9241-4d53494d4d2e,rev?*
G04 #@! TF.SameCoordinates,Original*
G04 #@! TF.FileFunction,Legend,Top*
G04 #@! TF.FilePolarity,Positive*
%FSLAX46Y46*%
G04 Gerber Fmt 4.6, Leading zero omitted, Abs format (unit mm)*
G04 Created by KiCad (PCBNEW (5.1.10-1-10_14)) date 2021-07-01 19:14:09*
%MOMM*%
%LPD*%
G01*
G04 APERTURE LIST*
%ADD10C,0.127000*%
%ADD11C,0.120000*%
%ADD12C,0.152400*%
%ADD13C,0.203200*%
%ADD14C,0.175000*%
%ADD15C,2.150000*%
%ADD16C,2.000000*%
G04 APERTURE END LIST*
D10*
X74000000Y-108150000D02*
X77300000Y-108150000D01*
X77300000Y-111350000D02*
X74700000Y-111350000D01*
D11*
X161487500Y-113792000D02*
X161487500Y-108774500D01*
X161487500Y-113792000D02*
X161487500Y-118809500D01*
X140772500Y-113792000D02*
X140772500Y-108774500D01*
X140772500Y-113792000D02*
X140772500Y-120732000D01*
X118307500Y-113792000D02*
X118307500Y-108774500D01*
X118307500Y-113792000D02*
X118307500Y-118809500D01*
X97592500Y-113792000D02*
X97592500Y-108774500D01*
X97592500Y-113792000D02*
X97592500Y-120732000D01*
D12*
X154533600Y-104102000D02*
X155346400Y-104102000D01*
X154533600Y-105702000D02*
X155346400Y-105702000D01*
X90322400Y-105638500D02*
X89509600Y-105638500D01*
X90322400Y-104038500D02*
X89509600Y-104038500D01*
X95256400Y-106150000D02*
X94443600Y-106150000D01*
X95256400Y-104550000D02*
X94443600Y-104550000D01*
X99098100Y-104038500D02*
X99910900Y-104038500D01*
X99098100Y-105638500D02*
X99910900Y-105638500D01*
X103339900Y-104038500D02*
X102527100Y-104038500D01*
X103339900Y-105638500D02*
X102527100Y-105638500D01*
X151104600Y-105702000D02*
X151917400Y-105702000D01*
X151104600Y-104102000D02*
X151917400Y-104102000D01*
D11*
X95680000Y-106590000D02*
X93650000Y-106590000D01*
X94270000Y-108910000D02*
X95680000Y-108910000D01*
D12*
X79200000Y-117956400D02*
X79200000Y-117143600D01*
X77600000Y-117956400D02*
X77600000Y-117143600D01*
X75350000Y-113193600D02*
X75350000Y-114006400D01*
X73750000Y-113193600D02*
X73750000Y-114006400D01*
X165000000Y-121143600D02*
X165000000Y-121956400D01*
X163400000Y-121143600D02*
X163400000Y-121956400D01*
X86643600Y-122050000D02*
X87456400Y-122050000D01*
X86643600Y-123650000D02*
X87456400Y-123650000D01*
D11*
X165420000Y-122610000D02*
X166350000Y-122610000D01*
X168580000Y-122610000D02*
X167650000Y-122610000D01*
X168580000Y-122610000D02*
X168580000Y-120450000D01*
X165420000Y-122610000D02*
X165420000Y-121150000D01*
X136050000Y-113792000D02*
X136050000Y-109932000D01*
X136050000Y-109932000D02*
X135815000Y-109932000D01*
X136050000Y-113792000D02*
X136050000Y-117652000D01*
X136050000Y-117652000D02*
X135815000Y-117652000D01*
X123030000Y-113792000D02*
X123030000Y-109932000D01*
X123030000Y-109932000D02*
X123265000Y-109932000D01*
X123030000Y-113792000D02*
X123030000Y-117652000D01*
X123030000Y-117652000D02*
X123265000Y-117652000D01*
X123265000Y-117652000D02*
X123265000Y-119467000D01*
D12*
X164493600Y-110000000D02*
X165306400Y-110000000D01*
X164493600Y-108400000D02*
X165306400Y-108400000D01*
X141605900Y-123355000D02*
X140793100Y-123355000D01*
X141605900Y-121755000D02*
X140793100Y-121755000D01*
X137769600Y-118770500D02*
X138582400Y-118770500D01*
X137769600Y-120370500D02*
X138582400Y-120370500D01*
X137769600Y-118338500D02*
X138582400Y-118338500D01*
X137769600Y-116738500D02*
X138582400Y-116738500D01*
X137769600Y-108559500D02*
X138582400Y-108559500D01*
X137769600Y-106959500D02*
X138582400Y-106959500D01*
X137769600Y-108991500D02*
X138582400Y-108991500D01*
X137769600Y-110591500D02*
X138582400Y-110591500D01*
X94589600Y-110972500D02*
X95402400Y-110972500D01*
X94589600Y-109372500D02*
X95402400Y-109372500D01*
X94589600Y-115036500D02*
X95402400Y-115036500D01*
X94589600Y-113436500D02*
X95402400Y-113436500D01*
X94589600Y-115468500D02*
X95402400Y-115468500D01*
X94589600Y-117068500D02*
X95402400Y-117068500D01*
X94589600Y-113004500D02*
X95402400Y-113004500D01*
X94589600Y-111404500D02*
X95402400Y-111404500D01*
D11*
X164220000Y-113460000D02*
X165630000Y-113460000D01*
X165630000Y-111140000D02*
X163600000Y-111140000D01*
X80420000Y-122810000D02*
X82450000Y-122810000D01*
X81830000Y-120490000D02*
X80420000Y-120490000D01*
X164170000Y-107910000D02*
X166200000Y-107910000D01*
X165580000Y-105590000D02*
X164170000Y-105590000D01*
X80085000Y-117652000D02*
X80085000Y-119467000D01*
X79850000Y-117652000D02*
X80085000Y-117652000D01*
X79850000Y-113792000D02*
X79850000Y-117652000D01*
X79850000Y-109932000D02*
X80085000Y-109932000D01*
X79850000Y-113792000D02*
X79850000Y-109932000D01*
X92870000Y-117652000D02*
X92635000Y-117652000D01*
X92870000Y-113792000D02*
X92870000Y-117652000D01*
X92870000Y-109932000D02*
X92635000Y-109932000D01*
X92870000Y-113792000D02*
X92870000Y-109932000D01*
D12*
X76843600Y-115350000D02*
X77656400Y-115350000D01*
X76843600Y-113750000D02*
X77656400Y-113750000D01*
X96748500Y-119380900D02*
X96748500Y-118568100D01*
X95148500Y-119380900D02*
X95148500Y-118568100D01*
X120751500Y-119380900D02*
X120751500Y-118568100D01*
X119151500Y-119380900D02*
X119151500Y-118568100D01*
X161098600Y-121755000D02*
X161911400Y-121755000D01*
X161098600Y-123355000D02*
X161911400Y-123355000D01*
X81088600Y-107353000D02*
X81901400Y-107353000D01*
X81088600Y-105753000D02*
X81901400Y-105753000D01*
X122656500Y-108864400D02*
X122656500Y-108051600D01*
X121056500Y-108864400D02*
X121056500Y-108051600D01*
X76843600Y-111750000D02*
X77656400Y-111750000D01*
X76843600Y-113350000D02*
X77656400Y-113350000D01*
X77500000Y-121856400D02*
X77500000Y-121043600D01*
X79100000Y-121856400D02*
X79100000Y-121043600D01*
X77206400Y-106000000D02*
X76393600Y-106000000D01*
X77206400Y-107600000D02*
X76393600Y-107600000D01*
D13*
X150510723Y-113346895D02*
X150510723Y-114004876D01*
X150549428Y-114082285D01*
X150588133Y-114120990D01*
X150665542Y-114159695D01*
X150820361Y-114159695D01*
X150897771Y-114120990D01*
X150936476Y-114082285D01*
X150975180Y-114004876D01*
X150975180Y-113346895D01*
X151323523Y-113424304D02*
X151362228Y-113385600D01*
X151439638Y-113346895D01*
X151633161Y-113346895D01*
X151710571Y-113385600D01*
X151749276Y-113424304D01*
X151787980Y-113501714D01*
X151787980Y-113579123D01*
X151749276Y-113695238D01*
X151284819Y-114159695D01*
X151787980Y-114159695D01*
X107330723Y-113346895D02*
X107330723Y-114004876D01*
X107369428Y-114082285D01*
X107408133Y-114120990D01*
X107485542Y-114159695D01*
X107640361Y-114159695D01*
X107717771Y-114120990D01*
X107756476Y-114082285D01*
X107795180Y-114004876D01*
X107795180Y-113346895D01*
X108607980Y-114159695D02*
X108143523Y-114159695D01*
X108375752Y-114159695D02*
X108375752Y-113346895D01*
X108298342Y-113463009D01*
X108220933Y-113540419D01*
X108143523Y-113579123D01*
X128920723Y-113346895D02*
X128920723Y-114004876D01*
X128959428Y-114082285D01*
X128998133Y-114120990D01*
X129075542Y-114159695D01*
X129230361Y-114159695D01*
X129307771Y-114120990D01*
X129346476Y-114082285D01*
X129385180Y-114004876D01*
X129385180Y-113346895D01*
X130120571Y-113617828D02*
X130120571Y-114159695D01*
X129927047Y-113308190D02*
X129733523Y-113888761D01*
X130236685Y-113888761D01*
X85740723Y-113346895D02*
X85740723Y-114004876D01*
X85779428Y-114082285D01*
X85818133Y-114120990D01*
X85895542Y-114159695D01*
X86050361Y-114159695D01*
X86127771Y-114120990D01*
X86166476Y-114082285D01*
X86205180Y-114004876D01*
X86205180Y-113346895D01*
X86514819Y-113346895D02*
X87017980Y-113346895D01*
X86747047Y-113656533D01*
X86863161Y-113656533D01*
X86940571Y-113695238D01*
X86979276Y-113733942D01*
X87017980Y-113811352D01*
X87017980Y-114004876D01*
X86979276Y-114082285D01*
X86940571Y-114120990D01*
X86863161Y-114159695D01*
X86630933Y-114159695D01*
X86553523Y-114120990D01*
X86514819Y-114082285D01*
%LPC*%
D14*
G36*
X163195000Y-127635000D02*
G01*
X123825000Y-127635000D01*
X123317000Y-125031500D01*
X163703000Y-125031500D01*
X163195000Y-127635000D01*
G37*
X163195000Y-127635000D02*
X123825000Y-127635000D01*
X123317000Y-125031500D01*
X163703000Y-125031500D01*
X163195000Y-127635000D01*
G36*
X117475000Y-127635000D02*
G01*
X78105000Y-127635000D01*
X77597000Y-125031500D01*
X117983000Y-125031500D01*
X117475000Y-127635000D01*
G37*
X117475000Y-127635000D02*
X78105000Y-127635000D01*
X77597000Y-125031500D01*
X117983000Y-125031500D01*
X117475000Y-127635000D01*
G36*
G01*
X77038700Y-108868150D02*
X77038700Y-108531850D01*
G75*
G02*
X77206850Y-108363700I168150J0D01*
G01*
X78093150Y-108363700D01*
G75*
G02*
X78261300Y-108531850I0J-168150D01*
G01*
X78261300Y-108868150D01*
G75*
G02*
X78093150Y-109036300I-168150J0D01*
G01*
X77206850Y-109036300D01*
G75*
G02*
X77038700Y-108868150I0J168150D01*
G01*
G37*
G36*
G01*
X77038700Y-109555650D02*
X77038700Y-109294350D01*
G75*
G02*
X77169350Y-109163700I130650J0D01*
G01*
X78130650Y-109163700D01*
G75*
G02*
X78261300Y-109294350I0J-130650D01*
G01*
X78261300Y-109555650D01*
G75*
G02*
X78130650Y-109686300I-130650J0D01*
G01*
X77169350Y-109686300D01*
G75*
G02*
X77038700Y-109555650I0J130650D01*
G01*
G37*
G36*
G01*
X77038700Y-110205650D02*
X77038700Y-109944350D01*
G75*
G02*
X77169350Y-109813700I130650J0D01*
G01*
X78130650Y-109813700D01*
G75*
G02*
X78261300Y-109944350I0J-130650D01*
G01*
X78261300Y-110205650D01*
G75*
G02*
X78130650Y-110336300I-130650J0D01*
G01*
X77169350Y-110336300D01*
G75*
G02*
X77038700Y-110205650I0J130650D01*
G01*
G37*
G36*
G01*
X77038700Y-110968150D02*
X77038700Y-110631850D01*
G75*
G02*
X77206850Y-110463700I168150J0D01*
G01*
X78093150Y-110463700D01*
G75*
G02*
X78261300Y-110631850I0J-168150D01*
G01*
X78261300Y-110968150D01*
G75*
G02*
X78093150Y-111136300I-168150J0D01*
G01*
X77206850Y-111136300D01*
G75*
G02*
X77038700Y-110968150I0J168150D01*
G01*
G37*
G36*
G01*
X73738700Y-110968150D02*
X73738700Y-110631850D01*
G75*
G02*
X73906850Y-110463700I168150J0D01*
G01*
X74793150Y-110463700D01*
G75*
G02*
X74961300Y-110631850I0J-168150D01*
G01*
X74961300Y-110968150D01*
G75*
G02*
X74793150Y-111136300I-168150J0D01*
G01*
X73906850Y-111136300D01*
G75*
G02*
X73738700Y-110968150I0J168150D01*
G01*
G37*
G36*
G01*
X73738700Y-110193150D02*
X73738700Y-109956850D01*
G75*
G02*
X73856850Y-109838700I118150J0D01*
G01*
X74843150Y-109838700D01*
G75*
G02*
X74961300Y-109956850I0J-118150D01*
G01*
X74961300Y-110193150D01*
G75*
G02*
X74843150Y-110311300I-118150J0D01*
G01*
X73856850Y-110311300D01*
G75*
G02*
X73738700Y-110193150I0J118150D01*
G01*
G37*
G36*
G01*
X73738700Y-109543150D02*
X73738700Y-109306850D01*
G75*
G02*
X73856850Y-109188700I118150J0D01*
G01*
X74843150Y-109188700D01*
G75*
G02*
X74961300Y-109306850I0J-118150D01*
G01*
X74961300Y-109543150D01*
G75*
G02*
X74843150Y-109661300I-118150J0D01*
G01*
X73856850Y-109661300D01*
G75*
G02*
X73738700Y-109543150I0J118150D01*
G01*
G37*
G36*
G01*
X73738700Y-108868150D02*
X73738700Y-108531850D01*
G75*
G02*
X73906850Y-108363700I168150J0D01*
G01*
X74793150Y-108363700D01*
G75*
G02*
X74961300Y-108531850I0J-168150D01*
G01*
X74961300Y-108868150D01*
G75*
G02*
X74793150Y-109036300I-168150J0D01*
G01*
X73906850Y-109036300D01*
G75*
G02*
X73738700Y-108868150I0J168150D01*
G01*
G37*
G36*
G01*
X141780000Y-108825500D02*
X141430000Y-108825500D01*
G75*
G02*
X141255000Y-108650500I0J175000D01*
G01*
X141255000Y-106995500D01*
G75*
G02*
X141430000Y-106820500I175000J0D01*
G01*
X141780000Y-106820500D01*
G75*
G02*
X141955000Y-106995500I0J-175000D01*
G01*
X141955000Y-108650500D01*
G75*
G02*
X141780000Y-108825500I-175000J0D01*
G01*
G37*
G36*
G01*
X143050000Y-108825500D02*
X142700000Y-108825500D01*
G75*
G02*
X142525000Y-108650500I0J175000D01*
G01*
X142525000Y-106995500D01*
G75*
G02*
X142700000Y-106820500I175000J0D01*
G01*
X143050000Y-106820500D01*
G75*
G02*
X143225000Y-106995500I0J-175000D01*
G01*
X143225000Y-108650500D01*
G75*
G02*
X143050000Y-108825500I-175000J0D01*
G01*
G37*
G36*
G01*
X144320000Y-108825500D02*
X143970000Y-108825500D01*
G75*
G02*
X143795000Y-108650500I0J175000D01*
G01*
X143795000Y-106995500D01*
G75*
G02*
X143970000Y-106820500I175000J0D01*
G01*
X144320000Y-106820500D01*
G75*
G02*
X144495000Y-106995500I0J-175000D01*
G01*
X144495000Y-108650500D01*
G75*
G02*
X144320000Y-108825500I-175000J0D01*
G01*
G37*
G36*
G01*
X145590000Y-108825500D02*
X145240000Y-108825500D01*
G75*
G02*
X145065000Y-108650500I0J175000D01*
G01*
X145065000Y-106995500D01*
G75*
G02*
X145240000Y-106820500I175000J0D01*
G01*
X145590000Y-106820500D01*
G75*
G02*
X145765000Y-106995500I0J-175000D01*
G01*
X145765000Y-108650500D01*
G75*
G02*
X145590000Y-108825500I-175000J0D01*
G01*
G37*
G36*
G01*
X146860000Y-108825500D02*
X146510000Y-108825500D01*
G75*
G02*
X146335000Y-108650500I0J175000D01*
G01*
X146335000Y-106995500D01*
G75*
G02*
X146510000Y-106820500I175000J0D01*
G01*
X146860000Y-106820500D01*
G75*
G02*
X147035000Y-106995500I0J-175000D01*
G01*
X147035000Y-108650500D01*
G75*
G02*
X146860000Y-108825500I-175000J0D01*
G01*
G37*
G36*
G01*
X148130000Y-108825500D02*
X147780000Y-108825500D01*
G75*
G02*
X147605000Y-108650500I0J175000D01*
G01*
X147605000Y-106995500D01*
G75*
G02*
X147780000Y-106820500I175000J0D01*
G01*
X148130000Y-106820500D01*
G75*
G02*
X148305000Y-106995500I0J-175000D01*
G01*
X148305000Y-108650500D01*
G75*
G02*
X148130000Y-108825500I-175000J0D01*
G01*
G37*
G36*
G01*
X149400000Y-108825500D02*
X149050000Y-108825500D01*
G75*
G02*
X148875000Y-108650500I0J175000D01*
G01*
X148875000Y-106995500D01*
G75*
G02*
X149050000Y-106820500I175000J0D01*
G01*
X149400000Y-106820500D01*
G75*
G02*
X149575000Y-106995500I0J-175000D01*
G01*
X149575000Y-108650500D01*
G75*
G02*
X149400000Y-108825500I-175000J0D01*
G01*
G37*
G36*
G01*
X150670000Y-108825500D02*
X150320000Y-108825500D01*
G75*
G02*
X150145000Y-108650500I0J175000D01*
G01*
X150145000Y-106995500D01*
G75*
G02*
X150320000Y-106820500I175000J0D01*
G01*
X150670000Y-106820500D01*
G75*
G02*
X150845000Y-106995500I0J-175000D01*
G01*
X150845000Y-108650500D01*
G75*
G02*
X150670000Y-108825500I-175000J0D01*
G01*
G37*
G36*
G01*
X151940000Y-108825500D02*
X151590000Y-108825500D01*
G75*
G02*
X151415000Y-108650500I0J175000D01*
G01*
X151415000Y-106995500D01*
G75*
G02*
X151590000Y-106820500I175000J0D01*
G01*
X151940000Y-106820500D01*
G75*
G02*
X152115000Y-106995500I0J-175000D01*
G01*
X152115000Y-108650500D01*
G75*
G02*
X151940000Y-108825500I-175000J0D01*
G01*
G37*
G36*
G01*
X153210000Y-108825500D02*
X152860000Y-108825500D01*
G75*
G02*
X152685000Y-108650500I0J175000D01*
G01*
X152685000Y-106995500D01*
G75*
G02*
X152860000Y-106820500I175000J0D01*
G01*
X153210000Y-106820500D01*
G75*
G02*
X153385000Y-106995500I0J-175000D01*
G01*
X153385000Y-108650500D01*
G75*
G02*
X153210000Y-108825500I-175000J0D01*
G01*
G37*
G36*
G01*
X154480000Y-108825500D02*
X154130000Y-108825500D01*
G75*
G02*
X153955000Y-108650500I0J175000D01*
G01*
X153955000Y-106995500D01*
G75*
G02*
X154130000Y-106820500I175000J0D01*
G01*
X154480000Y-106820500D01*
G75*
G02*
X154655000Y-106995500I0J-175000D01*
G01*
X154655000Y-108650500D01*
G75*
G02*
X154480000Y-108825500I-175000J0D01*
G01*
G37*
G36*
G01*
X155750000Y-108825500D02*
X155400000Y-108825500D01*
G75*
G02*
X155225000Y-108650500I0J175000D01*
G01*
X155225000Y-106995500D01*
G75*
G02*
X155400000Y-106820500I175000J0D01*
G01*
X155750000Y-106820500D01*
G75*
G02*
X155925000Y-106995500I0J-175000D01*
G01*
X155925000Y-108650500D01*
G75*
G02*
X155750000Y-108825500I-175000J0D01*
G01*
G37*
G36*
G01*
X157020000Y-108825500D02*
X156670000Y-108825500D01*
G75*
G02*
X156495000Y-108650500I0J175000D01*
G01*
X156495000Y-106995500D01*
G75*
G02*
X156670000Y-106820500I175000J0D01*
G01*
X157020000Y-106820500D01*
G75*
G02*
X157195000Y-106995500I0J-175000D01*
G01*
X157195000Y-108650500D01*
G75*
G02*
X157020000Y-108825500I-175000J0D01*
G01*
G37*
G36*
G01*
X158290000Y-108825500D02*
X157940000Y-108825500D01*
G75*
G02*
X157765000Y-108650500I0J175000D01*
G01*
X157765000Y-106995500D01*
G75*
G02*
X157940000Y-106820500I175000J0D01*
G01*
X158290000Y-106820500D01*
G75*
G02*
X158465000Y-106995500I0J-175000D01*
G01*
X158465000Y-108650500D01*
G75*
G02*
X158290000Y-108825500I-175000J0D01*
G01*
G37*
G36*
G01*
X159560000Y-108825500D02*
X159210000Y-108825500D01*
G75*
G02*
X159035000Y-108650500I0J175000D01*
G01*
X159035000Y-106995500D01*
G75*
G02*
X159210000Y-106820500I175000J0D01*
G01*
X159560000Y-106820500D01*
G75*
G02*
X159735000Y-106995500I0J-175000D01*
G01*
X159735000Y-108650500D01*
G75*
G02*
X159560000Y-108825500I-175000J0D01*
G01*
G37*
G36*
G01*
X160830000Y-108825500D02*
X160480000Y-108825500D01*
G75*
G02*
X160305000Y-108650500I0J175000D01*
G01*
X160305000Y-106995500D01*
G75*
G02*
X160480000Y-106820500I175000J0D01*
G01*
X160830000Y-106820500D01*
G75*
G02*
X161005000Y-106995500I0J-175000D01*
G01*
X161005000Y-108650500D01*
G75*
G02*
X160830000Y-108825500I-175000J0D01*
G01*
G37*
G36*
G01*
X160830000Y-120763500D02*
X160480000Y-120763500D01*
G75*
G02*
X160305000Y-120588500I0J175000D01*
G01*
X160305000Y-118933500D01*
G75*
G02*
X160480000Y-118758500I175000J0D01*
G01*
X160830000Y-118758500D01*
G75*
G02*
X161005000Y-118933500I0J-175000D01*
G01*
X161005000Y-120588500D01*
G75*
G02*
X160830000Y-120763500I-175000J0D01*
G01*
G37*
G36*
G01*
X159560000Y-120763500D02*
X159210000Y-120763500D01*
G75*
G02*
X159035000Y-120588500I0J175000D01*
G01*
X159035000Y-118933500D01*
G75*
G02*
X159210000Y-118758500I175000J0D01*
G01*
X159560000Y-118758500D01*
G75*
G02*
X159735000Y-118933500I0J-175000D01*
G01*
X159735000Y-120588500D01*
G75*
G02*
X159560000Y-120763500I-175000J0D01*
G01*
G37*
G36*
G01*
X158290000Y-120763500D02*
X157940000Y-120763500D01*
G75*
G02*
X157765000Y-120588500I0J175000D01*
G01*
X157765000Y-118933500D01*
G75*
G02*
X157940000Y-118758500I175000J0D01*
G01*
X158290000Y-118758500D01*
G75*
G02*
X158465000Y-118933500I0J-175000D01*
G01*
X158465000Y-120588500D01*
G75*
G02*
X158290000Y-120763500I-175000J0D01*
G01*
G37*
G36*
G01*
X157020000Y-120763500D02*
X156670000Y-120763500D01*
G75*
G02*
X156495000Y-120588500I0J175000D01*
G01*
X156495000Y-118933500D01*
G75*
G02*
X156670000Y-118758500I175000J0D01*
G01*
X157020000Y-118758500D01*
G75*
G02*
X157195000Y-118933500I0J-175000D01*
G01*
X157195000Y-120588500D01*
G75*
G02*
X157020000Y-120763500I-175000J0D01*
G01*
G37*
G36*
G01*
X155750000Y-120763500D02*
X155400000Y-120763500D01*
G75*
G02*
X155225000Y-120588500I0J175000D01*
G01*
X155225000Y-118933500D01*
G75*
G02*
X155400000Y-118758500I175000J0D01*
G01*
X155750000Y-118758500D01*
G75*
G02*
X155925000Y-118933500I0J-175000D01*
G01*
X155925000Y-120588500D01*
G75*
G02*
X155750000Y-120763500I-175000J0D01*
G01*
G37*
G36*
G01*
X154480000Y-120763500D02*
X154130000Y-120763500D01*
G75*
G02*
X153955000Y-120588500I0J175000D01*
G01*
X153955000Y-118933500D01*
G75*
G02*
X154130000Y-118758500I175000J0D01*
G01*
X154480000Y-118758500D01*
G75*
G02*
X154655000Y-118933500I0J-175000D01*
G01*
X154655000Y-120588500D01*
G75*
G02*
X154480000Y-120763500I-175000J0D01*
G01*
G37*
G36*
G01*
X153210000Y-120763500D02*
X152860000Y-120763500D01*
G75*
G02*
X152685000Y-120588500I0J175000D01*
G01*
X152685000Y-118933500D01*
G75*
G02*
X152860000Y-118758500I175000J0D01*
G01*
X153210000Y-118758500D01*
G75*
G02*
X153385000Y-118933500I0J-175000D01*
G01*
X153385000Y-120588500D01*
G75*
G02*
X153210000Y-120763500I-175000J0D01*
G01*
G37*
G36*
G01*
X151940000Y-120763500D02*
X151590000Y-120763500D01*
G75*
G02*
X151415000Y-120588500I0J175000D01*
G01*
X151415000Y-118933500D01*
G75*
G02*
X151590000Y-118758500I175000J0D01*
G01*
X151940000Y-118758500D01*
G75*
G02*
X152115000Y-118933500I0J-175000D01*
G01*
X152115000Y-120588500D01*
G75*
G02*
X151940000Y-120763500I-175000J0D01*
G01*
G37*
G36*
G01*
X150670000Y-120763500D02*
X150320000Y-120763500D01*
G75*
G02*
X150145000Y-120588500I0J175000D01*
G01*
X150145000Y-118933500D01*
G75*
G02*
X150320000Y-118758500I175000J0D01*
G01*
X150670000Y-118758500D01*
G75*
G02*
X150845000Y-118933500I0J-175000D01*
G01*
X150845000Y-120588500D01*
G75*
G02*
X150670000Y-120763500I-175000J0D01*
G01*
G37*
G36*
G01*
X149400000Y-120763500D02*
X149050000Y-120763500D01*
G75*
G02*
X148875000Y-120588500I0J175000D01*
G01*
X148875000Y-118933500D01*
G75*
G02*
X149050000Y-118758500I175000J0D01*
G01*
X149400000Y-118758500D01*
G75*
G02*
X149575000Y-118933500I0J-175000D01*
G01*
X149575000Y-120588500D01*
G75*
G02*
X149400000Y-120763500I-175000J0D01*
G01*
G37*
G36*
G01*
X148130000Y-120763500D02*
X147780000Y-120763500D01*
G75*
G02*
X147605000Y-120588500I0J175000D01*
G01*
X147605000Y-118933500D01*
G75*
G02*
X147780000Y-118758500I175000J0D01*
G01*
X148130000Y-118758500D01*
G75*
G02*
X148305000Y-118933500I0J-175000D01*
G01*
X148305000Y-120588500D01*
G75*
G02*
X148130000Y-120763500I-175000J0D01*
G01*
G37*
G36*
G01*
X146860000Y-120763500D02*
X146510000Y-120763500D01*
G75*
G02*
X146335000Y-120588500I0J175000D01*
G01*
X146335000Y-118933500D01*
G75*
G02*
X146510000Y-118758500I175000J0D01*
G01*
X146860000Y-118758500D01*
G75*
G02*
X147035000Y-118933500I0J-175000D01*
G01*
X147035000Y-120588500D01*
G75*
G02*
X146860000Y-120763500I-175000J0D01*
G01*
G37*
G36*
G01*
X145590000Y-120763500D02*
X145240000Y-120763500D01*
G75*
G02*
X145065000Y-120588500I0J175000D01*
G01*
X145065000Y-118933500D01*
G75*
G02*
X145240000Y-118758500I175000J0D01*
G01*
X145590000Y-118758500D01*
G75*
G02*
X145765000Y-118933500I0J-175000D01*
G01*
X145765000Y-120588500D01*
G75*
G02*
X145590000Y-120763500I-175000J0D01*
G01*
G37*
G36*
G01*
X144320000Y-120763500D02*
X143970000Y-120763500D01*
G75*
G02*
X143795000Y-120588500I0J175000D01*
G01*
X143795000Y-118933500D01*
G75*
G02*
X143970000Y-118758500I175000J0D01*
G01*
X144320000Y-118758500D01*
G75*
G02*
X144495000Y-118933500I0J-175000D01*
G01*
X144495000Y-120588500D01*
G75*
G02*
X144320000Y-120763500I-175000J0D01*
G01*
G37*
G36*
G01*
X143050000Y-120763500D02*
X142700000Y-120763500D01*
G75*
G02*
X142525000Y-120588500I0J175000D01*
G01*
X142525000Y-118933500D01*
G75*
G02*
X142700000Y-118758500I175000J0D01*
G01*
X143050000Y-118758500D01*
G75*
G02*
X143225000Y-118933500I0J-175000D01*
G01*
X143225000Y-120588500D01*
G75*
G02*
X143050000Y-120763500I-175000J0D01*
G01*
G37*
G36*
G01*
X141780000Y-120763500D02*
X141430000Y-120763500D01*
G75*
G02*
X141255000Y-120588500I0J175000D01*
G01*
X141255000Y-118933500D01*
G75*
G02*
X141430000Y-118758500I175000J0D01*
G01*
X141780000Y-118758500D01*
G75*
G02*
X141955000Y-118933500I0J-175000D01*
G01*
X141955000Y-120588500D01*
G75*
G02*
X141780000Y-120763500I-175000J0D01*
G01*
G37*
G36*
G01*
X98600000Y-108825500D02*
X98250000Y-108825500D01*
G75*
G02*
X98075000Y-108650500I0J175000D01*
G01*
X98075000Y-106995500D01*
G75*
G02*
X98250000Y-106820500I175000J0D01*
G01*
X98600000Y-106820500D01*
G75*
G02*
X98775000Y-106995500I0J-175000D01*
G01*
X98775000Y-108650500D01*
G75*
G02*
X98600000Y-108825500I-175000J0D01*
G01*
G37*
G36*
G01*
X99870000Y-108825500D02*
X99520000Y-108825500D01*
G75*
G02*
X99345000Y-108650500I0J175000D01*
G01*
X99345000Y-106995500D01*
G75*
G02*
X99520000Y-106820500I175000J0D01*
G01*
X99870000Y-106820500D01*
G75*
G02*
X100045000Y-106995500I0J-175000D01*
G01*
X100045000Y-108650500D01*
G75*
G02*
X99870000Y-108825500I-175000J0D01*
G01*
G37*
G36*
G01*
X101140000Y-108825500D02*
X100790000Y-108825500D01*
G75*
G02*
X100615000Y-108650500I0J175000D01*
G01*
X100615000Y-106995500D01*
G75*
G02*
X100790000Y-106820500I175000J0D01*
G01*
X101140000Y-106820500D01*
G75*
G02*
X101315000Y-106995500I0J-175000D01*
G01*
X101315000Y-108650500D01*
G75*
G02*
X101140000Y-108825500I-175000J0D01*
G01*
G37*
G36*
G01*
X102410000Y-108825500D02*
X102060000Y-108825500D01*
G75*
G02*
X101885000Y-108650500I0J175000D01*
G01*
X101885000Y-106995500D01*
G75*
G02*
X102060000Y-106820500I175000J0D01*
G01*
X102410000Y-106820500D01*
G75*
G02*
X102585000Y-106995500I0J-175000D01*
G01*
X102585000Y-108650500D01*
G75*
G02*
X102410000Y-108825500I-175000J0D01*
G01*
G37*
G36*
G01*
X103680000Y-108825500D02*
X103330000Y-108825500D01*
G75*
G02*
X103155000Y-108650500I0J175000D01*
G01*
X103155000Y-106995500D01*
G75*
G02*
X103330000Y-106820500I175000J0D01*
G01*
X103680000Y-106820500D01*
G75*
G02*
X103855000Y-106995500I0J-175000D01*
G01*
X103855000Y-108650500D01*
G75*
G02*
X103680000Y-108825500I-175000J0D01*
G01*
G37*
G36*
G01*
X104950000Y-108825500D02*
X104600000Y-108825500D01*
G75*
G02*
X104425000Y-108650500I0J175000D01*
G01*
X104425000Y-106995500D01*
G75*
G02*
X104600000Y-106820500I175000J0D01*
G01*
X104950000Y-106820500D01*
G75*
G02*
X105125000Y-106995500I0J-175000D01*
G01*
X105125000Y-108650500D01*
G75*
G02*
X104950000Y-108825500I-175000J0D01*
G01*
G37*
G36*
G01*
X106220000Y-108825500D02*
X105870000Y-108825500D01*
G75*
G02*
X105695000Y-108650500I0J175000D01*
G01*
X105695000Y-106995500D01*
G75*
G02*
X105870000Y-106820500I175000J0D01*
G01*
X106220000Y-106820500D01*
G75*
G02*
X106395000Y-106995500I0J-175000D01*
G01*
X106395000Y-108650500D01*
G75*
G02*
X106220000Y-108825500I-175000J0D01*
G01*
G37*
G36*
G01*
X107490000Y-108825500D02*
X107140000Y-108825500D01*
G75*
G02*
X106965000Y-108650500I0J175000D01*
G01*
X106965000Y-106995500D01*
G75*
G02*
X107140000Y-106820500I175000J0D01*
G01*
X107490000Y-106820500D01*
G75*
G02*
X107665000Y-106995500I0J-175000D01*
G01*
X107665000Y-108650500D01*
G75*
G02*
X107490000Y-108825500I-175000J0D01*
G01*
G37*
G36*
G01*
X108760000Y-108825500D02*
X108410000Y-108825500D01*
G75*
G02*
X108235000Y-108650500I0J175000D01*
G01*
X108235000Y-106995500D01*
G75*
G02*
X108410000Y-106820500I175000J0D01*
G01*
X108760000Y-106820500D01*
G75*
G02*
X108935000Y-106995500I0J-175000D01*
G01*
X108935000Y-108650500D01*
G75*
G02*
X108760000Y-108825500I-175000J0D01*
G01*
G37*
G36*
G01*
X110030000Y-108825500D02*
X109680000Y-108825500D01*
G75*
G02*
X109505000Y-108650500I0J175000D01*
G01*
X109505000Y-106995500D01*
G75*
G02*
X109680000Y-106820500I175000J0D01*
G01*
X110030000Y-106820500D01*
G75*
G02*
X110205000Y-106995500I0J-175000D01*
G01*
X110205000Y-108650500D01*
G75*
G02*
X110030000Y-108825500I-175000J0D01*
G01*
G37*
G36*
G01*
X111300000Y-108825500D02*
X110950000Y-108825500D01*
G75*
G02*
X110775000Y-108650500I0J175000D01*
G01*
X110775000Y-106995500D01*
G75*
G02*
X110950000Y-106820500I175000J0D01*
G01*
X111300000Y-106820500D01*
G75*
G02*
X111475000Y-106995500I0J-175000D01*
G01*
X111475000Y-108650500D01*
G75*
G02*
X111300000Y-108825500I-175000J0D01*
G01*
G37*
G36*
G01*
X112570000Y-108825500D02*
X112220000Y-108825500D01*
G75*
G02*
X112045000Y-108650500I0J175000D01*
G01*
X112045000Y-106995500D01*
G75*
G02*
X112220000Y-106820500I175000J0D01*
G01*
X112570000Y-106820500D01*
G75*
G02*
X112745000Y-106995500I0J-175000D01*
G01*
X112745000Y-108650500D01*
G75*
G02*
X112570000Y-108825500I-175000J0D01*
G01*
G37*
G36*
G01*
X113840000Y-108825500D02*
X113490000Y-108825500D01*
G75*
G02*
X113315000Y-108650500I0J175000D01*
G01*
X113315000Y-106995500D01*
G75*
G02*
X113490000Y-106820500I175000J0D01*
G01*
X113840000Y-106820500D01*
G75*
G02*
X114015000Y-106995500I0J-175000D01*
G01*
X114015000Y-108650500D01*
G75*
G02*
X113840000Y-108825500I-175000J0D01*
G01*
G37*
G36*
G01*
X115110000Y-108825500D02*
X114760000Y-108825500D01*
G75*
G02*
X114585000Y-108650500I0J175000D01*
G01*
X114585000Y-106995500D01*
G75*
G02*
X114760000Y-106820500I175000J0D01*
G01*
X115110000Y-106820500D01*
G75*
G02*
X115285000Y-106995500I0J-175000D01*
G01*
X115285000Y-108650500D01*
G75*
G02*
X115110000Y-108825500I-175000J0D01*
G01*
G37*
G36*
G01*
X116380000Y-108825500D02*
X116030000Y-108825500D01*
G75*
G02*
X115855000Y-108650500I0J175000D01*
G01*
X115855000Y-106995500D01*
G75*
G02*
X116030000Y-106820500I175000J0D01*
G01*
X116380000Y-106820500D01*
G75*
G02*
X116555000Y-106995500I0J-175000D01*
G01*
X116555000Y-108650500D01*
G75*
G02*
X116380000Y-108825500I-175000J0D01*
G01*
G37*
G36*
G01*
X117650000Y-108825500D02*
X117300000Y-108825500D01*
G75*
G02*
X117125000Y-108650500I0J175000D01*
G01*
X117125000Y-106995500D01*
G75*
G02*
X117300000Y-106820500I175000J0D01*
G01*
X117650000Y-106820500D01*
G75*
G02*
X117825000Y-106995500I0J-175000D01*
G01*
X117825000Y-108650500D01*
G75*
G02*
X117650000Y-108825500I-175000J0D01*
G01*
G37*
G36*
G01*
X117650000Y-120763500D02*
X117300000Y-120763500D01*
G75*
G02*
X117125000Y-120588500I0J175000D01*
G01*
X117125000Y-118933500D01*
G75*
G02*
X117300000Y-118758500I175000J0D01*
G01*
X117650000Y-118758500D01*
G75*
G02*
X117825000Y-118933500I0J-175000D01*
G01*
X117825000Y-120588500D01*
G75*
G02*
X117650000Y-120763500I-175000J0D01*
G01*
G37*
G36*
G01*
X116380000Y-120763500D02*
X116030000Y-120763500D01*
G75*
G02*
X115855000Y-120588500I0J175000D01*
G01*
X115855000Y-118933500D01*
G75*
G02*
X116030000Y-118758500I175000J0D01*
G01*
X116380000Y-118758500D01*
G75*
G02*
X116555000Y-118933500I0J-175000D01*
G01*
X116555000Y-120588500D01*
G75*
G02*
X116380000Y-120763500I-175000J0D01*
G01*
G37*
G36*
G01*
X115110000Y-120763500D02*
X114760000Y-120763500D01*
G75*
G02*
X114585000Y-120588500I0J175000D01*
G01*
X114585000Y-118933500D01*
G75*
G02*
X114760000Y-118758500I175000J0D01*
G01*
X115110000Y-118758500D01*
G75*
G02*
X115285000Y-118933500I0J-175000D01*
G01*
X115285000Y-120588500D01*
G75*
G02*
X115110000Y-120763500I-175000J0D01*
G01*
G37*
G36*
G01*
X113840000Y-120763500D02*
X113490000Y-120763500D01*
G75*
G02*
X113315000Y-120588500I0J175000D01*
G01*
X113315000Y-118933500D01*
G75*
G02*
X113490000Y-118758500I175000J0D01*
G01*
X113840000Y-118758500D01*
G75*
G02*
X114015000Y-118933500I0J-175000D01*
G01*
X114015000Y-120588500D01*
G75*
G02*
X113840000Y-120763500I-175000J0D01*
G01*
G37*
G36*
G01*
X112570000Y-120763500D02*
X112220000Y-120763500D01*
G75*
G02*
X112045000Y-120588500I0J175000D01*
G01*
X112045000Y-118933500D01*
G75*
G02*
X112220000Y-118758500I175000J0D01*
G01*
X112570000Y-118758500D01*
G75*
G02*
X112745000Y-118933500I0J-175000D01*
G01*
X112745000Y-120588500D01*
G75*
G02*
X112570000Y-120763500I-175000J0D01*
G01*
G37*
G36*
G01*
X111300000Y-120763500D02*
X110950000Y-120763500D01*
G75*
G02*
X110775000Y-120588500I0J175000D01*
G01*
X110775000Y-118933500D01*
G75*
G02*
X110950000Y-118758500I175000J0D01*
G01*
X111300000Y-118758500D01*
G75*
G02*
X111475000Y-118933500I0J-175000D01*
G01*
X111475000Y-120588500D01*
G75*
G02*
X111300000Y-120763500I-175000J0D01*
G01*
G37*
G36*
G01*
X110030000Y-120763500D02*
X109680000Y-120763500D01*
G75*
G02*
X109505000Y-120588500I0J175000D01*
G01*
X109505000Y-118933500D01*
G75*
G02*
X109680000Y-118758500I175000J0D01*
G01*
X110030000Y-118758500D01*
G75*
G02*
X110205000Y-118933500I0J-175000D01*
G01*
X110205000Y-120588500D01*
G75*
G02*
X110030000Y-120763500I-175000J0D01*
G01*
G37*
G36*
G01*
X108760000Y-120763500D02*
X108410000Y-120763500D01*
G75*
G02*
X108235000Y-120588500I0J175000D01*
G01*
X108235000Y-118933500D01*
G75*
G02*
X108410000Y-118758500I175000J0D01*
G01*
X108760000Y-118758500D01*
G75*
G02*
X108935000Y-118933500I0J-175000D01*
G01*
X108935000Y-120588500D01*
G75*
G02*
X108760000Y-120763500I-175000J0D01*
G01*
G37*
G36*
G01*
X107490000Y-120763500D02*
X107140000Y-120763500D01*
G75*
G02*
X106965000Y-120588500I0J175000D01*
G01*
X106965000Y-118933500D01*
G75*
G02*
X107140000Y-118758500I175000J0D01*
G01*
X107490000Y-118758500D01*
G75*
G02*
X107665000Y-118933500I0J-175000D01*
G01*
X107665000Y-120588500D01*
G75*
G02*
X107490000Y-120763500I-175000J0D01*
G01*
G37*
G36*
G01*
X106220000Y-120763500D02*
X105870000Y-120763500D01*
G75*
G02*
X105695000Y-120588500I0J175000D01*
G01*
X105695000Y-118933500D01*
G75*
G02*
X105870000Y-118758500I175000J0D01*
G01*
X106220000Y-118758500D01*
G75*
G02*
X106395000Y-118933500I0J-175000D01*
G01*
X106395000Y-120588500D01*
G75*
G02*
X106220000Y-120763500I-175000J0D01*
G01*
G37*
G36*
G01*
X104950000Y-120763500D02*
X104600000Y-120763500D01*
G75*
G02*
X104425000Y-120588500I0J175000D01*
G01*
X104425000Y-118933500D01*
G75*
G02*
X104600000Y-118758500I175000J0D01*
G01*
X104950000Y-118758500D01*
G75*
G02*
X105125000Y-118933500I0J-175000D01*
G01*
X105125000Y-120588500D01*
G75*
G02*
X104950000Y-120763500I-175000J0D01*
G01*
G37*
G36*
G01*
X103680000Y-120763500D02*
X103330000Y-120763500D01*
G75*
G02*
X103155000Y-120588500I0J175000D01*
G01*
X103155000Y-118933500D01*
G75*
G02*
X103330000Y-118758500I175000J0D01*
G01*
X103680000Y-118758500D01*
G75*
G02*
X103855000Y-118933500I0J-175000D01*
G01*
X103855000Y-120588500D01*
G75*
G02*
X103680000Y-120763500I-175000J0D01*
G01*
G37*
G36*
G01*
X102410000Y-120763500D02*
X102060000Y-120763500D01*
G75*
G02*
X101885000Y-120588500I0J175000D01*
G01*
X101885000Y-118933500D01*
G75*
G02*
X102060000Y-118758500I175000J0D01*
G01*
X102410000Y-118758500D01*
G75*
G02*
X102585000Y-118933500I0J-175000D01*
G01*
X102585000Y-120588500D01*
G75*
G02*
X102410000Y-120763500I-175000J0D01*
G01*
G37*
G36*
G01*
X101140000Y-120763500D02*
X100790000Y-120763500D01*
G75*
G02*
X100615000Y-120588500I0J175000D01*
G01*
X100615000Y-118933500D01*
G75*
G02*
X100790000Y-118758500I175000J0D01*
G01*
X101140000Y-118758500D01*
G75*
G02*
X101315000Y-118933500I0J-175000D01*
G01*
X101315000Y-120588500D01*
G75*
G02*
X101140000Y-120763500I-175000J0D01*
G01*
G37*
G36*
G01*
X99870000Y-120763500D02*
X99520000Y-120763500D01*
G75*
G02*
X99345000Y-120588500I0J175000D01*
G01*
X99345000Y-118933500D01*
G75*
G02*
X99520000Y-118758500I175000J0D01*
G01*
X99870000Y-118758500D01*
G75*
G02*
X100045000Y-118933500I0J-175000D01*
G01*
X100045000Y-120588500D01*
G75*
G02*
X99870000Y-120763500I-175000J0D01*
G01*
G37*
G36*
G01*
X98600000Y-120763500D02*
X98250000Y-120763500D01*
G75*
G02*
X98075000Y-120588500I0J175000D01*
G01*
X98075000Y-118933500D01*
G75*
G02*
X98250000Y-118758500I175000J0D01*
G01*
X98600000Y-118758500D01*
G75*
G02*
X98775000Y-118933500I0J-175000D01*
G01*
X98775000Y-120588500D01*
G75*
G02*
X98600000Y-120763500I-175000J0D01*
G01*
G37*
G36*
G01*
X155415000Y-105414500D02*
X155415000Y-104389500D01*
G75*
G02*
X155652500Y-104152000I237500J0D01*
G01*
X156127500Y-104152000D01*
G75*
G02*
X156365000Y-104389500I0J-237500D01*
G01*
X156365000Y-105414500D01*
G75*
G02*
X156127500Y-105652000I-237500J0D01*
G01*
X155652500Y-105652000D01*
G75*
G02*
X155415000Y-105414500I0J237500D01*
G01*
G37*
G36*
G01*
X153515000Y-105414500D02*
X153515000Y-104389500D01*
G75*
G02*
X153752500Y-104152000I237500J0D01*
G01*
X154227500Y-104152000D01*
G75*
G02*
X154465000Y-104389500I0J-237500D01*
G01*
X154465000Y-105414500D01*
G75*
G02*
X154227500Y-105652000I-237500J0D01*
G01*
X153752500Y-105652000D01*
G75*
G02*
X153515000Y-105414500I0J237500D01*
G01*
G37*
G36*
G01*
X91341000Y-104326000D02*
X91341000Y-105351000D01*
G75*
G02*
X91103500Y-105588500I-237500J0D01*
G01*
X90628500Y-105588500D01*
G75*
G02*
X90391000Y-105351000I0J237500D01*
G01*
X90391000Y-104326000D01*
G75*
G02*
X90628500Y-104088500I237500J0D01*
G01*
X91103500Y-104088500D01*
G75*
G02*
X91341000Y-104326000I0J-237500D01*
G01*
G37*
G36*
G01*
X89441000Y-104326000D02*
X89441000Y-105351000D01*
G75*
G02*
X89203500Y-105588500I-237500J0D01*
G01*
X88728500Y-105588500D01*
G75*
G02*
X88491000Y-105351000I0J237500D01*
G01*
X88491000Y-104326000D01*
G75*
G02*
X88728500Y-104088500I237500J0D01*
G01*
X89203500Y-104088500D01*
G75*
G02*
X89441000Y-104326000I0J-237500D01*
G01*
G37*
G36*
G01*
X96275000Y-104887500D02*
X96275000Y-105812500D01*
G75*
G02*
X95987500Y-106100000I-287500J0D01*
G01*
X95412500Y-106100000D01*
G75*
G02*
X95125000Y-105812500I0J287500D01*
G01*
X95125000Y-104887500D01*
G75*
G02*
X95412500Y-104600000I287500J0D01*
G01*
X95987500Y-104600000D01*
G75*
G02*
X96275000Y-104887500I0J-287500D01*
G01*
G37*
G36*
G01*
X94575000Y-104887500D02*
X94575000Y-105812500D01*
G75*
G02*
X94287500Y-106100000I-287500J0D01*
G01*
X93712500Y-106100000D01*
G75*
G02*
X93425000Y-105812500I0J287500D01*
G01*
X93425000Y-104887500D01*
G75*
G02*
X93712500Y-104600000I287500J0D01*
G01*
X94287500Y-104600000D01*
G75*
G02*
X94575000Y-104887500I0J-287500D01*
G01*
G37*
G36*
G01*
X99979500Y-105351000D02*
X99979500Y-104326000D01*
G75*
G02*
X100217000Y-104088500I237500J0D01*
G01*
X100692000Y-104088500D01*
G75*
G02*
X100929500Y-104326000I0J-237500D01*
G01*
X100929500Y-105351000D01*
G75*
G02*
X100692000Y-105588500I-237500J0D01*
G01*
X100217000Y-105588500D01*
G75*
G02*
X99979500Y-105351000I0J237500D01*
G01*
G37*
G36*
G01*
X98079500Y-105351000D02*
X98079500Y-104326000D01*
G75*
G02*
X98317000Y-104088500I237500J0D01*
G01*
X98792000Y-104088500D01*
G75*
G02*
X99029500Y-104326000I0J-237500D01*
G01*
X99029500Y-105351000D01*
G75*
G02*
X98792000Y-105588500I-237500J0D01*
G01*
X98317000Y-105588500D01*
G75*
G02*
X98079500Y-105351000I0J237500D01*
G01*
G37*
G36*
G01*
X104358500Y-104326000D02*
X104358500Y-105351000D01*
G75*
G02*
X104121000Y-105588500I-237500J0D01*
G01*
X103646000Y-105588500D01*
G75*
G02*
X103408500Y-105351000I0J237500D01*
G01*
X103408500Y-104326000D01*
G75*
G02*
X103646000Y-104088500I237500J0D01*
G01*
X104121000Y-104088500D01*
G75*
G02*
X104358500Y-104326000I0J-237500D01*
G01*
G37*
G36*
G01*
X102458500Y-104326000D02*
X102458500Y-105351000D01*
G75*
G02*
X102221000Y-105588500I-237500J0D01*
G01*
X101746000Y-105588500D01*
G75*
G02*
X101508500Y-105351000I0J237500D01*
G01*
X101508500Y-104326000D01*
G75*
G02*
X101746000Y-104088500I237500J0D01*
G01*
X102221000Y-104088500D01*
G75*
G02*
X102458500Y-104326000I0J-237500D01*
G01*
G37*
G36*
G01*
X150086000Y-105414500D02*
X150086000Y-104389500D01*
G75*
G02*
X150323500Y-104152000I237500J0D01*
G01*
X150798500Y-104152000D01*
G75*
G02*
X151036000Y-104389500I0J-237500D01*
G01*
X151036000Y-105414500D01*
G75*
G02*
X150798500Y-105652000I-237500J0D01*
G01*
X150323500Y-105652000D01*
G75*
G02*
X150086000Y-105414500I0J237500D01*
G01*
G37*
G36*
G01*
X151986000Y-105414500D02*
X151986000Y-104389500D01*
G75*
G02*
X152223500Y-104152000I237500J0D01*
G01*
X152698500Y-104152000D01*
G75*
G02*
X152936000Y-104389500I0J-237500D01*
G01*
X152936000Y-105414500D01*
G75*
G02*
X152698500Y-105652000I-237500J0D01*
G01*
X152223500Y-105652000D01*
G75*
G02*
X151986000Y-105414500I0J237500D01*
G01*
G37*
G36*
G01*
X93560000Y-108520000D02*
X93560000Y-108280000D01*
G75*
G02*
X93680000Y-108160000I120000J0D01*
G01*
X94520000Y-108160000D01*
G75*
G02*
X94640000Y-108280000I0J-120000D01*
G01*
X94640000Y-108520000D01*
G75*
G02*
X94520000Y-108640000I-120000J0D01*
G01*
X93680000Y-108640000D01*
G75*
G02*
X93560000Y-108520000I0J120000D01*
G01*
G37*
G36*
G01*
X93560000Y-107220000D02*
X93560000Y-106980000D01*
G75*
G02*
X93680000Y-106860000I120000J0D01*
G01*
X94520000Y-106860000D01*
G75*
G02*
X94640000Y-106980000I0J-120000D01*
G01*
X94640000Y-107220000D01*
G75*
G02*
X94520000Y-107340000I-120000J0D01*
G01*
X93680000Y-107340000D01*
G75*
G02*
X93560000Y-107220000I0J120000D01*
G01*
G37*
G36*
G01*
X93560000Y-107870000D02*
X93560000Y-107630000D01*
G75*
G02*
X93680000Y-107510000I120000J0D01*
G01*
X94520000Y-107510000D01*
G75*
G02*
X94640000Y-107630000I0J-120000D01*
G01*
X94640000Y-107870000D01*
G75*
G02*
X94520000Y-107990000I-120000J0D01*
G01*
X93680000Y-107990000D01*
G75*
G02*
X93560000Y-107870000I0J120000D01*
G01*
G37*
G36*
G01*
X95260000Y-108520000D02*
X95260000Y-108280000D01*
G75*
G02*
X95380000Y-108160000I120000J0D01*
G01*
X96220000Y-108160000D01*
G75*
G02*
X96340000Y-108280000I0J-120000D01*
G01*
X96340000Y-108520000D01*
G75*
G02*
X96220000Y-108640000I-120000J0D01*
G01*
X95380000Y-108640000D01*
G75*
G02*
X95260000Y-108520000I0J120000D01*
G01*
G37*
G36*
G01*
X95260000Y-107220000D02*
X95260000Y-106980000D01*
G75*
G02*
X95380000Y-106860000I120000J0D01*
G01*
X96220000Y-106860000D01*
G75*
G02*
X96340000Y-106980000I0J-120000D01*
G01*
X96340000Y-107220000D01*
G75*
G02*
X96220000Y-107340000I-120000J0D01*
G01*
X95380000Y-107340000D01*
G75*
G02*
X95260000Y-107220000I0J120000D01*
G01*
G37*
D15*
X73406000Y-103886000D03*
G36*
G01*
X78912500Y-118975000D02*
X77887500Y-118975000D01*
G75*
G02*
X77650000Y-118737500I0J237500D01*
G01*
X77650000Y-118262500D01*
G75*
G02*
X77887500Y-118025000I237500J0D01*
G01*
X78912500Y-118025000D01*
G75*
G02*
X79150000Y-118262500I0J-237500D01*
G01*
X79150000Y-118737500D01*
G75*
G02*
X78912500Y-118975000I-237500J0D01*
G01*
G37*
G36*
G01*
X78912500Y-117075000D02*
X77887500Y-117075000D01*
G75*
G02*
X77650000Y-116837500I0J237500D01*
G01*
X77650000Y-116362500D01*
G75*
G02*
X77887500Y-116125000I237500J0D01*
G01*
X78912500Y-116125000D01*
G75*
G02*
X79150000Y-116362500I0J-237500D01*
G01*
X79150000Y-116837500D01*
G75*
G02*
X78912500Y-117075000I-237500J0D01*
G01*
G37*
G36*
G01*
X74037500Y-114075000D02*
X75062500Y-114075000D01*
G75*
G02*
X75300000Y-114312500I0J-237500D01*
G01*
X75300000Y-114787500D01*
G75*
G02*
X75062500Y-115025000I-237500J0D01*
G01*
X74037500Y-115025000D01*
G75*
G02*
X73800000Y-114787500I0J237500D01*
G01*
X73800000Y-114312500D01*
G75*
G02*
X74037500Y-114075000I237500J0D01*
G01*
G37*
G36*
G01*
X74037500Y-112175000D02*
X75062500Y-112175000D01*
G75*
G02*
X75300000Y-112412500I0J-237500D01*
G01*
X75300000Y-112887500D01*
G75*
G02*
X75062500Y-113125000I-237500J0D01*
G01*
X74037500Y-113125000D01*
G75*
G02*
X73800000Y-112887500I0J237500D01*
G01*
X73800000Y-112412500D01*
G75*
G02*
X74037500Y-112175000I237500J0D01*
G01*
G37*
G36*
G01*
X162599300Y-127233440D02*
X162599300Y-124988560D01*
G75*
G02*
X163075860Y-124512000I476560J0D01*
G01*
X163314140Y-124512000D01*
G75*
G02*
X163790700Y-124988560I0J-476560D01*
G01*
X163790700Y-127233440D01*
G75*
G02*
X163314140Y-127710000I-476560J0D01*
G01*
X163075860Y-127710000D01*
G75*
G02*
X162599300Y-127233440I0J476560D01*
G01*
G37*
G36*
G01*
X161329300Y-127233440D02*
X161329300Y-124988560D01*
G75*
G02*
X161805860Y-124512000I476560J0D01*
G01*
X162044140Y-124512000D01*
G75*
G02*
X162520700Y-124988560I0J-476560D01*
G01*
X162520700Y-127233440D01*
G75*
G02*
X162044140Y-127710000I-476560J0D01*
G01*
X161805860Y-127710000D01*
G75*
G02*
X161329300Y-127233440I0J476560D01*
G01*
G37*
G36*
G01*
X160059300Y-127233440D02*
X160059300Y-124988560D01*
G75*
G02*
X160535860Y-124512000I476560J0D01*
G01*
X160774140Y-124512000D01*
G75*
G02*
X161250700Y-124988560I0J-476560D01*
G01*
X161250700Y-127233440D01*
G75*
G02*
X160774140Y-127710000I-476560J0D01*
G01*
X160535860Y-127710000D01*
G75*
G02*
X160059300Y-127233440I0J476560D01*
G01*
G37*
G36*
G01*
X158789300Y-127233440D02*
X158789300Y-124988560D01*
G75*
G02*
X159265860Y-124512000I476560J0D01*
G01*
X159504140Y-124512000D01*
G75*
G02*
X159980700Y-124988560I0J-476560D01*
G01*
X159980700Y-127233440D01*
G75*
G02*
X159504140Y-127710000I-476560J0D01*
G01*
X159265860Y-127710000D01*
G75*
G02*
X158789300Y-127233440I0J476560D01*
G01*
G37*
G36*
G01*
X157519300Y-127233440D02*
X157519300Y-124988560D01*
G75*
G02*
X157995860Y-124512000I476560J0D01*
G01*
X158234140Y-124512000D01*
G75*
G02*
X158710700Y-124988560I0J-476560D01*
G01*
X158710700Y-127233440D01*
G75*
G02*
X158234140Y-127710000I-476560J0D01*
G01*
X157995860Y-127710000D01*
G75*
G02*
X157519300Y-127233440I0J476560D01*
G01*
G37*
G36*
G01*
X156249300Y-127233440D02*
X156249300Y-124988560D01*
G75*
G02*
X156725860Y-124512000I476560J0D01*
G01*
X156964140Y-124512000D01*
G75*
G02*
X157440700Y-124988560I0J-476560D01*
G01*
X157440700Y-127233440D01*
G75*
G02*
X156964140Y-127710000I-476560J0D01*
G01*
X156725860Y-127710000D01*
G75*
G02*
X156249300Y-127233440I0J476560D01*
G01*
G37*
G36*
G01*
X154979300Y-127233440D02*
X154979300Y-124988560D01*
G75*
G02*
X155455860Y-124512000I476560J0D01*
G01*
X155694140Y-124512000D01*
G75*
G02*
X156170700Y-124988560I0J-476560D01*
G01*
X156170700Y-127233440D01*
G75*
G02*
X155694140Y-127710000I-476560J0D01*
G01*
X155455860Y-127710000D01*
G75*
G02*
X154979300Y-127233440I0J476560D01*
G01*
G37*
G36*
G01*
X153709300Y-127233440D02*
X153709300Y-124988560D01*
G75*
G02*
X154185860Y-124512000I476560J0D01*
G01*
X154424140Y-124512000D01*
G75*
G02*
X154900700Y-124988560I0J-476560D01*
G01*
X154900700Y-127233440D01*
G75*
G02*
X154424140Y-127710000I-476560J0D01*
G01*
X154185860Y-127710000D01*
G75*
G02*
X153709300Y-127233440I0J476560D01*
G01*
G37*
G36*
G01*
X152439300Y-127233440D02*
X152439300Y-124988560D01*
G75*
G02*
X152915860Y-124512000I476560J0D01*
G01*
X153154140Y-124512000D01*
G75*
G02*
X153630700Y-124988560I0J-476560D01*
G01*
X153630700Y-127233440D01*
G75*
G02*
X153154140Y-127710000I-476560J0D01*
G01*
X152915860Y-127710000D01*
G75*
G02*
X152439300Y-127233440I0J476560D01*
G01*
G37*
G36*
G01*
X151169300Y-127233440D02*
X151169300Y-124988560D01*
G75*
G02*
X151645860Y-124512000I476560J0D01*
G01*
X151884140Y-124512000D01*
G75*
G02*
X152360700Y-124988560I0J-476560D01*
G01*
X152360700Y-127233440D01*
G75*
G02*
X151884140Y-127710000I-476560J0D01*
G01*
X151645860Y-127710000D01*
G75*
G02*
X151169300Y-127233440I0J476560D01*
G01*
G37*
G36*
G01*
X149899300Y-127233440D02*
X149899300Y-124988560D01*
G75*
G02*
X150375860Y-124512000I476560J0D01*
G01*
X150614140Y-124512000D01*
G75*
G02*
X151090700Y-124988560I0J-476560D01*
G01*
X151090700Y-127233440D01*
G75*
G02*
X150614140Y-127710000I-476560J0D01*
G01*
X150375860Y-127710000D01*
G75*
G02*
X149899300Y-127233440I0J476560D01*
G01*
G37*
G36*
G01*
X148629300Y-127233440D02*
X148629300Y-124988560D01*
G75*
G02*
X149105860Y-124512000I476560J0D01*
G01*
X149344140Y-124512000D01*
G75*
G02*
X149820700Y-124988560I0J-476560D01*
G01*
X149820700Y-127233440D01*
G75*
G02*
X149344140Y-127710000I-476560J0D01*
G01*
X149105860Y-127710000D01*
G75*
G02*
X148629300Y-127233440I0J476560D01*
G01*
G37*
G36*
G01*
X147359300Y-127233440D02*
X147359300Y-124988560D01*
G75*
G02*
X147835860Y-124512000I476560J0D01*
G01*
X148074140Y-124512000D01*
G75*
G02*
X148550700Y-124988560I0J-476560D01*
G01*
X148550700Y-127233440D01*
G75*
G02*
X148074140Y-127710000I-476560J0D01*
G01*
X147835860Y-127710000D01*
G75*
G02*
X147359300Y-127233440I0J476560D01*
G01*
G37*
G36*
G01*
X146089300Y-127233440D02*
X146089300Y-124988560D01*
G75*
G02*
X146565860Y-124512000I476560J0D01*
G01*
X146804140Y-124512000D01*
G75*
G02*
X147280700Y-124988560I0J-476560D01*
G01*
X147280700Y-127233440D01*
G75*
G02*
X146804140Y-127710000I-476560J0D01*
G01*
X146565860Y-127710000D01*
G75*
G02*
X146089300Y-127233440I0J476560D01*
G01*
G37*
G36*
G01*
X144819300Y-127233440D02*
X144819300Y-124988560D01*
G75*
G02*
X145295860Y-124512000I476560J0D01*
G01*
X145534140Y-124512000D01*
G75*
G02*
X146010700Y-124988560I0J-476560D01*
G01*
X146010700Y-127233440D01*
G75*
G02*
X145534140Y-127710000I-476560J0D01*
G01*
X145295860Y-127710000D01*
G75*
G02*
X144819300Y-127233440I0J476560D01*
G01*
G37*
G36*
G01*
X143549300Y-127233440D02*
X143549300Y-124988560D01*
G75*
G02*
X144025860Y-124512000I476560J0D01*
G01*
X144264140Y-124512000D01*
G75*
G02*
X144740700Y-124988560I0J-476560D01*
G01*
X144740700Y-127233440D01*
G75*
G02*
X144264140Y-127710000I-476560J0D01*
G01*
X144025860Y-127710000D01*
G75*
G02*
X143549300Y-127233440I0J476560D01*
G01*
G37*
G36*
G01*
X142279300Y-127233440D02*
X142279300Y-124988560D01*
G75*
G02*
X142755860Y-124512000I476560J0D01*
G01*
X142994140Y-124512000D01*
G75*
G02*
X143470700Y-124988560I0J-476560D01*
G01*
X143470700Y-127233440D01*
G75*
G02*
X142994140Y-127710000I-476560J0D01*
G01*
X142755860Y-127710000D01*
G75*
G02*
X142279300Y-127233440I0J476560D01*
G01*
G37*
G36*
G01*
X141009300Y-127233440D02*
X141009300Y-124988560D01*
G75*
G02*
X141485860Y-124512000I476560J0D01*
G01*
X141724140Y-124512000D01*
G75*
G02*
X142200700Y-124988560I0J-476560D01*
G01*
X142200700Y-127233440D01*
G75*
G02*
X141724140Y-127710000I-476560J0D01*
G01*
X141485860Y-127710000D01*
G75*
G02*
X141009300Y-127233440I0J476560D01*
G01*
G37*
G36*
G01*
X139739300Y-127233440D02*
X139739300Y-124988560D01*
G75*
G02*
X140215860Y-124512000I476560J0D01*
G01*
X140454140Y-124512000D01*
G75*
G02*
X140930700Y-124988560I0J-476560D01*
G01*
X140930700Y-127233440D01*
G75*
G02*
X140454140Y-127710000I-476560J0D01*
G01*
X140215860Y-127710000D01*
G75*
G02*
X139739300Y-127233440I0J476560D01*
G01*
G37*
G36*
G01*
X138469300Y-127233440D02*
X138469300Y-124988560D01*
G75*
G02*
X138945860Y-124512000I476560J0D01*
G01*
X139184140Y-124512000D01*
G75*
G02*
X139660700Y-124988560I0J-476560D01*
G01*
X139660700Y-127233440D01*
G75*
G02*
X139184140Y-127710000I-476560J0D01*
G01*
X138945860Y-127710000D01*
G75*
G02*
X138469300Y-127233440I0J476560D01*
G01*
G37*
G36*
G01*
X137199300Y-127233440D02*
X137199300Y-124988560D01*
G75*
G02*
X137675860Y-124512000I476560J0D01*
G01*
X137914140Y-124512000D01*
G75*
G02*
X138390700Y-124988560I0J-476560D01*
G01*
X138390700Y-127233440D01*
G75*
G02*
X137914140Y-127710000I-476560J0D01*
G01*
X137675860Y-127710000D01*
G75*
G02*
X137199300Y-127233440I0J476560D01*
G01*
G37*
G36*
G01*
X135929300Y-127233440D02*
X135929300Y-124988560D01*
G75*
G02*
X136405860Y-124512000I476560J0D01*
G01*
X136644140Y-124512000D01*
G75*
G02*
X137120700Y-124988560I0J-476560D01*
G01*
X137120700Y-127233440D01*
G75*
G02*
X136644140Y-127710000I-476560J0D01*
G01*
X136405860Y-127710000D01*
G75*
G02*
X135929300Y-127233440I0J476560D01*
G01*
G37*
G36*
G01*
X134659300Y-127233440D02*
X134659300Y-124988560D01*
G75*
G02*
X135135860Y-124512000I476560J0D01*
G01*
X135374140Y-124512000D01*
G75*
G02*
X135850700Y-124988560I0J-476560D01*
G01*
X135850700Y-127233440D01*
G75*
G02*
X135374140Y-127710000I-476560J0D01*
G01*
X135135860Y-127710000D01*
G75*
G02*
X134659300Y-127233440I0J476560D01*
G01*
G37*
G36*
G01*
X133389300Y-127233440D02*
X133389300Y-124988560D01*
G75*
G02*
X133865860Y-124512000I476560J0D01*
G01*
X134104140Y-124512000D01*
G75*
G02*
X134580700Y-124988560I0J-476560D01*
G01*
X134580700Y-127233440D01*
G75*
G02*
X134104140Y-127710000I-476560J0D01*
G01*
X133865860Y-127710000D01*
G75*
G02*
X133389300Y-127233440I0J476560D01*
G01*
G37*
G36*
G01*
X132119300Y-127233440D02*
X132119300Y-124988560D01*
G75*
G02*
X132595860Y-124512000I476560J0D01*
G01*
X132834140Y-124512000D01*
G75*
G02*
X133310700Y-124988560I0J-476560D01*
G01*
X133310700Y-127233440D01*
G75*
G02*
X132834140Y-127710000I-476560J0D01*
G01*
X132595860Y-127710000D01*
G75*
G02*
X132119300Y-127233440I0J476560D01*
G01*
G37*
G36*
G01*
X130849300Y-127233440D02*
X130849300Y-124988560D01*
G75*
G02*
X131325860Y-124512000I476560J0D01*
G01*
X131564140Y-124512000D01*
G75*
G02*
X132040700Y-124988560I0J-476560D01*
G01*
X132040700Y-127233440D01*
G75*
G02*
X131564140Y-127710000I-476560J0D01*
G01*
X131325860Y-127710000D01*
G75*
G02*
X130849300Y-127233440I0J476560D01*
G01*
G37*
G36*
G01*
X129579300Y-127233440D02*
X129579300Y-124988560D01*
G75*
G02*
X130055860Y-124512000I476560J0D01*
G01*
X130294140Y-124512000D01*
G75*
G02*
X130770700Y-124988560I0J-476560D01*
G01*
X130770700Y-127233440D01*
G75*
G02*
X130294140Y-127710000I-476560J0D01*
G01*
X130055860Y-127710000D01*
G75*
G02*
X129579300Y-127233440I0J476560D01*
G01*
G37*
G36*
G01*
X128309300Y-127233440D02*
X128309300Y-124988560D01*
G75*
G02*
X128785860Y-124512000I476560J0D01*
G01*
X129024140Y-124512000D01*
G75*
G02*
X129500700Y-124988560I0J-476560D01*
G01*
X129500700Y-127233440D01*
G75*
G02*
X129024140Y-127710000I-476560J0D01*
G01*
X128785860Y-127710000D01*
G75*
G02*
X128309300Y-127233440I0J476560D01*
G01*
G37*
G36*
G01*
X127039300Y-127233440D02*
X127039300Y-124988560D01*
G75*
G02*
X127515860Y-124512000I476560J0D01*
G01*
X127754140Y-124512000D01*
G75*
G02*
X128230700Y-124988560I0J-476560D01*
G01*
X128230700Y-127233440D01*
G75*
G02*
X127754140Y-127710000I-476560J0D01*
G01*
X127515860Y-127710000D01*
G75*
G02*
X127039300Y-127233440I0J476560D01*
G01*
G37*
G36*
G01*
X125769300Y-127233440D02*
X125769300Y-124988560D01*
G75*
G02*
X126245860Y-124512000I476560J0D01*
G01*
X126484140Y-124512000D01*
G75*
G02*
X126960700Y-124988560I0J-476560D01*
G01*
X126960700Y-127233440D01*
G75*
G02*
X126484140Y-127710000I-476560J0D01*
G01*
X126245860Y-127710000D01*
G75*
G02*
X125769300Y-127233440I0J476560D01*
G01*
G37*
G36*
G01*
X124499300Y-127233440D02*
X124499300Y-124988560D01*
G75*
G02*
X124975860Y-124512000I476560J0D01*
G01*
X125214140Y-124512000D01*
G75*
G02*
X125690700Y-124988560I0J-476560D01*
G01*
X125690700Y-127233440D01*
G75*
G02*
X125214140Y-127710000I-476560J0D01*
G01*
X124975860Y-127710000D01*
G75*
G02*
X124499300Y-127233440I0J476560D01*
G01*
G37*
G36*
G01*
X123229300Y-127233440D02*
X123229300Y-124988560D01*
G75*
G02*
X123705860Y-124512000I476560J0D01*
G01*
X123944140Y-124512000D01*
G75*
G02*
X124420700Y-124988560I0J-476560D01*
G01*
X124420700Y-127233440D01*
G75*
G02*
X123944140Y-127710000I-476560J0D01*
G01*
X123705860Y-127710000D01*
G75*
G02*
X123229300Y-127233440I0J476560D01*
G01*
G37*
G36*
G01*
X116879300Y-127233440D02*
X116879300Y-124988560D01*
G75*
G02*
X117355860Y-124512000I476560J0D01*
G01*
X117594140Y-124512000D01*
G75*
G02*
X118070700Y-124988560I0J-476560D01*
G01*
X118070700Y-127233440D01*
G75*
G02*
X117594140Y-127710000I-476560J0D01*
G01*
X117355860Y-127710000D01*
G75*
G02*
X116879300Y-127233440I0J476560D01*
G01*
G37*
G36*
G01*
X115609300Y-127233440D02*
X115609300Y-124988560D01*
G75*
G02*
X116085860Y-124512000I476560J0D01*
G01*
X116324140Y-124512000D01*
G75*
G02*
X116800700Y-124988560I0J-476560D01*
G01*
X116800700Y-127233440D01*
G75*
G02*
X116324140Y-127710000I-476560J0D01*
G01*
X116085860Y-127710000D01*
G75*
G02*
X115609300Y-127233440I0J476560D01*
G01*
G37*
G36*
G01*
X114339300Y-127233440D02*
X114339300Y-124988560D01*
G75*
G02*
X114815860Y-124512000I476560J0D01*
G01*
X115054140Y-124512000D01*
G75*
G02*
X115530700Y-124988560I0J-476560D01*
G01*
X115530700Y-127233440D01*
G75*
G02*
X115054140Y-127710000I-476560J0D01*
G01*
X114815860Y-127710000D01*
G75*
G02*
X114339300Y-127233440I0J476560D01*
G01*
G37*
G36*
G01*
X113069300Y-127233440D02*
X113069300Y-124988560D01*
G75*
G02*
X113545860Y-124512000I476560J0D01*
G01*
X113784140Y-124512000D01*
G75*
G02*
X114260700Y-124988560I0J-476560D01*
G01*
X114260700Y-127233440D01*
G75*
G02*
X113784140Y-127710000I-476560J0D01*
G01*
X113545860Y-127710000D01*
G75*
G02*
X113069300Y-127233440I0J476560D01*
G01*
G37*
G36*
G01*
X111799300Y-127233440D02*
X111799300Y-124988560D01*
G75*
G02*
X112275860Y-124512000I476560J0D01*
G01*
X112514140Y-124512000D01*
G75*
G02*
X112990700Y-124988560I0J-476560D01*
G01*
X112990700Y-127233440D01*
G75*
G02*
X112514140Y-127710000I-476560J0D01*
G01*
X112275860Y-127710000D01*
G75*
G02*
X111799300Y-127233440I0J476560D01*
G01*
G37*
G36*
G01*
X110529300Y-127233440D02*
X110529300Y-124988560D01*
G75*
G02*
X111005860Y-124512000I476560J0D01*
G01*
X111244140Y-124512000D01*
G75*
G02*
X111720700Y-124988560I0J-476560D01*
G01*
X111720700Y-127233440D01*
G75*
G02*
X111244140Y-127710000I-476560J0D01*
G01*
X111005860Y-127710000D01*
G75*
G02*
X110529300Y-127233440I0J476560D01*
G01*
G37*
G36*
G01*
X109259300Y-127233440D02*
X109259300Y-124988560D01*
G75*
G02*
X109735860Y-124512000I476560J0D01*
G01*
X109974140Y-124512000D01*
G75*
G02*
X110450700Y-124988560I0J-476560D01*
G01*
X110450700Y-127233440D01*
G75*
G02*
X109974140Y-127710000I-476560J0D01*
G01*
X109735860Y-127710000D01*
G75*
G02*
X109259300Y-127233440I0J476560D01*
G01*
G37*
G36*
G01*
X107989300Y-127233440D02*
X107989300Y-124988560D01*
G75*
G02*
X108465860Y-124512000I476560J0D01*
G01*
X108704140Y-124512000D01*
G75*
G02*
X109180700Y-124988560I0J-476560D01*
G01*
X109180700Y-127233440D01*
G75*
G02*
X108704140Y-127710000I-476560J0D01*
G01*
X108465860Y-127710000D01*
G75*
G02*
X107989300Y-127233440I0J476560D01*
G01*
G37*
G36*
G01*
X106719300Y-127233440D02*
X106719300Y-124988560D01*
G75*
G02*
X107195860Y-124512000I476560J0D01*
G01*
X107434140Y-124512000D01*
G75*
G02*
X107910700Y-124988560I0J-476560D01*
G01*
X107910700Y-127233440D01*
G75*
G02*
X107434140Y-127710000I-476560J0D01*
G01*
X107195860Y-127710000D01*
G75*
G02*
X106719300Y-127233440I0J476560D01*
G01*
G37*
G36*
G01*
X105449300Y-127233440D02*
X105449300Y-124988560D01*
G75*
G02*
X105925860Y-124512000I476560J0D01*
G01*
X106164140Y-124512000D01*
G75*
G02*
X106640700Y-124988560I0J-476560D01*
G01*
X106640700Y-127233440D01*
G75*
G02*
X106164140Y-127710000I-476560J0D01*
G01*
X105925860Y-127710000D01*
G75*
G02*
X105449300Y-127233440I0J476560D01*
G01*
G37*
G36*
G01*
X104179300Y-127233440D02*
X104179300Y-124988560D01*
G75*
G02*
X104655860Y-124512000I476560J0D01*
G01*
X104894140Y-124512000D01*
G75*
G02*
X105370700Y-124988560I0J-476560D01*
G01*
X105370700Y-127233440D01*
G75*
G02*
X104894140Y-127710000I-476560J0D01*
G01*
X104655860Y-127710000D01*
G75*
G02*
X104179300Y-127233440I0J476560D01*
G01*
G37*
G36*
G01*
X102909300Y-127233440D02*
X102909300Y-124988560D01*
G75*
G02*
X103385860Y-124512000I476560J0D01*
G01*
X103624140Y-124512000D01*
G75*
G02*
X104100700Y-124988560I0J-476560D01*
G01*
X104100700Y-127233440D01*
G75*
G02*
X103624140Y-127710000I-476560J0D01*
G01*
X103385860Y-127710000D01*
G75*
G02*
X102909300Y-127233440I0J476560D01*
G01*
G37*
G36*
G01*
X101639300Y-127233440D02*
X101639300Y-124988560D01*
G75*
G02*
X102115860Y-124512000I476560J0D01*
G01*
X102354140Y-124512000D01*
G75*
G02*
X102830700Y-124988560I0J-476560D01*
G01*
X102830700Y-127233440D01*
G75*
G02*
X102354140Y-127710000I-476560J0D01*
G01*
X102115860Y-127710000D01*
G75*
G02*
X101639300Y-127233440I0J476560D01*
G01*
G37*
G36*
G01*
X100369300Y-127233440D02*
X100369300Y-124988560D01*
G75*
G02*
X100845860Y-124512000I476560J0D01*
G01*
X101084140Y-124512000D01*
G75*
G02*
X101560700Y-124988560I0J-476560D01*
G01*
X101560700Y-127233440D01*
G75*
G02*
X101084140Y-127710000I-476560J0D01*
G01*
X100845860Y-127710000D01*
G75*
G02*
X100369300Y-127233440I0J476560D01*
G01*
G37*
G36*
G01*
X99099300Y-127233440D02*
X99099300Y-124988560D01*
G75*
G02*
X99575860Y-124512000I476560J0D01*
G01*
X99814140Y-124512000D01*
G75*
G02*
X100290700Y-124988560I0J-476560D01*
G01*
X100290700Y-127233440D01*
G75*
G02*
X99814140Y-127710000I-476560J0D01*
G01*
X99575860Y-127710000D01*
G75*
G02*
X99099300Y-127233440I0J476560D01*
G01*
G37*
G36*
G01*
X97829300Y-127233440D02*
X97829300Y-124988560D01*
G75*
G02*
X98305860Y-124512000I476560J0D01*
G01*
X98544140Y-124512000D01*
G75*
G02*
X99020700Y-124988560I0J-476560D01*
G01*
X99020700Y-127233440D01*
G75*
G02*
X98544140Y-127710000I-476560J0D01*
G01*
X98305860Y-127710000D01*
G75*
G02*
X97829300Y-127233440I0J476560D01*
G01*
G37*
G36*
G01*
X96559300Y-127233440D02*
X96559300Y-124988560D01*
G75*
G02*
X97035860Y-124512000I476560J0D01*
G01*
X97274140Y-124512000D01*
G75*
G02*
X97750700Y-124988560I0J-476560D01*
G01*
X97750700Y-127233440D01*
G75*
G02*
X97274140Y-127710000I-476560J0D01*
G01*
X97035860Y-127710000D01*
G75*
G02*
X96559300Y-127233440I0J476560D01*
G01*
G37*
G36*
G01*
X95289300Y-127233440D02*
X95289300Y-124988560D01*
G75*
G02*
X95765860Y-124512000I476560J0D01*
G01*
X96004140Y-124512000D01*
G75*
G02*
X96480700Y-124988560I0J-476560D01*
G01*
X96480700Y-127233440D01*
G75*
G02*
X96004140Y-127710000I-476560J0D01*
G01*
X95765860Y-127710000D01*
G75*
G02*
X95289300Y-127233440I0J476560D01*
G01*
G37*
G36*
G01*
X94019300Y-127233440D02*
X94019300Y-124988560D01*
G75*
G02*
X94495860Y-124512000I476560J0D01*
G01*
X94734140Y-124512000D01*
G75*
G02*
X95210700Y-124988560I0J-476560D01*
G01*
X95210700Y-127233440D01*
G75*
G02*
X94734140Y-127710000I-476560J0D01*
G01*
X94495860Y-127710000D01*
G75*
G02*
X94019300Y-127233440I0J476560D01*
G01*
G37*
G36*
G01*
X92749300Y-127233440D02*
X92749300Y-124988560D01*
G75*
G02*
X93225860Y-124512000I476560J0D01*
G01*
X93464140Y-124512000D01*
G75*
G02*
X93940700Y-124988560I0J-476560D01*
G01*
X93940700Y-127233440D01*
G75*
G02*
X93464140Y-127710000I-476560J0D01*
G01*
X93225860Y-127710000D01*
G75*
G02*
X92749300Y-127233440I0J476560D01*
G01*
G37*
G36*
G01*
X91479300Y-127233440D02*
X91479300Y-124988560D01*
G75*
G02*
X91955860Y-124512000I476560J0D01*
G01*
X92194140Y-124512000D01*
G75*
G02*
X92670700Y-124988560I0J-476560D01*
G01*
X92670700Y-127233440D01*
G75*
G02*
X92194140Y-127710000I-476560J0D01*
G01*
X91955860Y-127710000D01*
G75*
G02*
X91479300Y-127233440I0J476560D01*
G01*
G37*
G36*
G01*
X90209300Y-127233440D02*
X90209300Y-124988560D01*
G75*
G02*
X90685860Y-124512000I476560J0D01*
G01*
X90924140Y-124512000D01*
G75*
G02*
X91400700Y-124988560I0J-476560D01*
G01*
X91400700Y-127233440D01*
G75*
G02*
X90924140Y-127710000I-476560J0D01*
G01*
X90685860Y-127710000D01*
G75*
G02*
X90209300Y-127233440I0J476560D01*
G01*
G37*
G36*
G01*
X88939300Y-127233440D02*
X88939300Y-124988560D01*
G75*
G02*
X89415860Y-124512000I476560J0D01*
G01*
X89654140Y-124512000D01*
G75*
G02*
X90130700Y-124988560I0J-476560D01*
G01*
X90130700Y-127233440D01*
G75*
G02*
X89654140Y-127710000I-476560J0D01*
G01*
X89415860Y-127710000D01*
G75*
G02*
X88939300Y-127233440I0J476560D01*
G01*
G37*
G36*
G01*
X87669300Y-127233440D02*
X87669300Y-124988560D01*
G75*
G02*
X88145860Y-124512000I476560J0D01*
G01*
X88384140Y-124512000D01*
G75*
G02*
X88860700Y-124988560I0J-476560D01*
G01*
X88860700Y-127233440D01*
G75*
G02*
X88384140Y-127710000I-476560J0D01*
G01*
X88145860Y-127710000D01*
G75*
G02*
X87669300Y-127233440I0J476560D01*
G01*
G37*
G36*
G01*
X86399300Y-127233440D02*
X86399300Y-124988560D01*
G75*
G02*
X86875860Y-124512000I476560J0D01*
G01*
X87114140Y-124512000D01*
G75*
G02*
X87590700Y-124988560I0J-476560D01*
G01*
X87590700Y-127233440D01*
G75*
G02*
X87114140Y-127710000I-476560J0D01*
G01*
X86875860Y-127710000D01*
G75*
G02*
X86399300Y-127233440I0J476560D01*
G01*
G37*
G36*
G01*
X85129300Y-127233440D02*
X85129300Y-124988560D01*
G75*
G02*
X85605860Y-124512000I476560J0D01*
G01*
X85844140Y-124512000D01*
G75*
G02*
X86320700Y-124988560I0J-476560D01*
G01*
X86320700Y-127233440D01*
G75*
G02*
X85844140Y-127710000I-476560J0D01*
G01*
X85605860Y-127710000D01*
G75*
G02*
X85129300Y-127233440I0J476560D01*
G01*
G37*
G36*
G01*
X83859300Y-127233440D02*
X83859300Y-124988560D01*
G75*
G02*
X84335860Y-124512000I476560J0D01*
G01*
X84574140Y-124512000D01*
G75*
G02*
X85050700Y-124988560I0J-476560D01*
G01*
X85050700Y-127233440D01*
G75*
G02*
X84574140Y-127710000I-476560J0D01*
G01*
X84335860Y-127710000D01*
G75*
G02*
X83859300Y-127233440I0J476560D01*
G01*
G37*
G36*
G01*
X82589300Y-127233440D02*
X82589300Y-124988560D01*
G75*
G02*
X83065860Y-124512000I476560J0D01*
G01*
X83304140Y-124512000D01*
G75*
G02*
X83780700Y-124988560I0J-476560D01*
G01*
X83780700Y-127233440D01*
G75*
G02*
X83304140Y-127710000I-476560J0D01*
G01*
X83065860Y-127710000D01*
G75*
G02*
X82589300Y-127233440I0J476560D01*
G01*
G37*
G36*
G01*
X81319300Y-127233440D02*
X81319300Y-124988560D01*
G75*
G02*
X81795860Y-124512000I476560J0D01*
G01*
X82034140Y-124512000D01*
G75*
G02*
X82510700Y-124988560I0J-476560D01*
G01*
X82510700Y-127233440D01*
G75*
G02*
X82034140Y-127710000I-476560J0D01*
G01*
X81795860Y-127710000D01*
G75*
G02*
X81319300Y-127233440I0J476560D01*
G01*
G37*
G36*
G01*
X80049300Y-127233440D02*
X80049300Y-124988560D01*
G75*
G02*
X80525860Y-124512000I476560J0D01*
G01*
X80764140Y-124512000D01*
G75*
G02*
X81240700Y-124988560I0J-476560D01*
G01*
X81240700Y-127233440D01*
G75*
G02*
X80764140Y-127710000I-476560J0D01*
G01*
X80525860Y-127710000D01*
G75*
G02*
X80049300Y-127233440I0J476560D01*
G01*
G37*
G36*
G01*
X78779300Y-127233440D02*
X78779300Y-124988560D01*
G75*
G02*
X79255860Y-124512000I476560J0D01*
G01*
X79494140Y-124512000D01*
G75*
G02*
X79970700Y-124988560I0J-476560D01*
G01*
X79970700Y-127233440D01*
G75*
G02*
X79494140Y-127710000I-476560J0D01*
G01*
X79255860Y-127710000D01*
G75*
G02*
X78779300Y-127233440I0J476560D01*
G01*
G37*
G36*
G01*
X77509300Y-127233440D02*
X77509300Y-124988560D01*
G75*
G02*
X77985860Y-124512000I476560J0D01*
G01*
X78224140Y-124512000D01*
G75*
G02*
X78700700Y-124988560I0J-476560D01*
G01*
X78700700Y-127233440D01*
G75*
G02*
X78224140Y-127710000I-476560J0D01*
G01*
X77985860Y-127710000D01*
G75*
G02*
X77509300Y-127233440I0J476560D01*
G01*
G37*
G36*
G01*
X163737500Y-120125000D02*
X164662500Y-120125000D01*
G75*
G02*
X164950000Y-120412500I0J-287500D01*
G01*
X164950000Y-120987500D01*
G75*
G02*
X164662500Y-121275000I-287500J0D01*
G01*
X163737500Y-121275000D01*
G75*
G02*
X163450000Y-120987500I0J287500D01*
G01*
X163450000Y-120412500D01*
G75*
G02*
X163737500Y-120125000I287500J0D01*
G01*
G37*
G36*
G01*
X163737500Y-121825000D02*
X164662500Y-121825000D01*
G75*
G02*
X164950000Y-122112500I0J-287500D01*
G01*
X164950000Y-122687500D01*
G75*
G02*
X164662500Y-122975000I-287500J0D01*
G01*
X163737500Y-122975000D01*
G75*
G02*
X163450000Y-122687500I0J287500D01*
G01*
X163450000Y-122112500D01*
G75*
G02*
X163737500Y-121825000I287500J0D01*
G01*
G37*
G36*
G01*
X85625000Y-123312500D02*
X85625000Y-122387500D01*
G75*
G02*
X85912500Y-122100000I287500J0D01*
G01*
X86487500Y-122100000D01*
G75*
G02*
X86775000Y-122387500I0J-287500D01*
G01*
X86775000Y-123312500D01*
G75*
G02*
X86487500Y-123600000I-287500J0D01*
G01*
X85912500Y-123600000D01*
G75*
G02*
X85625000Y-123312500I0J287500D01*
G01*
G37*
G36*
G01*
X87325000Y-123312500D02*
X87325000Y-122387500D01*
G75*
G02*
X87612500Y-122100000I287500J0D01*
G01*
X88187500Y-122100000D01*
G75*
G02*
X88475000Y-122387500I0J-287500D01*
G01*
X88475000Y-123312500D01*
G75*
G02*
X88187500Y-123600000I-287500J0D01*
G01*
X87612500Y-123600000D01*
G75*
G02*
X87325000Y-123312500I0J287500D01*
G01*
G37*
G36*
G01*
X167725000Y-120075000D02*
X168175000Y-120075000D01*
G75*
G02*
X168400000Y-120300000I0J-225000D01*
G01*
X168400000Y-121300000D01*
G75*
G02*
X168175000Y-121525000I-225000J0D01*
G01*
X167725000Y-121525000D01*
G75*
G02*
X167500000Y-121300000I0J225000D01*
G01*
X167500000Y-120300000D01*
G75*
G02*
X167725000Y-120075000I225000J0D01*
G01*
G37*
G36*
G01*
X165825000Y-120075000D02*
X166275000Y-120075000D01*
G75*
G02*
X166500000Y-120300000I0J-225000D01*
G01*
X166500000Y-121300000D01*
G75*
G02*
X166275000Y-121525000I-225000J0D01*
G01*
X165825000Y-121525000D01*
G75*
G02*
X165600000Y-121300000I0J225000D01*
G01*
X165600000Y-120300000D01*
G75*
G02*
X165825000Y-120075000I225000J0D01*
G01*
G37*
G36*
G01*
X166775000Y-122175000D02*
X167225000Y-122175000D01*
G75*
G02*
X167450000Y-122400000I0J-225000D01*
G01*
X167450000Y-123400000D01*
G75*
G02*
X167225000Y-123625000I-225000J0D01*
G01*
X166775000Y-123625000D01*
G75*
G02*
X166550000Y-123400000I0J225000D01*
G01*
X166550000Y-122400000D01*
G75*
G02*
X166775000Y-122175000I225000J0D01*
G01*
G37*
G36*
G01*
X124000000Y-110217000D02*
X123650000Y-110217000D01*
G75*
G02*
X123475000Y-110042000I0J175000D01*
G01*
X123475000Y-108242000D01*
G75*
G02*
X123650000Y-108067000I175000J0D01*
G01*
X124000000Y-108067000D01*
G75*
G02*
X124175000Y-108242000I0J-175000D01*
G01*
X124175000Y-110042000D01*
G75*
G02*
X124000000Y-110217000I-175000J0D01*
G01*
G37*
G36*
G01*
X125270000Y-110217000D02*
X124920000Y-110217000D01*
G75*
G02*
X124745000Y-110042000I0J175000D01*
G01*
X124745000Y-108242000D01*
G75*
G02*
X124920000Y-108067000I175000J0D01*
G01*
X125270000Y-108067000D01*
G75*
G02*
X125445000Y-108242000I0J-175000D01*
G01*
X125445000Y-110042000D01*
G75*
G02*
X125270000Y-110217000I-175000J0D01*
G01*
G37*
G36*
G01*
X126540000Y-110217000D02*
X126190000Y-110217000D01*
G75*
G02*
X126015000Y-110042000I0J175000D01*
G01*
X126015000Y-108242000D01*
G75*
G02*
X126190000Y-108067000I175000J0D01*
G01*
X126540000Y-108067000D01*
G75*
G02*
X126715000Y-108242000I0J-175000D01*
G01*
X126715000Y-110042000D01*
G75*
G02*
X126540000Y-110217000I-175000J0D01*
G01*
G37*
G36*
G01*
X127810000Y-110217000D02*
X127460000Y-110217000D01*
G75*
G02*
X127285000Y-110042000I0J175000D01*
G01*
X127285000Y-108242000D01*
G75*
G02*
X127460000Y-108067000I175000J0D01*
G01*
X127810000Y-108067000D01*
G75*
G02*
X127985000Y-108242000I0J-175000D01*
G01*
X127985000Y-110042000D01*
G75*
G02*
X127810000Y-110217000I-175000J0D01*
G01*
G37*
G36*
G01*
X129080000Y-110217000D02*
X128730000Y-110217000D01*
G75*
G02*
X128555000Y-110042000I0J175000D01*
G01*
X128555000Y-108242000D01*
G75*
G02*
X128730000Y-108067000I175000J0D01*
G01*
X129080000Y-108067000D01*
G75*
G02*
X129255000Y-108242000I0J-175000D01*
G01*
X129255000Y-110042000D01*
G75*
G02*
X129080000Y-110217000I-175000J0D01*
G01*
G37*
G36*
G01*
X130350000Y-110217000D02*
X130000000Y-110217000D01*
G75*
G02*
X129825000Y-110042000I0J175000D01*
G01*
X129825000Y-108242000D01*
G75*
G02*
X130000000Y-108067000I175000J0D01*
G01*
X130350000Y-108067000D01*
G75*
G02*
X130525000Y-108242000I0J-175000D01*
G01*
X130525000Y-110042000D01*
G75*
G02*
X130350000Y-110217000I-175000J0D01*
G01*
G37*
G36*
G01*
X131620000Y-110217000D02*
X131270000Y-110217000D01*
G75*
G02*
X131095000Y-110042000I0J175000D01*
G01*
X131095000Y-108242000D01*
G75*
G02*
X131270000Y-108067000I175000J0D01*
G01*
X131620000Y-108067000D01*
G75*
G02*
X131795000Y-108242000I0J-175000D01*
G01*
X131795000Y-110042000D01*
G75*
G02*
X131620000Y-110217000I-175000J0D01*
G01*
G37*
G36*
G01*
X132890000Y-110217000D02*
X132540000Y-110217000D01*
G75*
G02*
X132365000Y-110042000I0J175000D01*
G01*
X132365000Y-108242000D01*
G75*
G02*
X132540000Y-108067000I175000J0D01*
G01*
X132890000Y-108067000D01*
G75*
G02*
X133065000Y-108242000I0J-175000D01*
G01*
X133065000Y-110042000D01*
G75*
G02*
X132890000Y-110217000I-175000J0D01*
G01*
G37*
G36*
G01*
X134160000Y-110217000D02*
X133810000Y-110217000D01*
G75*
G02*
X133635000Y-110042000I0J175000D01*
G01*
X133635000Y-108242000D01*
G75*
G02*
X133810000Y-108067000I175000J0D01*
G01*
X134160000Y-108067000D01*
G75*
G02*
X134335000Y-108242000I0J-175000D01*
G01*
X134335000Y-110042000D01*
G75*
G02*
X134160000Y-110217000I-175000J0D01*
G01*
G37*
G36*
G01*
X135430000Y-110217000D02*
X135080000Y-110217000D01*
G75*
G02*
X134905000Y-110042000I0J175000D01*
G01*
X134905000Y-108242000D01*
G75*
G02*
X135080000Y-108067000I175000J0D01*
G01*
X135430000Y-108067000D01*
G75*
G02*
X135605000Y-108242000I0J-175000D01*
G01*
X135605000Y-110042000D01*
G75*
G02*
X135430000Y-110217000I-175000J0D01*
G01*
G37*
G36*
G01*
X135430000Y-119517000D02*
X135080000Y-119517000D01*
G75*
G02*
X134905000Y-119342000I0J175000D01*
G01*
X134905000Y-117542000D01*
G75*
G02*
X135080000Y-117367000I175000J0D01*
G01*
X135430000Y-117367000D01*
G75*
G02*
X135605000Y-117542000I0J-175000D01*
G01*
X135605000Y-119342000D01*
G75*
G02*
X135430000Y-119517000I-175000J0D01*
G01*
G37*
G36*
G01*
X134160000Y-119517000D02*
X133810000Y-119517000D01*
G75*
G02*
X133635000Y-119342000I0J175000D01*
G01*
X133635000Y-117542000D01*
G75*
G02*
X133810000Y-117367000I175000J0D01*
G01*
X134160000Y-117367000D01*
G75*
G02*
X134335000Y-117542000I0J-175000D01*
G01*
X134335000Y-119342000D01*
G75*
G02*
X134160000Y-119517000I-175000J0D01*
G01*
G37*
G36*
G01*
X132890000Y-119517000D02*
X132540000Y-119517000D01*
G75*
G02*
X132365000Y-119342000I0J175000D01*
G01*
X132365000Y-117542000D01*
G75*
G02*
X132540000Y-117367000I175000J0D01*
G01*
X132890000Y-117367000D01*
G75*
G02*
X133065000Y-117542000I0J-175000D01*
G01*
X133065000Y-119342000D01*
G75*
G02*
X132890000Y-119517000I-175000J0D01*
G01*
G37*
G36*
G01*
X131620000Y-119517000D02*
X131270000Y-119517000D01*
G75*
G02*
X131095000Y-119342000I0J175000D01*
G01*
X131095000Y-117542000D01*
G75*
G02*
X131270000Y-117367000I175000J0D01*
G01*
X131620000Y-117367000D01*
G75*
G02*
X131795000Y-117542000I0J-175000D01*
G01*
X131795000Y-119342000D01*
G75*
G02*
X131620000Y-119517000I-175000J0D01*
G01*
G37*
G36*
G01*
X130350000Y-119517000D02*
X130000000Y-119517000D01*
G75*
G02*
X129825000Y-119342000I0J175000D01*
G01*
X129825000Y-117542000D01*
G75*
G02*
X130000000Y-117367000I175000J0D01*
G01*
X130350000Y-117367000D01*
G75*
G02*
X130525000Y-117542000I0J-175000D01*
G01*
X130525000Y-119342000D01*
G75*
G02*
X130350000Y-119517000I-175000J0D01*
G01*
G37*
G36*
G01*
X129080000Y-119517000D02*
X128730000Y-119517000D01*
G75*
G02*
X128555000Y-119342000I0J175000D01*
G01*
X128555000Y-117542000D01*
G75*
G02*
X128730000Y-117367000I175000J0D01*
G01*
X129080000Y-117367000D01*
G75*
G02*
X129255000Y-117542000I0J-175000D01*
G01*
X129255000Y-119342000D01*
G75*
G02*
X129080000Y-119517000I-175000J0D01*
G01*
G37*
G36*
G01*
X127810000Y-119517000D02*
X127460000Y-119517000D01*
G75*
G02*
X127285000Y-119342000I0J175000D01*
G01*
X127285000Y-117542000D01*
G75*
G02*
X127460000Y-117367000I175000J0D01*
G01*
X127810000Y-117367000D01*
G75*
G02*
X127985000Y-117542000I0J-175000D01*
G01*
X127985000Y-119342000D01*
G75*
G02*
X127810000Y-119517000I-175000J0D01*
G01*
G37*
G36*
G01*
X126540000Y-119517000D02*
X126190000Y-119517000D01*
G75*
G02*
X126015000Y-119342000I0J175000D01*
G01*
X126015000Y-117542000D01*
G75*
G02*
X126190000Y-117367000I175000J0D01*
G01*
X126540000Y-117367000D01*
G75*
G02*
X126715000Y-117542000I0J-175000D01*
G01*
X126715000Y-119342000D01*
G75*
G02*
X126540000Y-119517000I-175000J0D01*
G01*
G37*
G36*
G01*
X125270000Y-119517000D02*
X124920000Y-119517000D01*
G75*
G02*
X124745000Y-119342000I0J175000D01*
G01*
X124745000Y-117542000D01*
G75*
G02*
X124920000Y-117367000I175000J0D01*
G01*
X125270000Y-117367000D01*
G75*
G02*
X125445000Y-117542000I0J-175000D01*
G01*
X125445000Y-119342000D01*
G75*
G02*
X125270000Y-119517000I-175000J0D01*
G01*
G37*
G36*
G01*
X124000000Y-119517000D02*
X123650000Y-119517000D01*
G75*
G02*
X123475000Y-119342000I0J175000D01*
G01*
X123475000Y-117542000D01*
G75*
G02*
X123650000Y-117367000I175000J0D01*
G01*
X124000000Y-117367000D01*
G75*
G02*
X124175000Y-117542000I0J-175000D01*
G01*
X124175000Y-119342000D01*
G75*
G02*
X124000000Y-119517000I-175000J0D01*
G01*
G37*
G36*
G01*
X165175000Y-109662500D02*
X165175000Y-108737500D01*
G75*
G02*
X165462500Y-108450000I287500J0D01*
G01*
X166037500Y-108450000D01*
G75*
G02*
X166325000Y-108737500I0J-287500D01*
G01*
X166325000Y-109662500D01*
G75*
G02*
X166037500Y-109950000I-287500J0D01*
G01*
X165462500Y-109950000D01*
G75*
G02*
X165175000Y-109662500I0J287500D01*
G01*
G37*
G36*
G01*
X163475000Y-109662500D02*
X163475000Y-108737500D01*
G75*
G02*
X163762500Y-108450000I287500J0D01*
G01*
X164337500Y-108450000D01*
G75*
G02*
X164625000Y-108737500I0J-287500D01*
G01*
X164625000Y-109662500D01*
G75*
G02*
X164337500Y-109950000I-287500J0D01*
G01*
X163762500Y-109950000D01*
G75*
G02*
X163475000Y-109662500I0J287500D01*
G01*
G37*
G36*
G01*
X142624500Y-122092500D02*
X142624500Y-123017500D01*
G75*
G02*
X142337000Y-123305000I-287500J0D01*
G01*
X141762000Y-123305000D01*
G75*
G02*
X141474500Y-123017500I0J287500D01*
G01*
X141474500Y-122092500D01*
G75*
G02*
X141762000Y-121805000I287500J0D01*
G01*
X142337000Y-121805000D01*
G75*
G02*
X142624500Y-122092500I0J-287500D01*
G01*
G37*
G36*
G01*
X140924500Y-122092500D02*
X140924500Y-123017500D01*
G75*
G02*
X140637000Y-123305000I-287500J0D01*
G01*
X140062000Y-123305000D01*
G75*
G02*
X139774500Y-123017500I0J287500D01*
G01*
X139774500Y-122092500D01*
G75*
G02*
X140062000Y-121805000I287500J0D01*
G01*
X140637000Y-121805000D01*
G75*
G02*
X140924500Y-122092500I0J-287500D01*
G01*
G37*
D16*
X75946000Y-103886000D03*
G36*
G01*
X136751000Y-120083000D02*
X136751000Y-119058000D01*
G75*
G02*
X136988500Y-118820500I237500J0D01*
G01*
X137463500Y-118820500D01*
G75*
G02*
X137701000Y-119058000I0J-237500D01*
G01*
X137701000Y-120083000D01*
G75*
G02*
X137463500Y-120320500I-237500J0D01*
G01*
X136988500Y-120320500D01*
G75*
G02*
X136751000Y-120083000I0J237500D01*
G01*
G37*
G36*
G01*
X138651000Y-120083000D02*
X138651000Y-119058000D01*
G75*
G02*
X138888500Y-118820500I237500J0D01*
G01*
X139363500Y-118820500D01*
G75*
G02*
X139601000Y-119058000I0J-237500D01*
G01*
X139601000Y-120083000D01*
G75*
G02*
X139363500Y-120320500I-237500J0D01*
G01*
X138888500Y-120320500D01*
G75*
G02*
X138651000Y-120083000I0J237500D01*
G01*
G37*
G36*
G01*
X138651000Y-118051000D02*
X138651000Y-117026000D01*
G75*
G02*
X138888500Y-116788500I237500J0D01*
G01*
X139363500Y-116788500D01*
G75*
G02*
X139601000Y-117026000I0J-237500D01*
G01*
X139601000Y-118051000D01*
G75*
G02*
X139363500Y-118288500I-237500J0D01*
G01*
X138888500Y-118288500D01*
G75*
G02*
X138651000Y-118051000I0J237500D01*
G01*
G37*
G36*
G01*
X136751000Y-118051000D02*
X136751000Y-117026000D01*
G75*
G02*
X136988500Y-116788500I237500J0D01*
G01*
X137463500Y-116788500D01*
G75*
G02*
X137701000Y-117026000I0J-237500D01*
G01*
X137701000Y-118051000D01*
G75*
G02*
X137463500Y-118288500I-237500J0D01*
G01*
X136988500Y-118288500D01*
G75*
G02*
X136751000Y-118051000I0J237500D01*
G01*
G37*
G36*
G01*
X138651000Y-108272000D02*
X138651000Y-107247000D01*
G75*
G02*
X138888500Y-107009500I237500J0D01*
G01*
X139363500Y-107009500D01*
G75*
G02*
X139601000Y-107247000I0J-237500D01*
G01*
X139601000Y-108272000D01*
G75*
G02*
X139363500Y-108509500I-237500J0D01*
G01*
X138888500Y-108509500D01*
G75*
G02*
X138651000Y-108272000I0J237500D01*
G01*
G37*
G36*
G01*
X136751000Y-108272000D02*
X136751000Y-107247000D01*
G75*
G02*
X136988500Y-107009500I237500J0D01*
G01*
X137463500Y-107009500D01*
G75*
G02*
X137701000Y-107247000I0J-237500D01*
G01*
X137701000Y-108272000D01*
G75*
G02*
X137463500Y-108509500I-237500J0D01*
G01*
X136988500Y-108509500D01*
G75*
G02*
X136751000Y-108272000I0J237500D01*
G01*
G37*
G36*
G01*
X136751000Y-110304000D02*
X136751000Y-109279000D01*
G75*
G02*
X136988500Y-109041500I237500J0D01*
G01*
X137463500Y-109041500D01*
G75*
G02*
X137701000Y-109279000I0J-237500D01*
G01*
X137701000Y-110304000D01*
G75*
G02*
X137463500Y-110541500I-237500J0D01*
G01*
X136988500Y-110541500D01*
G75*
G02*
X136751000Y-110304000I0J237500D01*
G01*
G37*
G36*
G01*
X138651000Y-110304000D02*
X138651000Y-109279000D01*
G75*
G02*
X138888500Y-109041500I237500J0D01*
G01*
X139363500Y-109041500D01*
G75*
G02*
X139601000Y-109279000I0J-237500D01*
G01*
X139601000Y-110304000D01*
G75*
G02*
X139363500Y-110541500I-237500J0D01*
G01*
X138888500Y-110541500D01*
G75*
G02*
X138651000Y-110304000I0J237500D01*
G01*
G37*
G36*
G01*
X95471000Y-110685000D02*
X95471000Y-109660000D01*
G75*
G02*
X95708500Y-109422500I237500J0D01*
G01*
X96183500Y-109422500D01*
G75*
G02*
X96421000Y-109660000I0J-237500D01*
G01*
X96421000Y-110685000D01*
G75*
G02*
X96183500Y-110922500I-237500J0D01*
G01*
X95708500Y-110922500D01*
G75*
G02*
X95471000Y-110685000I0J237500D01*
G01*
G37*
G36*
G01*
X93571000Y-110685000D02*
X93571000Y-109660000D01*
G75*
G02*
X93808500Y-109422500I237500J0D01*
G01*
X94283500Y-109422500D01*
G75*
G02*
X94521000Y-109660000I0J-237500D01*
G01*
X94521000Y-110685000D01*
G75*
G02*
X94283500Y-110922500I-237500J0D01*
G01*
X93808500Y-110922500D01*
G75*
G02*
X93571000Y-110685000I0J237500D01*
G01*
G37*
G36*
G01*
X95471000Y-114749000D02*
X95471000Y-113724000D01*
G75*
G02*
X95708500Y-113486500I237500J0D01*
G01*
X96183500Y-113486500D01*
G75*
G02*
X96421000Y-113724000I0J-237500D01*
G01*
X96421000Y-114749000D01*
G75*
G02*
X96183500Y-114986500I-237500J0D01*
G01*
X95708500Y-114986500D01*
G75*
G02*
X95471000Y-114749000I0J237500D01*
G01*
G37*
G36*
G01*
X93571000Y-114749000D02*
X93571000Y-113724000D01*
G75*
G02*
X93808500Y-113486500I237500J0D01*
G01*
X94283500Y-113486500D01*
G75*
G02*
X94521000Y-113724000I0J-237500D01*
G01*
X94521000Y-114749000D01*
G75*
G02*
X94283500Y-114986500I-237500J0D01*
G01*
X93808500Y-114986500D01*
G75*
G02*
X93571000Y-114749000I0J237500D01*
G01*
G37*
G36*
G01*
X93571000Y-116781000D02*
X93571000Y-115756000D01*
G75*
G02*
X93808500Y-115518500I237500J0D01*
G01*
X94283500Y-115518500D01*
G75*
G02*
X94521000Y-115756000I0J-237500D01*
G01*
X94521000Y-116781000D01*
G75*
G02*
X94283500Y-117018500I-237500J0D01*
G01*
X93808500Y-117018500D01*
G75*
G02*
X93571000Y-116781000I0J237500D01*
G01*
G37*
G36*
G01*
X95471000Y-116781000D02*
X95471000Y-115756000D01*
G75*
G02*
X95708500Y-115518500I237500J0D01*
G01*
X96183500Y-115518500D01*
G75*
G02*
X96421000Y-115756000I0J-237500D01*
G01*
X96421000Y-116781000D01*
G75*
G02*
X96183500Y-117018500I-237500J0D01*
G01*
X95708500Y-117018500D01*
G75*
G02*
X95471000Y-116781000I0J237500D01*
G01*
G37*
G36*
G01*
X95471000Y-112717000D02*
X95471000Y-111692000D01*
G75*
G02*
X95708500Y-111454500I237500J0D01*
G01*
X96183500Y-111454500D01*
G75*
G02*
X96421000Y-111692000I0J-237500D01*
G01*
X96421000Y-112717000D01*
G75*
G02*
X96183500Y-112954500I-237500J0D01*
G01*
X95708500Y-112954500D01*
G75*
G02*
X95471000Y-112717000I0J237500D01*
G01*
G37*
G36*
G01*
X93571000Y-112717000D02*
X93571000Y-111692000D01*
G75*
G02*
X93808500Y-111454500I237500J0D01*
G01*
X94283500Y-111454500D01*
G75*
G02*
X94521000Y-111692000I0J-237500D01*
G01*
X94521000Y-112717000D01*
G75*
G02*
X94283500Y-112954500I-237500J0D01*
G01*
X93808500Y-112954500D01*
G75*
G02*
X93571000Y-112717000I0J237500D01*
G01*
G37*
X75438000Y-123444000D03*
X165354000Y-125984000D03*
X165354000Y-103886000D03*
D15*
X75438000Y-125984000D03*
X167894000Y-125984000D03*
X167894000Y-103886000D03*
G36*
G01*
X165210000Y-111770000D02*
X165210000Y-111530000D01*
G75*
G02*
X165330000Y-111410000I120000J0D01*
G01*
X166170000Y-111410000D01*
G75*
G02*
X166290000Y-111530000I0J-120000D01*
G01*
X166290000Y-111770000D01*
G75*
G02*
X166170000Y-111890000I-120000J0D01*
G01*
X165330000Y-111890000D01*
G75*
G02*
X165210000Y-111770000I0J120000D01*
G01*
G37*
G36*
G01*
X165210000Y-113070000D02*
X165210000Y-112830000D01*
G75*
G02*
X165330000Y-112710000I120000J0D01*
G01*
X166170000Y-112710000D01*
G75*
G02*
X166290000Y-112830000I0J-120000D01*
G01*
X166290000Y-113070000D01*
G75*
G02*
X166170000Y-113190000I-120000J0D01*
G01*
X165330000Y-113190000D01*
G75*
G02*
X165210000Y-113070000I0J120000D01*
G01*
G37*
G36*
G01*
X163510000Y-112420000D02*
X163510000Y-112180000D01*
G75*
G02*
X163630000Y-112060000I120000J0D01*
G01*
X164470000Y-112060000D01*
G75*
G02*
X164590000Y-112180000I0J-120000D01*
G01*
X164590000Y-112420000D01*
G75*
G02*
X164470000Y-112540000I-120000J0D01*
G01*
X163630000Y-112540000D01*
G75*
G02*
X163510000Y-112420000I0J120000D01*
G01*
G37*
G36*
G01*
X163510000Y-111770000D02*
X163510000Y-111530000D01*
G75*
G02*
X163630000Y-111410000I120000J0D01*
G01*
X164470000Y-111410000D01*
G75*
G02*
X164590000Y-111530000I0J-120000D01*
G01*
X164590000Y-111770000D01*
G75*
G02*
X164470000Y-111890000I-120000J0D01*
G01*
X163630000Y-111890000D01*
G75*
G02*
X163510000Y-111770000I0J120000D01*
G01*
G37*
G36*
G01*
X163510000Y-113070000D02*
X163510000Y-112830000D01*
G75*
G02*
X163630000Y-112710000I120000J0D01*
G01*
X164470000Y-112710000D01*
G75*
G02*
X164590000Y-112830000I0J-120000D01*
G01*
X164590000Y-113070000D01*
G75*
G02*
X164470000Y-113190000I-120000J0D01*
G01*
X163630000Y-113190000D01*
G75*
G02*
X163510000Y-113070000I0J120000D01*
G01*
G37*
G36*
G01*
X82540000Y-120880000D02*
X82540000Y-121120000D01*
G75*
G02*
X82420000Y-121240000I-120000J0D01*
G01*
X81580000Y-121240000D01*
G75*
G02*
X81460000Y-121120000I0J120000D01*
G01*
X81460000Y-120880000D01*
G75*
G02*
X81580000Y-120760000I120000J0D01*
G01*
X82420000Y-120760000D01*
G75*
G02*
X82540000Y-120880000I0J-120000D01*
G01*
G37*
G36*
G01*
X82540000Y-122180000D02*
X82540000Y-122420000D01*
G75*
G02*
X82420000Y-122540000I-120000J0D01*
G01*
X81580000Y-122540000D01*
G75*
G02*
X81460000Y-122420000I0J120000D01*
G01*
X81460000Y-122180000D01*
G75*
G02*
X81580000Y-122060000I120000J0D01*
G01*
X82420000Y-122060000D01*
G75*
G02*
X82540000Y-122180000I0J-120000D01*
G01*
G37*
G36*
G01*
X82540000Y-121530000D02*
X82540000Y-121770000D01*
G75*
G02*
X82420000Y-121890000I-120000J0D01*
G01*
X81580000Y-121890000D01*
G75*
G02*
X81460000Y-121770000I0J120000D01*
G01*
X81460000Y-121530000D01*
G75*
G02*
X81580000Y-121410000I120000J0D01*
G01*
X82420000Y-121410000D01*
G75*
G02*
X82540000Y-121530000I0J-120000D01*
G01*
G37*
G36*
G01*
X80840000Y-120880000D02*
X80840000Y-121120000D01*
G75*
G02*
X80720000Y-121240000I-120000J0D01*
G01*
X79880000Y-121240000D01*
G75*
G02*
X79760000Y-121120000I0J120000D01*
G01*
X79760000Y-120880000D01*
G75*
G02*
X79880000Y-120760000I120000J0D01*
G01*
X80720000Y-120760000D01*
G75*
G02*
X80840000Y-120880000I0J-120000D01*
G01*
G37*
G36*
G01*
X80840000Y-122180000D02*
X80840000Y-122420000D01*
G75*
G02*
X80720000Y-122540000I-120000J0D01*
G01*
X79880000Y-122540000D01*
G75*
G02*
X79760000Y-122420000I0J120000D01*
G01*
X79760000Y-122180000D01*
G75*
G02*
X79880000Y-122060000I120000J0D01*
G01*
X80720000Y-122060000D01*
G75*
G02*
X80840000Y-122180000I0J-120000D01*
G01*
G37*
G36*
G01*
X166290000Y-105980000D02*
X166290000Y-106220000D01*
G75*
G02*
X166170000Y-106340000I-120000J0D01*
G01*
X165330000Y-106340000D01*
G75*
G02*
X165210000Y-106220000I0J120000D01*
G01*
X165210000Y-105980000D01*
G75*
G02*
X165330000Y-105860000I120000J0D01*
G01*
X166170000Y-105860000D01*
G75*
G02*
X166290000Y-105980000I0J-120000D01*
G01*
G37*
G36*
G01*
X166290000Y-107280000D02*
X166290000Y-107520000D01*
G75*
G02*
X166170000Y-107640000I-120000J0D01*
G01*
X165330000Y-107640000D01*
G75*
G02*
X165210000Y-107520000I0J120000D01*
G01*
X165210000Y-107280000D01*
G75*
G02*
X165330000Y-107160000I120000J0D01*
G01*
X166170000Y-107160000D01*
G75*
G02*
X166290000Y-107280000I0J-120000D01*
G01*
G37*
G36*
G01*
X166290000Y-106630000D02*
X166290000Y-106870000D01*
G75*
G02*
X166170000Y-106990000I-120000J0D01*
G01*
X165330000Y-106990000D01*
G75*
G02*
X165210000Y-106870000I0J120000D01*
G01*
X165210000Y-106630000D01*
G75*
G02*
X165330000Y-106510000I120000J0D01*
G01*
X166170000Y-106510000D01*
G75*
G02*
X166290000Y-106630000I0J-120000D01*
G01*
G37*
G36*
G01*
X164590000Y-105980000D02*
X164590000Y-106220000D01*
G75*
G02*
X164470000Y-106340000I-120000J0D01*
G01*
X163630000Y-106340000D01*
G75*
G02*
X163510000Y-106220000I0J120000D01*
G01*
X163510000Y-105980000D01*
G75*
G02*
X163630000Y-105860000I120000J0D01*
G01*
X164470000Y-105860000D01*
G75*
G02*
X164590000Y-105980000I0J-120000D01*
G01*
G37*
G36*
G01*
X164590000Y-107280000D02*
X164590000Y-107520000D01*
G75*
G02*
X164470000Y-107640000I-120000J0D01*
G01*
X163630000Y-107640000D01*
G75*
G02*
X163510000Y-107520000I0J120000D01*
G01*
X163510000Y-107280000D01*
G75*
G02*
X163630000Y-107160000I120000J0D01*
G01*
X164470000Y-107160000D01*
G75*
G02*
X164590000Y-107280000I0J-120000D01*
G01*
G37*
G36*
G01*
X80820000Y-119517000D02*
X80470000Y-119517000D01*
G75*
G02*
X80295000Y-119342000I0J175000D01*
G01*
X80295000Y-117542000D01*
G75*
G02*
X80470000Y-117367000I175000J0D01*
G01*
X80820000Y-117367000D01*
G75*
G02*
X80995000Y-117542000I0J-175000D01*
G01*
X80995000Y-119342000D01*
G75*
G02*
X80820000Y-119517000I-175000J0D01*
G01*
G37*
G36*
G01*
X82090000Y-119517000D02*
X81740000Y-119517000D01*
G75*
G02*
X81565000Y-119342000I0J175000D01*
G01*
X81565000Y-117542000D01*
G75*
G02*
X81740000Y-117367000I175000J0D01*
G01*
X82090000Y-117367000D01*
G75*
G02*
X82265000Y-117542000I0J-175000D01*
G01*
X82265000Y-119342000D01*
G75*
G02*
X82090000Y-119517000I-175000J0D01*
G01*
G37*
G36*
G01*
X83360000Y-119517000D02*
X83010000Y-119517000D01*
G75*
G02*
X82835000Y-119342000I0J175000D01*
G01*
X82835000Y-117542000D01*
G75*
G02*
X83010000Y-117367000I175000J0D01*
G01*
X83360000Y-117367000D01*
G75*
G02*
X83535000Y-117542000I0J-175000D01*
G01*
X83535000Y-119342000D01*
G75*
G02*
X83360000Y-119517000I-175000J0D01*
G01*
G37*
G36*
G01*
X84630000Y-119517000D02*
X84280000Y-119517000D01*
G75*
G02*
X84105000Y-119342000I0J175000D01*
G01*
X84105000Y-117542000D01*
G75*
G02*
X84280000Y-117367000I175000J0D01*
G01*
X84630000Y-117367000D01*
G75*
G02*
X84805000Y-117542000I0J-175000D01*
G01*
X84805000Y-119342000D01*
G75*
G02*
X84630000Y-119517000I-175000J0D01*
G01*
G37*
G36*
G01*
X85900000Y-119517000D02*
X85550000Y-119517000D01*
G75*
G02*
X85375000Y-119342000I0J175000D01*
G01*
X85375000Y-117542000D01*
G75*
G02*
X85550000Y-117367000I175000J0D01*
G01*
X85900000Y-117367000D01*
G75*
G02*
X86075000Y-117542000I0J-175000D01*
G01*
X86075000Y-119342000D01*
G75*
G02*
X85900000Y-119517000I-175000J0D01*
G01*
G37*
G36*
G01*
X87170000Y-119517000D02*
X86820000Y-119517000D01*
G75*
G02*
X86645000Y-119342000I0J175000D01*
G01*
X86645000Y-117542000D01*
G75*
G02*
X86820000Y-117367000I175000J0D01*
G01*
X87170000Y-117367000D01*
G75*
G02*
X87345000Y-117542000I0J-175000D01*
G01*
X87345000Y-119342000D01*
G75*
G02*
X87170000Y-119517000I-175000J0D01*
G01*
G37*
G36*
G01*
X88440000Y-119517000D02*
X88090000Y-119517000D01*
G75*
G02*
X87915000Y-119342000I0J175000D01*
G01*
X87915000Y-117542000D01*
G75*
G02*
X88090000Y-117367000I175000J0D01*
G01*
X88440000Y-117367000D01*
G75*
G02*
X88615000Y-117542000I0J-175000D01*
G01*
X88615000Y-119342000D01*
G75*
G02*
X88440000Y-119517000I-175000J0D01*
G01*
G37*
G36*
G01*
X89710000Y-119517000D02*
X89360000Y-119517000D01*
G75*
G02*
X89185000Y-119342000I0J175000D01*
G01*
X89185000Y-117542000D01*
G75*
G02*
X89360000Y-117367000I175000J0D01*
G01*
X89710000Y-117367000D01*
G75*
G02*
X89885000Y-117542000I0J-175000D01*
G01*
X89885000Y-119342000D01*
G75*
G02*
X89710000Y-119517000I-175000J0D01*
G01*
G37*
G36*
G01*
X90980000Y-119517000D02*
X90630000Y-119517000D01*
G75*
G02*
X90455000Y-119342000I0J175000D01*
G01*
X90455000Y-117542000D01*
G75*
G02*
X90630000Y-117367000I175000J0D01*
G01*
X90980000Y-117367000D01*
G75*
G02*
X91155000Y-117542000I0J-175000D01*
G01*
X91155000Y-119342000D01*
G75*
G02*
X90980000Y-119517000I-175000J0D01*
G01*
G37*
G36*
G01*
X92250000Y-119517000D02*
X91900000Y-119517000D01*
G75*
G02*
X91725000Y-119342000I0J175000D01*
G01*
X91725000Y-117542000D01*
G75*
G02*
X91900000Y-117367000I175000J0D01*
G01*
X92250000Y-117367000D01*
G75*
G02*
X92425000Y-117542000I0J-175000D01*
G01*
X92425000Y-119342000D01*
G75*
G02*
X92250000Y-119517000I-175000J0D01*
G01*
G37*
G36*
G01*
X92250000Y-110217000D02*
X91900000Y-110217000D01*
G75*
G02*
X91725000Y-110042000I0J175000D01*
G01*
X91725000Y-108242000D01*
G75*
G02*
X91900000Y-108067000I175000J0D01*
G01*
X92250000Y-108067000D01*
G75*
G02*
X92425000Y-108242000I0J-175000D01*
G01*
X92425000Y-110042000D01*
G75*
G02*
X92250000Y-110217000I-175000J0D01*
G01*
G37*
G36*
G01*
X90980000Y-110217000D02*
X90630000Y-110217000D01*
G75*
G02*
X90455000Y-110042000I0J175000D01*
G01*
X90455000Y-108242000D01*
G75*
G02*
X90630000Y-108067000I175000J0D01*
G01*
X90980000Y-108067000D01*
G75*
G02*
X91155000Y-108242000I0J-175000D01*
G01*
X91155000Y-110042000D01*
G75*
G02*
X90980000Y-110217000I-175000J0D01*
G01*
G37*
G36*
G01*
X89710000Y-110217000D02*
X89360000Y-110217000D01*
G75*
G02*
X89185000Y-110042000I0J175000D01*
G01*
X89185000Y-108242000D01*
G75*
G02*
X89360000Y-108067000I175000J0D01*
G01*
X89710000Y-108067000D01*
G75*
G02*
X89885000Y-108242000I0J-175000D01*
G01*
X89885000Y-110042000D01*
G75*
G02*
X89710000Y-110217000I-175000J0D01*
G01*
G37*
G36*
G01*
X88440000Y-110217000D02*
X88090000Y-110217000D01*
G75*
G02*
X87915000Y-110042000I0J175000D01*
G01*
X87915000Y-108242000D01*
G75*
G02*
X88090000Y-108067000I175000J0D01*
G01*
X88440000Y-108067000D01*
G75*
G02*
X88615000Y-108242000I0J-175000D01*
G01*
X88615000Y-110042000D01*
G75*
G02*
X88440000Y-110217000I-175000J0D01*
G01*
G37*
G36*
G01*
X87170000Y-110217000D02*
X86820000Y-110217000D01*
G75*
G02*
X86645000Y-110042000I0J175000D01*
G01*
X86645000Y-108242000D01*
G75*
G02*
X86820000Y-108067000I175000J0D01*
G01*
X87170000Y-108067000D01*
G75*
G02*
X87345000Y-108242000I0J-175000D01*
G01*
X87345000Y-110042000D01*
G75*
G02*
X87170000Y-110217000I-175000J0D01*
G01*
G37*
G36*
G01*
X85900000Y-110217000D02*
X85550000Y-110217000D01*
G75*
G02*
X85375000Y-110042000I0J175000D01*
G01*
X85375000Y-108242000D01*
G75*
G02*
X85550000Y-108067000I175000J0D01*
G01*
X85900000Y-108067000D01*
G75*
G02*
X86075000Y-108242000I0J-175000D01*
G01*
X86075000Y-110042000D01*
G75*
G02*
X85900000Y-110217000I-175000J0D01*
G01*
G37*
G36*
G01*
X84630000Y-110217000D02*
X84280000Y-110217000D01*
G75*
G02*
X84105000Y-110042000I0J175000D01*
G01*
X84105000Y-108242000D01*
G75*
G02*
X84280000Y-108067000I175000J0D01*
G01*
X84630000Y-108067000D01*
G75*
G02*
X84805000Y-108242000I0J-175000D01*
G01*
X84805000Y-110042000D01*
G75*
G02*
X84630000Y-110217000I-175000J0D01*
G01*
G37*
G36*
G01*
X83360000Y-110217000D02*
X83010000Y-110217000D01*
G75*
G02*
X82835000Y-110042000I0J175000D01*
G01*
X82835000Y-108242000D01*
G75*
G02*
X83010000Y-108067000I175000J0D01*
G01*
X83360000Y-108067000D01*
G75*
G02*
X83535000Y-108242000I0J-175000D01*
G01*
X83535000Y-110042000D01*
G75*
G02*
X83360000Y-110217000I-175000J0D01*
G01*
G37*
G36*
G01*
X82090000Y-110217000D02*
X81740000Y-110217000D01*
G75*
G02*
X81565000Y-110042000I0J175000D01*
G01*
X81565000Y-108242000D01*
G75*
G02*
X81740000Y-108067000I175000J0D01*
G01*
X82090000Y-108067000D01*
G75*
G02*
X82265000Y-108242000I0J-175000D01*
G01*
X82265000Y-110042000D01*
G75*
G02*
X82090000Y-110217000I-175000J0D01*
G01*
G37*
G36*
G01*
X80820000Y-110217000D02*
X80470000Y-110217000D01*
G75*
G02*
X80295000Y-110042000I0J175000D01*
G01*
X80295000Y-108242000D01*
G75*
G02*
X80470000Y-108067000I175000J0D01*
G01*
X80820000Y-108067000D01*
G75*
G02*
X80995000Y-108242000I0J-175000D01*
G01*
X80995000Y-110042000D01*
G75*
G02*
X80820000Y-110217000I-175000J0D01*
G01*
G37*
G36*
G01*
X75825000Y-115062500D02*
X75825000Y-114037500D01*
G75*
G02*
X76062500Y-113800000I237500J0D01*
G01*
X76537500Y-113800000D01*
G75*
G02*
X76775000Y-114037500I0J-237500D01*
G01*
X76775000Y-115062500D01*
G75*
G02*
X76537500Y-115300000I-237500J0D01*
G01*
X76062500Y-115300000D01*
G75*
G02*
X75825000Y-115062500I0J237500D01*
G01*
G37*
G36*
G01*
X77725000Y-115062500D02*
X77725000Y-114037500D01*
G75*
G02*
X77962500Y-113800000I237500J0D01*
G01*
X78437500Y-113800000D01*
G75*
G02*
X78675000Y-114037500I0J-237500D01*
G01*
X78675000Y-115062500D01*
G75*
G02*
X78437500Y-115300000I-237500J0D01*
G01*
X77962500Y-115300000D01*
G75*
G02*
X77725000Y-115062500I0J237500D01*
G01*
G37*
G36*
G01*
X96411000Y-118699500D02*
X95486000Y-118699500D01*
G75*
G02*
X95198500Y-118412000I0J287500D01*
G01*
X95198500Y-117837000D01*
G75*
G02*
X95486000Y-117549500I287500J0D01*
G01*
X96411000Y-117549500D01*
G75*
G02*
X96698500Y-117837000I0J-287500D01*
G01*
X96698500Y-118412000D01*
G75*
G02*
X96411000Y-118699500I-287500J0D01*
G01*
G37*
G36*
G01*
X96411000Y-120399500D02*
X95486000Y-120399500D01*
G75*
G02*
X95198500Y-120112000I0J287500D01*
G01*
X95198500Y-119537000D01*
G75*
G02*
X95486000Y-119249500I287500J0D01*
G01*
X96411000Y-119249500D01*
G75*
G02*
X96698500Y-119537000I0J-287500D01*
G01*
X96698500Y-120112000D01*
G75*
G02*
X96411000Y-120399500I-287500J0D01*
G01*
G37*
G36*
G01*
X120414000Y-118699500D02*
X119489000Y-118699500D01*
G75*
G02*
X119201500Y-118412000I0J287500D01*
G01*
X119201500Y-117837000D01*
G75*
G02*
X119489000Y-117549500I287500J0D01*
G01*
X120414000Y-117549500D01*
G75*
G02*
X120701500Y-117837000I0J-287500D01*
G01*
X120701500Y-118412000D01*
G75*
G02*
X120414000Y-118699500I-287500J0D01*
G01*
G37*
G36*
G01*
X120414000Y-120399500D02*
X119489000Y-120399500D01*
G75*
G02*
X119201500Y-120112000I0J287500D01*
G01*
X119201500Y-119537000D01*
G75*
G02*
X119489000Y-119249500I287500J0D01*
G01*
X120414000Y-119249500D01*
G75*
G02*
X120701500Y-119537000I0J-287500D01*
G01*
X120701500Y-120112000D01*
G75*
G02*
X120414000Y-120399500I-287500J0D01*
G01*
G37*
G36*
G01*
X160080000Y-123017500D02*
X160080000Y-122092500D01*
G75*
G02*
X160367500Y-121805000I287500J0D01*
G01*
X160942500Y-121805000D01*
G75*
G02*
X161230000Y-122092500I0J-287500D01*
G01*
X161230000Y-123017500D01*
G75*
G02*
X160942500Y-123305000I-287500J0D01*
G01*
X160367500Y-123305000D01*
G75*
G02*
X160080000Y-123017500I0J287500D01*
G01*
G37*
G36*
G01*
X161780000Y-123017500D02*
X161780000Y-122092500D01*
G75*
G02*
X162067500Y-121805000I287500J0D01*
G01*
X162642500Y-121805000D01*
G75*
G02*
X162930000Y-122092500I0J-287500D01*
G01*
X162930000Y-123017500D01*
G75*
G02*
X162642500Y-123305000I-287500J0D01*
G01*
X162067500Y-123305000D01*
G75*
G02*
X161780000Y-123017500I0J287500D01*
G01*
G37*
G36*
G01*
X81770000Y-107015500D02*
X81770000Y-106090500D01*
G75*
G02*
X82057500Y-105803000I287500J0D01*
G01*
X82632500Y-105803000D01*
G75*
G02*
X82920000Y-106090500I0J-287500D01*
G01*
X82920000Y-107015500D01*
G75*
G02*
X82632500Y-107303000I-287500J0D01*
G01*
X82057500Y-107303000D01*
G75*
G02*
X81770000Y-107015500I0J287500D01*
G01*
G37*
G36*
G01*
X80070000Y-107015500D02*
X80070000Y-106090500D01*
G75*
G02*
X80357500Y-105803000I287500J0D01*
G01*
X80932500Y-105803000D01*
G75*
G02*
X81220000Y-106090500I0J-287500D01*
G01*
X81220000Y-107015500D01*
G75*
G02*
X80932500Y-107303000I-287500J0D01*
G01*
X80357500Y-107303000D01*
G75*
G02*
X80070000Y-107015500I0J287500D01*
G01*
G37*
G36*
G01*
X122319000Y-108183000D02*
X121394000Y-108183000D01*
G75*
G02*
X121106500Y-107895500I0J287500D01*
G01*
X121106500Y-107320500D01*
G75*
G02*
X121394000Y-107033000I287500J0D01*
G01*
X122319000Y-107033000D01*
G75*
G02*
X122606500Y-107320500I0J-287500D01*
G01*
X122606500Y-107895500D01*
G75*
G02*
X122319000Y-108183000I-287500J0D01*
G01*
G37*
G36*
G01*
X122319000Y-109883000D02*
X121394000Y-109883000D01*
G75*
G02*
X121106500Y-109595500I0J287500D01*
G01*
X121106500Y-109020500D01*
G75*
G02*
X121394000Y-108733000I287500J0D01*
G01*
X122319000Y-108733000D01*
G75*
G02*
X122606500Y-109020500I0J-287500D01*
G01*
X122606500Y-109595500D01*
G75*
G02*
X122319000Y-109883000I-287500J0D01*
G01*
G37*
G36*
G01*
X75825000Y-113012500D02*
X75825000Y-112087500D01*
G75*
G02*
X76112500Y-111800000I287500J0D01*
G01*
X76687500Y-111800000D01*
G75*
G02*
X76975000Y-112087500I0J-287500D01*
G01*
X76975000Y-113012500D01*
G75*
G02*
X76687500Y-113300000I-287500J0D01*
G01*
X76112500Y-113300000D01*
G75*
G02*
X75825000Y-113012500I0J287500D01*
G01*
G37*
G36*
G01*
X77525000Y-113012500D02*
X77525000Y-112087500D01*
G75*
G02*
X77812500Y-111800000I287500J0D01*
G01*
X78387500Y-111800000D01*
G75*
G02*
X78675000Y-112087500I0J-287500D01*
G01*
X78675000Y-113012500D01*
G75*
G02*
X78387500Y-113300000I-287500J0D01*
G01*
X77812500Y-113300000D01*
G75*
G02*
X77525000Y-113012500I0J287500D01*
G01*
G37*
G36*
G01*
X78762500Y-122875000D02*
X77837500Y-122875000D01*
G75*
G02*
X77550000Y-122587500I0J287500D01*
G01*
X77550000Y-122012500D01*
G75*
G02*
X77837500Y-121725000I287500J0D01*
G01*
X78762500Y-121725000D01*
G75*
G02*
X79050000Y-122012500I0J-287500D01*
G01*
X79050000Y-122587500D01*
G75*
G02*
X78762500Y-122875000I-287500J0D01*
G01*
G37*
G36*
G01*
X78762500Y-121175000D02*
X77837500Y-121175000D01*
G75*
G02*
X77550000Y-120887500I0J287500D01*
G01*
X77550000Y-120312500D01*
G75*
G02*
X77837500Y-120025000I287500J0D01*
G01*
X78762500Y-120025000D01*
G75*
G02*
X79050000Y-120312500I0J-287500D01*
G01*
X79050000Y-120887500D01*
G75*
G02*
X78762500Y-121175000I-287500J0D01*
G01*
G37*
G36*
G01*
X76525000Y-106337500D02*
X76525000Y-107262500D01*
G75*
G02*
X76237500Y-107550000I-287500J0D01*
G01*
X75662500Y-107550000D01*
G75*
G02*
X75375000Y-107262500I0J287500D01*
G01*
X75375000Y-106337500D01*
G75*
G02*
X75662500Y-106050000I287500J0D01*
G01*
X76237500Y-106050000D01*
G75*
G02*
X76525000Y-106337500I0J-287500D01*
G01*
G37*
G36*
G01*
X78225000Y-106337500D02*
X78225000Y-107262500D01*
G75*
G02*
X77937500Y-107550000I-287500J0D01*
G01*
X77362500Y-107550000D01*
G75*
G02*
X77075000Y-107262500I0J287500D01*
G01*
X77075000Y-106337500D01*
G75*
G02*
X77362500Y-106050000I287500J0D01*
G01*
X77937500Y-106050000D01*
G75*
G02*
X78225000Y-106337500I0J-287500D01*
G01*
G37*
M02*
