G04 #@! TF.GenerationSoftware,KiCad,Pcbnew,(5.1.10-1-10_14)*
G04 #@! TF.CreationDate,2021-12-06T12:41:19-05:00*
G04 #@! TF.ProjectId,Adapter-30,41646170-7465-4722-9d33-302e6b696361,1.0-SOP*
G04 #@! TF.SameCoordinates,Original*
G04 #@! TF.FileFunction,Paste,Top*
G04 #@! TF.FilePolarity,Positive*
%FSLAX46Y46*%
G04 Gerber Fmt 4.6, Leading zero omitted, Abs format (unit mm)*
G04 Created by KiCad (PCBNEW (5.1.10-1-10_14)) date 2021-12-06 12:41:19*
%MOMM*%
%LPD*%
G01*
G04 APERTURE LIST*
G04 APERTURE END LIST*
G36*
G01*
X139145000Y-91396000D02*
X139145000Y-92246000D01*
G75*
G02*
X138895000Y-92496000I-250000J0D01*
G01*
X138395000Y-92496000D01*
G75*
G02*
X138145000Y-92246000I0J250000D01*
G01*
X138145000Y-91396000D01*
G75*
G02*
X138395000Y-91146000I250000J0D01*
G01*
X138895000Y-91146000D01*
G75*
G02*
X139145000Y-91396000I0J-250000D01*
G01*
G37*
G36*
G01*
X137445000Y-91396000D02*
X137445000Y-92246000D01*
G75*
G02*
X137195000Y-92496000I-250000J0D01*
G01*
X136695000Y-92496000D01*
G75*
G02*
X136445000Y-92246000I0J250000D01*
G01*
X136445000Y-91396000D01*
G75*
G02*
X136695000Y-91146000I250000J0D01*
G01*
X137195000Y-91146000D01*
G75*
G02*
X137445000Y-91396000I0J-250000D01*
G01*
G37*
G36*
G01*
X84245000Y-94875500D02*
X83395000Y-94875500D01*
G75*
G02*
X83145000Y-94625500I0J250000D01*
G01*
X83145000Y-94125500D01*
G75*
G02*
X83395000Y-93875500I250000J0D01*
G01*
X84245000Y-93875500D01*
G75*
G02*
X84495000Y-94125500I0J-250000D01*
G01*
X84495000Y-94625500D01*
G75*
G02*
X84245000Y-94875500I-250000J0D01*
G01*
G37*
G36*
G01*
X84245000Y-96575500D02*
X83395000Y-96575500D01*
G75*
G02*
X83145000Y-96325500I0J250000D01*
G01*
X83145000Y-95825500D01*
G75*
G02*
X83395000Y-95575500I250000J0D01*
G01*
X84245000Y-95575500D01*
G75*
G02*
X84495000Y-95825500I0J-250000D01*
G01*
X84495000Y-96325500D01*
G75*
G02*
X84245000Y-96575500I-250000J0D01*
G01*
G37*
G36*
G01*
X157905000Y-94875500D02*
X157055000Y-94875500D01*
G75*
G02*
X156805000Y-94625500I0J250000D01*
G01*
X156805000Y-94125500D01*
G75*
G02*
X157055000Y-93875500I250000J0D01*
G01*
X157905000Y-93875500D01*
G75*
G02*
X158155000Y-94125500I0J-250000D01*
G01*
X158155000Y-94625500D01*
G75*
G02*
X157905000Y-94875500I-250000J0D01*
G01*
G37*
G36*
G01*
X157905000Y-96575500D02*
X157055000Y-96575500D01*
G75*
G02*
X156805000Y-96325500I0J250000D01*
G01*
X156805000Y-95825500D01*
G75*
G02*
X157055000Y-95575500I250000J0D01*
G01*
X157905000Y-95575500D01*
G75*
G02*
X158155000Y-95825500I0J-250000D01*
G01*
X158155000Y-96325500D01*
G75*
G02*
X157905000Y-96575500I-250000J0D01*
G01*
G37*
G36*
G01*
X160155000Y-74720000D02*
X160155000Y-73870000D01*
G75*
G02*
X160405000Y-73620000I250000J0D01*
G01*
X160905000Y-73620000D01*
G75*
G02*
X161155000Y-73870000I0J-250000D01*
G01*
X161155000Y-74720000D01*
G75*
G02*
X160905000Y-74970000I-250000J0D01*
G01*
X160405000Y-74970000D01*
G75*
G02*
X160155000Y-74720000I0J250000D01*
G01*
G37*
G36*
G01*
X161855000Y-74720000D02*
X161855000Y-73870000D01*
G75*
G02*
X162105000Y-73620000I250000J0D01*
G01*
X162605000Y-73620000D01*
G75*
G02*
X162855000Y-73870000I0J-250000D01*
G01*
X162855000Y-74720000D01*
G75*
G02*
X162605000Y-74970000I-250000J0D01*
G01*
X162105000Y-74970000D01*
G75*
G02*
X161855000Y-74720000I0J250000D01*
G01*
G37*
G36*
G01*
X118649000Y-73870000D02*
X118649000Y-74720000D01*
G75*
G02*
X118399000Y-74970000I-250000J0D01*
G01*
X117899000Y-74970000D01*
G75*
G02*
X117649000Y-74720000I0J250000D01*
G01*
X117649000Y-73870000D01*
G75*
G02*
X117899000Y-73620000I250000J0D01*
G01*
X118399000Y-73620000D01*
G75*
G02*
X118649000Y-73870000I0J-250000D01*
G01*
G37*
G36*
G01*
X120349000Y-73870000D02*
X120349000Y-74720000D01*
G75*
G02*
X120099000Y-74970000I-250000J0D01*
G01*
X119599000Y-74970000D01*
G75*
G02*
X119349000Y-74720000I0J250000D01*
G01*
X119349000Y-73870000D01*
G75*
G02*
X119599000Y-73620000I250000J0D01*
G01*
X120099000Y-73620000D01*
G75*
G02*
X120349000Y-73870000I0J-250000D01*
G01*
G37*
G36*
G01*
X82415000Y-73870000D02*
X82415000Y-74720000D01*
G75*
G02*
X82165000Y-74970000I-250000J0D01*
G01*
X81665000Y-74970000D01*
G75*
G02*
X81415000Y-74720000I0J250000D01*
G01*
X81415000Y-73870000D01*
G75*
G02*
X81665000Y-73620000I250000J0D01*
G01*
X82165000Y-73620000D01*
G75*
G02*
X82415000Y-73870000I0J-250000D01*
G01*
G37*
G36*
G01*
X80715000Y-73870000D02*
X80715000Y-74720000D01*
G75*
G02*
X80465000Y-74970000I-250000J0D01*
G01*
X79965000Y-74970000D01*
G75*
G02*
X79715000Y-74720000I0J250000D01*
G01*
X79715000Y-73870000D01*
G75*
G02*
X79965000Y-73620000I250000J0D01*
G01*
X80465000Y-73620000D01*
G75*
G02*
X80715000Y-73870000I0J-250000D01*
G01*
G37*
M02*
