M48
; DRILL file {KiCad (5.1.10-1-10_14)} date Monday, December 06, 2021 at 12:41:20 PM
; FORMAT={-:-/ absolute / inch / decimal}
; #@! TF.CreationDate,2021-12-06T12:41:20-05:00
; #@! TF.GenerationSoftware,Kicad,Pcbnew,(5.1.10-1-10_14)
FMAT,2
INCH
T1C0.0079
T2C0.0118
T3C0.0157
T4C0.0394
T5C0.0454
T6C0.0500
T7C0.0673
T8C0.0949
%
G90
G05
T1
X2.635Y-2.61
X2.71Y-2.535
X3.035Y-3.29
X3.035Y-3.69
X3.115Y-3.73
X3.115Y-3.83
X3.29Y-2.535
X3.3Y-2.84
X3.35Y-2.84
X3.45Y-2.84
X3.49Y-2.535
X3.525Y-2.84
X3.6Y-2.84
X3.65Y-2.84
X3.69Y-2.535
X3.75Y-2.84
X3.825Y-2.84
X3.89Y-2.535
X3.9Y-2.84
X4.0Y-2.84
X4.05Y-2.84
X4.09Y-2.535
X4.15Y-2.84
X4.225Y-2.84
X4.29Y-2.535
X4.3Y-2.84
X4.35Y-2.84
X4.45Y-2.535
X4.45Y-2.84
X4.525Y-2.84
X4.6Y-2.84
X4.61Y-2.535
X4.775Y-2.84
X4.8Y-2.77
X4.805Y-2.535
X4.825Y-2.84
X4.95Y-2.84
X5.0Y-2.535
X5.025Y-2.84
X5.1Y-2.84
X5.15Y-2.84
X5.175Y-3.7
X5.2Y-2.84
X5.21Y-2.535
X5.275Y-2.84
X5.35Y-2.84
X5.41Y-2.535
X5.5Y-2.84
X5.55Y-2.84
X5.6Y-3.7
X5.61Y-2.535
X5.7Y-2.84
X5.75Y-2.84
X5.81Y-2.535
X5.95Y-2.84
X6.0Y-2.84
X6.01Y-2.535
X6.21Y-2.535
X6.37Y-3.965
X6.465Y-3.29
X6.465Y-3.69
X6.465Y-3.87
X6.79Y-2.535
X6.865Y-2.61
T2
X3.165Y-2.88
X3.165Y-2.97
X3.225Y-2.88
X3.225Y-2.97
X3.255Y-3.7225
X3.255Y-3.775
X3.3Y-3.6775
X3.3Y-3.82
X3.345Y-3.7225
X3.345Y-3.775
X4.66Y-2.88
X4.66Y-2.97
X4.71Y-2.88
X4.71Y-2.97
X5.4Y-3.57
X5.4Y-3.66
X5.45Y-3.57
X5.45Y-3.66
X6.155Y-3.7225
X6.155Y-3.775
X6.2Y-3.6775
X6.2Y-3.82
X6.245Y-3.7225
X6.245Y-3.775
X6.325Y-2.88
X6.325Y-2.97
X6.385Y-2.88
X6.385Y-2.97
T3
X3.3Y-3.89
X3.4Y-3.89
X3.5Y-3.89
X3.6Y-3.89
X3.7Y-3.89
X3.8Y-3.89
X3.9Y-3.89
X4.0Y-3.89
X4.1Y-3.89
X4.2Y-3.89
X4.3Y-3.89
X4.4Y-3.89
X4.5Y-3.89
X4.6Y-3.89
X4.7Y-3.89
X4.8Y-3.89
X4.9Y-3.89
X5.0Y-3.89
X5.1Y-3.89
X5.2Y-3.89
X5.3Y-3.89
X5.4Y-3.89
X5.5Y-3.89
X5.6Y-3.89
X5.7Y-3.89
X5.8Y-3.89
X5.9Y-3.89
X6.0Y-3.89
X6.1Y-3.89
X6.2Y-3.89
T4
X3.075Y-2.625
X3.125Y-2.725
X3.175Y-2.625
X3.225Y-2.725
X3.275Y-2.625
X3.325Y-2.725
X3.375Y-2.625
X3.425Y-2.725
X3.475Y-2.625
X3.525Y-2.725
X3.575Y-2.625
X3.625Y-2.725
X3.675Y-2.625
X3.725Y-2.725
X3.775Y-2.625
X3.825Y-2.725
X3.875Y-2.625
X3.925Y-2.725
X3.975Y-2.625
X4.025Y-2.725
X4.075Y-2.625
X4.125Y-2.725
X4.175Y-2.625
X4.225Y-2.725
X4.275Y-2.625
X4.325Y-2.725
X4.375Y-2.625
X4.425Y-2.725
X4.475Y-2.625
X4.525Y-2.725
X4.575Y-2.625
X4.625Y-2.725
X4.875Y-2.625
X4.925Y-2.725
X4.975Y-2.625
X5.025Y-2.725
X5.075Y-2.625
X5.125Y-2.725
X5.175Y-2.625
X5.225Y-2.725
X5.275Y-2.625
X5.325Y-2.725
X5.375Y-2.625
X5.425Y-2.725
X5.475Y-2.625
X5.525Y-2.725
X5.575Y-2.625
X5.625Y-2.725
X5.675Y-2.625
X5.725Y-2.725
X5.775Y-2.625
X5.825Y-2.725
X5.875Y-2.625
X5.925Y-2.725
X5.975Y-2.625
X6.025Y-2.725
X6.075Y-2.625
X6.125Y-2.725
X6.175Y-2.625
X6.225Y-2.725
X6.275Y-2.625
X6.325Y-2.725
X6.375Y-2.625
X6.425Y-2.725
T5
X2.66Y-2.56
X3.14Y-3.94
X6.44Y-3.94
X6.84Y-2.56
T6
X2.75Y-2.675
T7
X4.75Y-2.675
T8
X6.75Y-2.675
T0
M30
