G04 #@! TF.GenerationSoftware,KiCad,Pcbnew,(6.0.1-0)*
G04 #@! TF.CreationDate,2022-02-13T03:47:26-05:00*
G04 #@! TF.ProjectId,Adapter-30,41646170-7465-4722-9d33-302e6b696361,1.0-SOP*
G04 #@! TF.SameCoordinates,Original*
G04 #@! TF.FileFunction,Legend,Bot*
G04 #@! TF.FilePolarity,Positive*
%FSLAX46Y46*%
G04 Gerber Fmt 4.6, Leading zero omitted, Abs format (unit mm)*
G04 Created by KiCad (PCBNEW (6.0.1-0)) date 2022-02-13 03:47:26*
%MOMM*%
%LPD*%
G01*
G04 APERTURE LIST*
G04 Aperture macros list*
%AMRoundRect*
0 Rectangle with rounded corners*
0 $1 Rounding radius*
0 $2 $3 $4 $5 $6 $7 $8 $9 X,Y pos of 4 corners*
0 Add a 4 corners polygon primitive as box body*
4,1,4,$2,$3,$4,$5,$6,$7,$8,$9,$2,$3,0*
0 Add four circle primitives for the rounded corners*
1,1,$1+$1,$2,$3*
1,1,$1+$1,$4,$5*
1,1,$1+$1,$6,$7*
1,1,$1+$1,$8,$9*
0 Add four rect primitives between the rounded corners*
20,1,$1+$1,$2,$3,$4,$5,0*
20,1,$1+$1,$4,$5,$6,$7,0*
20,1,$1+$1,$6,$7,$8,$9,0*
20,1,$1+$1,$8,$9,$2,$3,0*%
G04 Aperture macros list end*
%ADD10C,0.203200*%
%ADD11C,0.952400*%
%ADD12RoundRect,0.520700X-0.444500X-0.825500X0.444500X-0.825500X0.444500X0.825500X-0.444500X0.825500X0*%
%ADD13C,1.448000*%
%ADD14RoundRect,0.076200X0.850000X-0.850000X0.850000X0.850000X-0.850000X0.850000X-0.850000X-0.850000X0*%
%ADD15O,1.852400X1.852400*%
%ADD16C,2.562400*%
%ADD17C,1.422400*%
%ADD18C,1.862400*%
G04 APERTURE END LIST*
D10*
X161017857Y-98722591D02*
X160475990Y-98722591D01*
X161017857Y-99535391D01*
X160475990Y-99535391D01*
X160166352Y-99535391D02*
X160166352Y-98722591D01*
X159701895Y-99535391D02*
X160050238Y-99070934D01*
X159701895Y-98722591D02*
X160166352Y-99187048D01*
X159314847Y-99496686D02*
X159314847Y-99535391D01*
X159353552Y-99612800D01*
X159392257Y-99651505D01*
X160282466Y-100069904D02*
X160359876Y-100031199D01*
X160475990Y-100031199D01*
X160592104Y-100069904D01*
X160669514Y-100147313D01*
X160708219Y-100224723D01*
X160746923Y-100379542D01*
X160746923Y-100495656D01*
X160708219Y-100650475D01*
X160669514Y-100727884D01*
X160592104Y-100805294D01*
X160475990Y-100843999D01*
X160398580Y-100843999D01*
X160282466Y-100805294D01*
X160243761Y-100766589D01*
X160243761Y-100495656D01*
X160398580Y-100495656D01*
X159624485Y-100418246D02*
X159895419Y-100418246D01*
X159895419Y-100843999D02*
X159895419Y-100031199D01*
X159508371Y-100031199D01*
%LPC*%
D11*
X157480000Y-98806000D03*
X154940000Y-98806000D03*
X129540000Y-98806000D03*
X144780000Y-98806000D03*
X139700000Y-98806000D03*
X142240000Y-98806000D03*
X137160000Y-98806000D03*
X132080000Y-98806000D03*
X134620000Y-98806000D03*
X152400000Y-98806000D03*
X147320000Y-98806000D03*
X149860000Y-98806000D03*
X127000000Y-98806000D03*
X121920000Y-98806000D03*
X124460000Y-98806000D03*
X119380000Y-98806000D03*
X114300000Y-98806000D03*
X116840000Y-98806000D03*
X111760000Y-98806000D03*
X106680000Y-98806000D03*
X109220000Y-98806000D03*
X101600000Y-98806000D03*
X104140000Y-98806000D03*
X99060000Y-98806000D03*
X96520000Y-98806000D03*
X91440000Y-98806000D03*
X93980000Y-98806000D03*
X83820000Y-98806000D03*
X86360000Y-98806000D03*
X88900000Y-98806000D03*
D12*
X157480000Y-100076000D03*
X154940000Y-100076000D03*
X152400000Y-100076000D03*
X149860000Y-100076000D03*
X147320000Y-100076000D03*
X144780000Y-100076000D03*
X142240000Y-100076000D03*
X139700000Y-100076000D03*
X137160000Y-100076000D03*
X134620000Y-100076000D03*
X132080000Y-100076000D03*
X129540000Y-100076000D03*
X127000000Y-100076000D03*
X124460000Y-100076000D03*
X121920000Y-100076000D03*
X119380000Y-100076000D03*
X116840000Y-100076000D03*
X114300000Y-100076000D03*
X111760000Y-100076000D03*
X109220000Y-100076000D03*
X106680000Y-100076000D03*
X104140000Y-100076000D03*
X101600000Y-100076000D03*
X99060000Y-100076000D03*
X96520000Y-100076000D03*
X93980000Y-100076000D03*
X91440000Y-100076000D03*
X88900000Y-100076000D03*
X86360000Y-100076000D03*
X83820000Y-100076000D03*
D13*
X173736000Y-65024000D03*
X67564000Y-65024000D03*
X79756000Y-100076000D03*
X163576000Y-100076000D03*
D14*
X78105000Y-66675000D03*
D15*
X79375000Y-69215000D03*
X80645000Y-66675000D03*
X81915000Y-69215000D03*
X83185000Y-66675000D03*
X84455000Y-69215000D03*
X85725000Y-66675000D03*
X86995000Y-69215000D03*
X88265000Y-66675000D03*
X89535000Y-69215000D03*
X90805000Y-66675000D03*
X92075000Y-69215000D03*
X93345000Y-66675000D03*
X94615000Y-69215000D03*
X95885000Y-66675000D03*
X97155000Y-69215000D03*
X98425000Y-66675000D03*
X99695000Y-69215000D03*
X100965000Y-66675000D03*
X102235000Y-69215000D03*
X103505000Y-66675000D03*
X104775000Y-69215000D03*
X106045000Y-66675000D03*
X107315000Y-69215000D03*
X108585000Y-66675000D03*
X109855000Y-69215000D03*
X111125000Y-66675000D03*
X112395000Y-69215000D03*
X113665000Y-66675000D03*
X114935000Y-69215000D03*
X116205000Y-66675000D03*
X117475000Y-69215000D03*
X123825000Y-66675000D03*
X125095000Y-69215000D03*
X126365000Y-66675000D03*
X127635000Y-69215000D03*
X128905000Y-66675000D03*
X130175000Y-69215000D03*
X131445000Y-66675000D03*
X132715000Y-69215000D03*
X133985000Y-66675000D03*
X135255000Y-69215000D03*
X136525000Y-66675000D03*
X137795000Y-69215000D03*
X139065000Y-66675000D03*
X140335000Y-69215000D03*
X141605000Y-66675000D03*
X142875000Y-69215000D03*
X144145000Y-66675000D03*
X145415000Y-69215000D03*
X146685000Y-66675000D03*
X147955000Y-69215000D03*
X149225000Y-66675000D03*
X150495000Y-69215000D03*
X151765000Y-66675000D03*
X153035000Y-69215000D03*
X154305000Y-66675000D03*
X155575000Y-69215000D03*
X156845000Y-66675000D03*
X158115000Y-69215000D03*
X159385000Y-66675000D03*
X160655000Y-69215000D03*
X161925000Y-66675000D03*
X163195000Y-69215000D03*
D16*
X171450000Y-67945000D03*
D17*
X69850000Y-67945000D03*
D18*
X120650000Y-67945000D03*
M02*
