M48
; DRILL file {KiCad (5.1.10-1-10_14)} date Monday, December 06, 2021 at 12:39:39 PM
; FORMAT={-:-/ absolute / inch / decimal}
; #@! TF.CreationDate,2021-12-06T12:39:39-05:00
; #@! TF.GenerationSoftware,Kicad,Pcbnew,(5.1.10-1-10_14)
FMAT,2
INCH
T1C0.0079
T2C0.0118
T3C0.0200
T4C0.0433
%
G90
G05
T1
X2.8575Y-4.225
X2.8575Y-4.325
X2.8575Y-4.425
X2.8575Y-4.525
X2.8575Y-4.625
X2.8575Y-4.7425
X2.9375Y-4.8125
X3.02Y-4.385
X3.18Y-4.26
X3.18Y-4.36
X3.25Y-4.065
X3.25Y-4.88
X3.28Y-4.26
X3.3Y-4.88
X3.35Y-4.065
X3.35Y-4.88
X3.4Y-4.88
X3.43Y-4.215
X3.43Y-4.805
X3.445Y-4.4225
X3.45Y-4.065
X3.45Y-4.88
X3.455Y-4.3725
X3.465Y-4.1925
X3.465Y-4.8275
X3.5Y-4.88
X3.55Y-4.88
X3.6Y-4.88
X3.615Y-4.26
X3.615Y-4.36
X3.615Y-4.61
X3.615Y-4.66
X3.65Y-4.065
X3.65Y-4.88
X3.7Y-4.88
X3.715Y-4.26
X3.75Y-4.065
X3.75Y-4.88
X3.8Y-4.88
X3.85Y-4.065
X3.85Y-4.88
X3.865Y-4.215
X3.865Y-4.805
X3.88Y-4.4225
X3.885Y-4.3725
X3.9Y-4.1925
X3.9Y-4.8275
X4.05Y-4.26
X4.05Y-4.36
X4.05Y-4.71
X4.05Y-4.76
X4.05Y-4.88
X4.1Y-4.88
X4.15Y-4.065
X4.15Y-4.26
X4.15Y-4.88
X4.2Y-4.88
X4.25Y-4.065
X4.25Y-4.88
X4.3Y-4.215
X4.3Y-4.805
X4.3Y-4.88
X4.32Y-4.4225
X4.325Y-4.3725
X4.335Y-4.1925
X4.335Y-4.8275
X4.35Y-4.065
X4.35Y-4.88
X4.4Y-4.88
X4.45Y-4.88
X4.485Y-4.26
X4.485Y-4.36
X4.4875Y-4.685
X4.4875Y-4.735
X4.5Y-4.88
X4.55Y-4.065
X4.55Y-4.88
X4.585Y-4.26
X4.6Y-4.88
X4.65Y-4.065
X4.675Y-4.95
X4.735Y-4.215
X4.735Y-4.805
X4.7475Y-4.4225
X4.75Y-4.065
X4.75Y-4.925
X4.7525Y-4.3725
X4.765Y-4.1925
X4.765Y-4.8275
X4.825Y-4.95
X4.9Y-4.88
X4.915Y-4.26
X4.915Y-4.36
X4.915Y-4.585
X4.915Y-4.635
X4.95Y-4.065
X4.95Y-4.88
X5.0Y-4.88
X5.015Y-4.26
X5.05Y-4.065
X5.05Y-4.88
X5.1Y-4.88
X5.15Y-4.065
X5.15Y-4.88
X5.165Y-4.215
X5.165Y-4.805
X5.18Y-4.4225
X5.185Y-4.3725
X5.19Y-4.535
X5.2Y-4.1925
X5.2Y-4.8275
X5.2Y-4.88
X5.25Y-4.88
X5.35Y-4.26
X5.35Y-4.36
X5.35Y-4.46
X5.35Y-4.56
X5.35Y-4.88
X5.3825Y-4.435
X5.4Y-4.88
X5.45Y-4.065
X5.45Y-4.26
X5.55Y-4.065
X5.55Y-4.88
X5.6Y-4.215
X5.6Y-4.805
X5.6Y-4.88
X5.615Y-4.4225
X5.62Y-4.3725
X5.635Y-4.1925
X5.635Y-4.8275
X5.65Y-4.065
X5.65Y-4.88
X5.7Y-4.88
X5.75Y-4.88
X5.785Y-4.26
X5.785Y-4.36
X5.8Y-4.88
X5.85Y-4.065
X5.85Y-4.88
X5.885Y-4.26
X5.9Y-4.88
X5.95Y-4.065
X5.95Y-4.88
X6.0Y-4.88
X6.035Y-4.215
X6.035Y-4.805
X6.05Y-4.065
X6.05Y-4.4225
X6.05Y-4.88
X6.055Y-4.3725
X6.07Y-4.1925
X6.07Y-4.8275
X6.095Y-4.88
X6.15Y-4.88
X6.2Y-4.88
X6.22Y-4.26
X6.22Y-4.36
X6.22Y-4.41
X6.25Y-4.065
X6.25Y-4.88
X6.32Y-4.26
X6.35Y-4.065
X6.45Y-4.065
X6.6425Y-4.225
X6.6425Y-4.325
X6.6425Y-4.425
X6.6425Y-4.525
X6.6425Y-4.625
X6.6425Y-4.725
X6.6425Y-4.825
T2
X2.935Y-4.76
X2.98Y-4.855
X3.025Y-4.76
X3.025Y-4.81
X3.0275Y-4.21
X3.0675Y-4.11
X3.105Y-4.18
X3.105Y-4.84
X3.1125Y-4.065
X3.16Y-4.155
X3.165Y-4.065
X3.1825Y-4.21
X3.1825Y-4.81
X3.21Y-4.11
X3.2775Y-4.21
X3.2775Y-4.81
X3.355Y-4.18
X3.355Y-4.84
X3.5025Y-4.11
X3.54Y-4.18
X3.54Y-4.84
X3.5475Y-4.065
X3.595Y-4.155
X3.6Y-4.065
X3.6175Y-4.21
X3.6175Y-4.81
X3.645Y-4.11
X3.7125Y-4.21
X3.7125Y-4.81
X3.79Y-4.18
X3.79Y-4.84
X3.9375Y-4.11
X3.975Y-4.18
X3.975Y-4.84
X3.9825Y-4.065
X4.03Y-4.155
X4.035Y-4.065
X4.0525Y-4.21
X4.0525Y-4.81
X4.08Y-4.11
X4.1475Y-4.21
X4.1475Y-4.81
X4.225Y-4.18
X4.225Y-4.84
X4.3725Y-4.11
X4.41Y-4.18
X4.41Y-4.84
X4.4175Y-4.065
X4.465Y-4.155
X4.47Y-4.065
X4.4875Y-4.21
X4.4875Y-4.81
X4.515Y-4.11
X4.5825Y-4.21
X4.5825Y-4.81
X4.66Y-4.18
X4.66Y-4.84
X4.8025Y-4.11
X4.84Y-4.18
X4.84Y-4.84
X4.8475Y-4.065
X4.895Y-4.155
X4.9Y-4.065
X4.9175Y-4.21
X4.9175Y-4.81
X4.945Y-4.11
X5.0125Y-4.21
X5.0125Y-4.81
X5.09Y-4.18
X5.0925Y-4.84
X5.2375Y-4.11
X5.275Y-4.18
X5.275Y-4.84
X5.2825Y-4.065
X5.33Y-4.155
X5.335Y-4.065
X5.3525Y-4.21
X5.3525Y-4.81
X5.38Y-4.11
X5.4475Y-4.21
X5.4475Y-4.81
X5.525Y-4.18
X5.525Y-4.84
X5.6725Y-4.11
X5.71Y-4.18
X5.71Y-4.84
X5.7175Y-4.065
X5.765Y-4.155
X5.77Y-4.065
X5.7875Y-4.21
X5.7875Y-4.81
X5.815Y-4.11
X5.8825Y-4.21
X5.8825Y-4.81
X5.96Y-4.18
X5.96Y-4.84
X6.1075Y-4.11
X6.145Y-4.18
X6.145Y-4.84
X6.1525Y-4.065
X6.2Y-4.155
X6.205Y-4.065
X6.2225Y-4.21
X6.2225Y-4.81
X6.25Y-4.11
X6.3175Y-4.21
X6.3175Y-4.81
X6.395Y-4.18
X6.395Y-4.84
X6.4725Y-4.21
X6.49Y-4.76
X6.49Y-4.81
X6.535Y-4.855
X6.58Y-4.76
X6.58Y-4.81
T3
X3.075Y-4.925
X3.125Y-4.925
X3.175Y-4.925
X3.225Y-4.925
X3.275Y-4.925
X3.325Y-4.925
X3.375Y-4.925
X3.425Y-4.925
X3.475Y-4.925
X3.525Y-4.925
X3.575Y-4.925
X3.625Y-4.925
X3.675Y-4.925
X3.725Y-4.925
X3.775Y-4.925
X3.825Y-4.925
X3.875Y-4.925
X3.925Y-4.925
X3.975Y-4.925
X4.025Y-4.925
X4.075Y-4.925
X4.125Y-4.925
X4.175Y-4.925
X4.225Y-4.925
X4.275Y-4.925
X4.325Y-4.925
X4.375Y-4.925
X4.425Y-4.925
X4.475Y-4.925
X4.525Y-4.925
X4.575Y-4.925
X4.625Y-4.925
X4.875Y-4.925
X4.925Y-4.925
X4.975Y-4.925
X5.025Y-4.925
X5.075Y-4.925
X5.125Y-4.925
X5.175Y-4.925
X5.225Y-4.925
X5.275Y-4.925
X5.325Y-4.925
X5.375Y-4.925
X5.425Y-4.925
X5.475Y-4.925
X5.525Y-4.925
X5.575Y-4.925
X5.625Y-4.925
X5.675Y-4.925
X5.725Y-4.925
X5.775Y-4.925
X5.825Y-4.925
X5.875Y-4.925
X5.925Y-4.925
X5.975Y-4.925
X6.025Y-4.925
X6.075Y-4.925
X6.125Y-4.925
X6.175Y-4.925
X6.225Y-4.925
X6.275Y-4.925
X6.325Y-4.925
X6.375Y-4.925
X6.425Y-4.925
T4
X2.89Y-4.09
X2.97Y-4.96
X6.61Y-4.09
X6.61Y-4.96
T0
M30
