G04 #@! TF.GenerationSoftware,KiCad,Pcbnew,(5.1.10-1-10_14)*
G04 #@! TF.CreationDate,2021-12-06T12:39:38-05:00*
G04 #@! TF.ProjectId,MacIIfxRAMSIMM,4d616349-4966-4785-9241-4d53494d4d2e,rev?*
G04 #@! TF.SameCoordinates,Original*
G04 #@! TF.FileFunction,Legend,Bot*
G04 #@! TF.FilePolarity,Positive*
%FSLAX46Y46*%
G04 Gerber Fmt 4.6, Leading zero omitted, Abs format (unit mm)*
G04 Created by KiCad (PCBNEW (5.1.10-1-10_14)) date 2021-12-06 12:39:38*
%MOMM*%
%LPD*%
G01*
G04 APERTURE LIST*
%ADD10C,0.203200*%
%ADD11C,0.300000*%
%ADD12C,0.225000*%
%ADD13C,0.175000*%
%ADD14C,2.150000*%
G04 APERTURE END LIST*
D10*
X105545466Y-116774685D02*
X105158419Y-116774685D01*
X105400323Y-117452019D02*
X105400323Y-116581161D01*
X105351942Y-116484400D01*
X105255180Y-116436019D01*
X105158419Y-116436019D01*
X104674609Y-117452019D02*
X104771371Y-117403638D01*
X104819752Y-117355257D01*
X104868133Y-117258495D01*
X104868133Y-116968209D01*
X104819752Y-116871447D01*
X104771371Y-116823066D01*
X104674609Y-116774685D01*
X104529466Y-116774685D01*
X104432704Y-116823066D01*
X104384323Y-116871447D01*
X104335942Y-116968209D01*
X104335942Y-117258495D01*
X104384323Y-117355257D01*
X104432704Y-117403638D01*
X104529466Y-117452019D01*
X104674609Y-117452019D01*
X103900514Y-117452019D02*
X103900514Y-116774685D01*
X103900514Y-116968209D02*
X103852133Y-116871447D01*
X103803752Y-116823066D01*
X103706990Y-116774685D01*
X103610228Y-116774685D01*
X102497466Y-117452019D02*
X102497466Y-116436019D01*
X102158800Y-117161733D01*
X101820133Y-116436019D01*
X101820133Y-117452019D01*
X100900895Y-117452019D02*
X100900895Y-116919828D01*
X100949276Y-116823066D01*
X101046038Y-116774685D01*
X101239561Y-116774685D01*
X101336323Y-116823066D01*
X100900895Y-117403638D02*
X100997657Y-117452019D01*
X101239561Y-117452019D01*
X101336323Y-117403638D01*
X101384704Y-117306876D01*
X101384704Y-117210114D01*
X101336323Y-117113352D01*
X101239561Y-117064971D01*
X100997657Y-117064971D01*
X100900895Y-117016590D01*
X99981657Y-117403638D02*
X100078419Y-117452019D01*
X100271942Y-117452019D01*
X100368704Y-117403638D01*
X100417085Y-117355257D01*
X100465466Y-117258495D01*
X100465466Y-116968209D01*
X100417085Y-116871447D01*
X100368704Y-116823066D01*
X100271942Y-116774685D01*
X100078419Y-116774685D01*
X99981657Y-116823066D01*
X98772133Y-117452019D02*
X98772133Y-116436019D01*
X98288323Y-117452019D02*
X98288323Y-116436019D01*
X97949657Y-116774685D02*
X97562609Y-116774685D01*
X97804514Y-117452019D02*
X97804514Y-116581161D01*
X97756133Y-116484400D01*
X97659371Y-116436019D01*
X97562609Y-116436019D01*
X97320704Y-117452019D02*
X96788514Y-116774685D01*
X97320704Y-116774685D02*
X96788514Y-117452019D01*
D11*
X148739142Y-116217000D02*
X148881999Y-116145571D01*
X149096285Y-116145571D01*
X149310571Y-116217000D01*
X149453428Y-116359857D01*
X149524856Y-116502714D01*
X149596285Y-116788428D01*
X149596285Y-117002714D01*
X149524856Y-117288428D01*
X149453428Y-117431285D01*
X149310571Y-117574142D01*
X149096285Y-117645571D01*
X148953428Y-117645571D01*
X148739142Y-117574142D01*
X148667714Y-117502714D01*
X148667714Y-117002714D01*
X148953428Y-117002714D01*
X148167714Y-116145571D02*
X147810571Y-117645571D01*
X147524856Y-116574142D01*
X147239142Y-117645571D01*
X146881999Y-116145571D01*
X145257286Y-116645571D02*
X145257286Y-117645571D01*
X145614428Y-116074142D02*
X145971571Y-117145571D01*
X145043000Y-117145571D01*
X143828714Y-116645571D02*
X143828714Y-117645571D01*
X144185857Y-116074142D02*
X144543000Y-117145571D01*
X143614428Y-117145571D01*
X142757286Y-116145571D02*
X142614428Y-116145571D01*
X142471571Y-116217000D01*
X142400143Y-116288428D01*
X142328714Y-116431285D01*
X142257286Y-116717000D01*
X142257286Y-117074142D01*
X142328714Y-117359857D01*
X142400143Y-117502714D01*
X142471571Y-117574142D01*
X142614428Y-117645571D01*
X142757286Y-117645571D01*
X142900143Y-117574142D01*
X142971571Y-117502714D01*
X143043000Y-117359857D01*
X143114428Y-117074142D01*
X143114428Y-116717000D01*
X143043000Y-116431285D01*
X142971571Y-116288428D01*
X142900143Y-116217000D01*
X142757286Y-116145571D01*
X141757286Y-116145571D02*
X140757286Y-116145571D01*
X141400143Y-117645571D01*
X140257286Y-117217000D02*
X139543000Y-117217000D01*
X140400143Y-117645571D02*
X139900143Y-116145571D01*
X139400143Y-117645571D01*
D12*
X154305000Y-113538000D02*
X154450142Y-113465428D01*
X154667857Y-113465428D01*
X154885571Y-113538000D01*
X155030714Y-113683142D01*
X155103285Y-113828285D01*
X155175857Y-114118571D01*
X155175857Y-114336285D01*
X155103285Y-114626571D01*
X155030714Y-114771714D01*
X154885571Y-114916857D01*
X154667857Y-114989428D01*
X154522714Y-114989428D01*
X154305000Y-114916857D01*
X154232428Y-114844285D01*
X154232428Y-114336285D01*
X154522714Y-114336285D01*
X152926142Y-114989428D02*
X152926142Y-114191142D01*
X152998714Y-114046000D01*
X153143857Y-113973428D01*
X153434142Y-113973428D01*
X153579285Y-114046000D01*
X152926142Y-114916857D02*
X153071285Y-114989428D01*
X153434142Y-114989428D01*
X153579285Y-114916857D01*
X153651857Y-114771714D01*
X153651857Y-114626571D01*
X153579285Y-114481428D01*
X153434142Y-114408857D01*
X153071285Y-114408857D01*
X152926142Y-114336285D01*
X152200428Y-114989428D02*
X152200428Y-113973428D01*
X152200428Y-114263714D02*
X152127857Y-114118571D01*
X152055285Y-114046000D01*
X151910142Y-113973428D01*
X151765000Y-113973428D01*
X151257000Y-114989428D02*
X151257000Y-113973428D01*
X151257000Y-114263714D02*
X151184428Y-114118571D01*
X151111857Y-114046000D01*
X150966714Y-113973428D01*
X150821571Y-113973428D01*
X149733000Y-114916857D02*
X149878142Y-114989428D01*
X150168428Y-114989428D01*
X150313571Y-114916857D01*
X150386142Y-114771714D01*
X150386142Y-114191142D01*
X150313571Y-114046000D01*
X150168428Y-113973428D01*
X149878142Y-113973428D01*
X149733000Y-114046000D01*
X149660428Y-114191142D01*
X149660428Y-114336285D01*
X150386142Y-114481428D01*
X149225000Y-113973428D02*
X148644428Y-113973428D01*
X149007285Y-113465428D02*
X149007285Y-114771714D01*
X148934714Y-114916857D01*
X148789571Y-114989428D01*
X148644428Y-114989428D01*
X148354142Y-113973428D02*
X147773571Y-113973428D01*
X148136428Y-113465428D02*
X148136428Y-114771714D01*
X148063857Y-114916857D01*
X147918714Y-114989428D01*
X147773571Y-114989428D01*
X147193000Y-113465428D02*
X147193000Y-113538000D01*
X147265571Y-113683142D01*
X147338142Y-113755714D01*
X146612428Y-114916857D02*
X146467285Y-114989428D01*
X146177000Y-114989428D01*
X146031857Y-114916857D01*
X145959285Y-114771714D01*
X145959285Y-114699142D01*
X146031857Y-114554000D01*
X146177000Y-114481428D01*
X146394714Y-114481428D01*
X146539857Y-114408857D01*
X146612428Y-114263714D01*
X146612428Y-114191142D01*
X146539857Y-114046000D01*
X146394714Y-113973428D01*
X146177000Y-113973428D01*
X146031857Y-114046000D01*
X144290142Y-113465428D02*
X143927285Y-114989428D01*
X143637000Y-113900857D01*
X143346714Y-114989428D01*
X142983857Y-113465428D01*
X142185571Y-114989428D02*
X142330714Y-114916857D01*
X142403285Y-114844285D01*
X142475857Y-114699142D01*
X142475857Y-114263714D01*
X142403285Y-114118571D01*
X142330714Y-114046000D01*
X142185571Y-113973428D01*
X141967857Y-113973428D01*
X141822714Y-114046000D01*
X141750142Y-114118571D01*
X141677571Y-114263714D01*
X141677571Y-114699142D01*
X141750142Y-114844285D01*
X141822714Y-114916857D01*
X141967857Y-114989428D01*
X142185571Y-114989428D01*
X141024428Y-114989428D02*
X141024428Y-113973428D01*
X141024428Y-114263714D02*
X140951857Y-114118571D01*
X140879285Y-114046000D01*
X140734142Y-113973428D01*
X140589000Y-113973428D01*
X140081000Y-114989428D02*
X140081000Y-113465428D01*
X139935857Y-114408857D02*
X139500428Y-114989428D01*
X139500428Y-113973428D02*
X140081000Y-114554000D01*
X138919857Y-114916857D02*
X138774714Y-114989428D01*
X138484428Y-114989428D01*
X138339285Y-114916857D01*
X138266714Y-114771714D01*
X138266714Y-114699142D01*
X138339285Y-114554000D01*
X138484428Y-114481428D01*
X138702142Y-114481428D01*
X138847285Y-114408857D01*
X138919857Y-114263714D01*
X138919857Y-114191142D01*
X138847285Y-114046000D01*
X138702142Y-113973428D01*
X138484428Y-113973428D01*
X138339285Y-114046000D01*
X137613571Y-114989428D02*
X137613571Y-113465428D01*
X136960428Y-114989428D02*
X136960428Y-114191142D01*
X137033000Y-114046000D01*
X137178142Y-113973428D01*
X137395857Y-113973428D01*
X137541000Y-114046000D01*
X137613571Y-114118571D01*
X136017000Y-114989428D02*
X136162142Y-114916857D01*
X136234714Y-114844285D01*
X136307285Y-114699142D01*
X136307285Y-114263714D01*
X136234714Y-114118571D01*
X136162142Y-114046000D01*
X136017000Y-113973428D01*
X135799285Y-113973428D01*
X135654142Y-114046000D01*
X135581571Y-114118571D01*
X135509000Y-114263714D01*
X135509000Y-114699142D01*
X135581571Y-114844285D01*
X135654142Y-114916857D01*
X135799285Y-114989428D01*
X136017000Y-114989428D01*
X134855857Y-113973428D02*
X134855857Y-115497428D01*
X134855857Y-114046000D02*
X134710714Y-113973428D01*
X134420428Y-113973428D01*
X134275285Y-114046000D01*
X134202714Y-114118571D01*
X134130142Y-114263714D01*
X134130142Y-114699142D01*
X134202714Y-114844285D01*
X134275285Y-114916857D01*
X134420428Y-114989428D01*
X134710714Y-114989428D01*
X134855857Y-114916857D01*
D11*
X110254142Y-115370428D02*
X111125000Y-115370428D01*
X110689571Y-115370428D02*
X110689571Y-113846428D01*
X110834714Y-114064142D01*
X110979857Y-114209285D01*
X111125000Y-114281857D01*
X108947857Y-113846428D02*
X109238142Y-113846428D01*
X109383285Y-113919000D01*
X109455857Y-113991571D01*
X109601000Y-114209285D01*
X109673571Y-114499571D01*
X109673571Y-115080142D01*
X109601000Y-115225285D01*
X109528428Y-115297857D01*
X109383285Y-115370428D01*
X109093000Y-115370428D01*
X108947857Y-115297857D01*
X108875285Y-115225285D01*
X108802714Y-115080142D01*
X108802714Y-114717285D01*
X108875285Y-114572142D01*
X108947857Y-114499571D01*
X109093000Y-114427000D01*
X109383285Y-114427000D01*
X109528428Y-114499571D01*
X109601000Y-114572142D01*
X109673571Y-114717285D01*
X106988428Y-115370428D02*
X106988428Y-113846428D01*
X106480428Y-114935000D01*
X105972428Y-113846428D01*
X105972428Y-115370428D01*
X104738714Y-114572142D02*
X104521000Y-114644714D01*
X104448428Y-114717285D01*
X104375857Y-114862428D01*
X104375857Y-115080142D01*
X104448428Y-115225285D01*
X104521000Y-115297857D01*
X104666142Y-115370428D01*
X105246714Y-115370428D01*
X105246714Y-113846428D01*
X104738714Y-113846428D01*
X104593571Y-113919000D01*
X104521000Y-113991571D01*
X104448428Y-114136714D01*
X104448428Y-114281857D01*
X104521000Y-114427000D01*
X104593571Y-114499571D01*
X104738714Y-114572142D01*
X105246714Y-114572142D01*
X101690714Y-115370428D02*
X102198714Y-114644714D01*
X102561571Y-115370428D02*
X102561571Y-113846428D01*
X101981000Y-113846428D01*
X101835857Y-113919000D01*
X101763285Y-113991571D01*
X101690714Y-114136714D01*
X101690714Y-114354428D01*
X101763285Y-114499571D01*
X101835857Y-114572142D01*
X101981000Y-114644714D01*
X102561571Y-114644714D01*
X101110142Y-114935000D02*
X100384428Y-114935000D01*
X101255285Y-115370428D02*
X100747285Y-113846428D01*
X100239285Y-115370428D01*
X99731285Y-115370428D02*
X99731285Y-113846428D01*
X99223285Y-114935000D01*
X98715285Y-113846428D01*
X98715285Y-115370428D01*
X96901000Y-115297857D02*
X96683285Y-115370428D01*
X96320428Y-115370428D01*
X96175285Y-115297857D01*
X96102714Y-115225285D01*
X96030142Y-115080142D01*
X96030142Y-114935000D01*
X96102714Y-114789857D01*
X96175285Y-114717285D01*
X96320428Y-114644714D01*
X96610714Y-114572142D01*
X96755857Y-114499571D01*
X96828428Y-114427000D01*
X96901000Y-114281857D01*
X96901000Y-114136714D01*
X96828428Y-113991571D01*
X96755857Y-113919000D01*
X96610714Y-113846428D01*
X96247857Y-113846428D01*
X96030142Y-113919000D01*
X95377000Y-115370428D02*
X95377000Y-113846428D01*
X94651285Y-115370428D02*
X94651285Y-113846428D01*
X94143285Y-114935000D01*
X93635285Y-113846428D01*
X93635285Y-115370428D01*
X92909571Y-115370428D02*
X92909571Y-113846428D01*
X92401571Y-114935000D01*
X91893571Y-113846428D01*
X91893571Y-115370428D01*
D10*
X166224857Y-124446695D02*
X165682990Y-124446695D01*
X166224857Y-125259495D01*
X165682990Y-125259495D01*
X165373352Y-125259495D02*
X165373352Y-124446695D01*
X164908895Y-125259495D02*
X165257238Y-124795038D01*
X164908895Y-124446695D02*
X165373352Y-124911152D01*
X164521847Y-125220790D02*
X164521847Y-125259495D01*
X164560552Y-125336904D01*
X164599257Y-125375609D01*
X165489466Y-125907800D02*
X165566876Y-125869095D01*
X165682990Y-125869095D01*
X165799104Y-125907800D01*
X165876514Y-125985209D01*
X165915219Y-126062619D01*
X165953923Y-126217438D01*
X165953923Y-126333552D01*
X165915219Y-126488371D01*
X165876514Y-126565780D01*
X165799104Y-126643190D01*
X165682990Y-126681895D01*
X165605580Y-126681895D01*
X165489466Y-126643190D01*
X165450761Y-126604485D01*
X165450761Y-126333552D01*
X165605580Y-126333552D01*
X164831485Y-126256142D02*
X165102419Y-126256142D01*
X165102419Y-126681895D02*
X165102419Y-125869095D01*
X164715371Y-125869095D01*
%LPC*%
D13*
G36*
X117475000Y-127635000D02*
G01*
X78105000Y-127635000D01*
X77597000Y-125031500D01*
X117983000Y-125031500D01*
X117475000Y-127635000D01*
G37*
X117475000Y-127635000D02*
X78105000Y-127635000D01*
X77597000Y-125031500D01*
X117983000Y-125031500D01*
X117475000Y-127635000D01*
G36*
X163195000Y-127635000D02*
G01*
X123825000Y-127635000D01*
X123317000Y-125031500D01*
X163703000Y-125031500D01*
X163195000Y-127635000D01*
G37*
X163195000Y-127635000D02*
X123825000Y-127635000D01*
X123317000Y-125031500D01*
X163703000Y-125031500D01*
X163195000Y-127635000D01*
G36*
G01*
X77509300Y-127233440D02*
X77509300Y-124988560D01*
G75*
G02*
X77985860Y-124512000I476560J0D01*
G01*
X78224140Y-124512000D01*
G75*
G02*
X78700700Y-124988560I0J-476560D01*
G01*
X78700700Y-127233440D01*
G75*
G02*
X78224140Y-127710000I-476560J0D01*
G01*
X77985860Y-127710000D01*
G75*
G02*
X77509300Y-127233440I0J476560D01*
G01*
G37*
G36*
G01*
X78779300Y-127233440D02*
X78779300Y-124988560D01*
G75*
G02*
X79255860Y-124512000I476560J0D01*
G01*
X79494140Y-124512000D01*
G75*
G02*
X79970700Y-124988560I0J-476560D01*
G01*
X79970700Y-127233440D01*
G75*
G02*
X79494140Y-127710000I-476560J0D01*
G01*
X79255860Y-127710000D01*
G75*
G02*
X78779300Y-127233440I0J476560D01*
G01*
G37*
G36*
G01*
X80049300Y-127233440D02*
X80049300Y-124988560D01*
G75*
G02*
X80525860Y-124512000I476560J0D01*
G01*
X80764140Y-124512000D01*
G75*
G02*
X81240700Y-124988560I0J-476560D01*
G01*
X81240700Y-127233440D01*
G75*
G02*
X80764140Y-127710000I-476560J0D01*
G01*
X80525860Y-127710000D01*
G75*
G02*
X80049300Y-127233440I0J476560D01*
G01*
G37*
G36*
G01*
X81319300Y-127233440D02*
X81319300Y-124988560D01*
G75*
G02*
X81795860Y-124512000I476560J0D01*
G01*
X82034140Y-124512000D01*
G75*
G02*
X82510700Y-124988560I0J-476560D01*
G01*
X82510700Y-127233440D01*
G75*
G02*
X82034140Y-127710000I-476560J0D01*
G01*
X81795860Y-127710000D01*
G75*
G02*
X81319300Y-127233440I0J476560D01*
G01*
G37*
G36*
G01*
X82589300Y-127233440D02*
X82589300Y-124988560D01*
G75*
G02*
X83065860Y-124512000I476560J0D01*
G01*
X83304140Y-124512000D01*
G75*
G02*
X83780700Y-124988560I0J-476560D01*
G01*
X83780700Y-127233440D01*
G75*
G02*
X83304140Y-127710000I-476560J0D01*
G01*
X83065860Y-127710000D01*
G75*
G02*
X82589300Y-127233440I0J476560D01*
G01*
G37*
G36*
G01*
X83859300Y-127233440D02*
X83859300Y-124988560D01*
G75*
G02*
X84335860Y-124512000I476560J0D01*
G01*
X84574140Y-124512000D01*
G75*
G02*
X85050700Y-124988560I0J-476560D01*
G01*
X85050700Y-127233440D01*
G75*
G02*
X84574140Y-127710000I-476560J0D01*
G01*
X84335860Y-127710000D01*
G75*
G02*
X83859300Y-127233440I0J476560D01*
G01*
G37*
G36*
G01*
X85129300Y-127233440D02*
X85129300Y-124988560D01*
G75*
G02*
X85605860Y-124512000I476560J0D01*
G01*
X85844140Y-124512000D01*
G75*
G02*
X86320700Y-124988560I0J-476560D01*
G01*
X86320700Y-127233440D01*
G75*
G02*
X85844140Y-127710000I-476560J0D01*
G01*
X85605860Y-127710000D01*
G75*
G02*
X85129300Y-127233440I0J476560D01*
G01*
G37*
G36*
G01*
X86399300Y-127233440D02*
X86399300Y-124988560D01*
G75*
G02*
X86875860Y-124512000I476560J0D01*
G01*
X87114140Y-124512000D01*
G75*
G02*
X87590700Y-124988560I0J-476560D01*
G01*
X87590700Y-127233440D01*
G75*
G02*
X87114140Y-127710000I-476560J0D01*
G01*
X86875860Y-127710000D01*
G75*
G02*
X86399300Y-127233440I0J476560D01*
G01*
G37*
G36*
G01*
X87669300Y-127233440D02*
X87669300Y-124988560D01*
G75*
G02*
X88145860Y-124512000I476560J0D01*
G01*
X88384140Y-124512000D01*
G75*
G02*
X88860700Y-124988560I0J-476560D01*
G01*
X88860700Y-127233440D01*
G75*
G02*
X88384140Y-127710000I-476560J0D01*
G01*
X88145860Y-127710000D01*
G75*
G02*
X87669300Y-127233440I0J476560D01*
G01*
G37*
G36*
G01*
X88939300Y-127233440D02*
X88939300Y-124988560D01*
G75*
G02*
X89415860Y-124512000I476560J0D01*
G01*
X89654140Y-124512000D01*
G75*
G02*
X90130700Y-124988560I0J-476560D01*
G01*
X90130700Y-127233440D01*
G75*
G02*
X89654140Y-127710000I-476560J0D01*
G01*
X89415860Y-127710000D01*
G75*
G02*
X88939300Y-127233440I0J476560D01*
G01*
G37*
G36*
G01*
X90209300Y-127233440D02*
X90209300Y-124988560D01*
G75*
G02*
X90685860Y-124512000I476560J0D01*
G01*
X90924140Y-124512000D01*
G75*
G02*
X91400700Y-124988560I0J-476560D01*
G01*
X91400700Y-127233440D01*
G75*
G02*
X90924140Y-127710000I-476560J0D01*
G01*
X90685860Y-127710000D01*
G75*
G02*
X90209300Y-127233440I0J476560D01*
G01*
G37*
G36*
G01*
X91479300Y-127233440D02*
X91479300Y-124988560D01*
G75*
G02*
X91955860Y-124512000I476560J0D01*
G01*
X92194140Y-124512000D01*
G75*
G02*
X92670700Y-124988560I0J-476560D01*
G01*
X92670700Y-127233440D01*
G75*
G02*
X92194140Y-127710000I-476560J0D01*
G01*
X91955860Y-127710000D01*
G75*
G02*
X91479300Y-127233440I0J476560D01*
G01*
G37*
G36*
G01*
X92749300Y-127233440D02*
X92749300Y-124988560D01*
G75*
G02*
X93225860Y-124512000I476560J0D01*
G01*
X93464140Y-124512000D01*
G75*
G02*
X93940700Y-124988560I0J-476560D01*
G01*
X93940700Y-127233440D01*
G75*
G02*
X93464140Y-127710000I-476560J0D01*
G01*
X93225860Y-127710000D01*
G75*
G02*
X92749300Y-127233440I0J476560D01*
G01*
G37*
G36*
G01*
X94019300Y-127233440D02*
X94019300Y-124988560D01*
G75*
G02*
X94495860Y-124512000I476560J0D01*
G01*
X94734140Y-124512000D01*
G75*
G02*
X95210700Y-124988560I0J-476560D01*
G01*
X95210700Y-127233440D01*
G75*
G02*
X94734140Y-127710000I-476560J0D01*
G01*
X94495860Y-127710000D01*
G75*
G02*
X94019300Y-127233440I0J476560D01*
G01*
G37*
G36*
G01*
X95289300Y-127233440D02*
X95289300Y-124988560D01*
G75*
G02*
X95765860Y-124512000I476560J0D01*
G01*
X96004140Y-124512000D01*
G75*
G02*
X96480700Y-124988560I0J-476560D01*
G01*
X96480700Y-127233440D01*
G75*
G02*
X96004140Y-127710000I-476560J0D01*
G01*
X95765860Y-127710000D01*
G75*
G02*
X95289300Y-127233440I0J476560D01*
G01*
G37*
G36*
G01*
X96559300Y-127233440D02*
X96559300Y-124988560D01*
G75*
G02*
X97035860Y-124512000I476560J0D01*
G01*
X97274140Y-124512000D01*
G75*
G02*
X97750700Y-124988560I0J-476560D01*
G01*
X97750700Y-127233440D01*
G75*
G02*
X97274140Y-127710000I-476560J0D01*
G01*
X97035860Y-127710000D01*
G75*
G02*
X96559300Y-127233440I0J476560D01*
G01*
G37*
G36*
G01*
X97829300Y-127233440D02*
X97829300Y-124988560D01*
G75*
G02*
X98305860Y-124512000I476560J0D01*
G01*
X98544140Y-124512000D01*
G75*
G02*
X99020700Y-124988560I0J-476560D01*
G01*
X99020700Y-127233440D01*
G75*
G02*
X98544140Y-127710000I-476560J0D01*
G01*
X98305860Y-127710000D01*
G75*
G02*
X97829300Y-127233440I0J476560D01*
G01*
G37*
G36*
G01*
X99099300Y-127233440D02*
X99099300Y-124988560D01*
G75*
G02*
X99575860Y-124512000I476560J0D01*
G01*
X99814140Y-124512000D01*
G75*
G02*
X100290700Y-124988560I0J-476560D01*
G01*
X100290700Y-127233440D01*
G75*
G02*
X99814140Y-127710000I-476560J0D01*
G01*
X99575860Y-127710000D01*
G75*
G02*
X99099300Y-127233440I0J476560D01*
G01*
G37*
G36*
G01*
X100369300Y-127233440D02*
X100369300Y-124988560D01*
G75*
G02*
X100845860Y-124512000I476560J0D01*
G01*
X101084140Y-124512000D01*
G75*
G02*
X101560700Y-124988560I0J-476560D01*
G01*
X101560700Y-127233440D01*
G75*
G02*
X101084140Y-127710000I-476560J0D01*
G01*
X100845860Y-127710000D01*
G75*
G02*
X100369300Y-127233440I0J476560D01*
G01*
G37*
G36*
G01*
X101639300Y-127233440D02*
X101639300Y-124988560D01*
G75*
G02*
X102115860Y-124512000I476560J0D01*
G01*
X102354140Y-124512000D01*
G75*
G02*
X102830700Y-124988560I0J-476560D01*
G01*
X102830700Y-127233440D01*
G75*
G02*
X102354140Y-127710000I-476560J0D01*
G01*
X102115860Y-127710000D01*
G75*
G02*
X101639300Y-127233440I0J476560D01*
G01*
G37*
G36*
G01*
X102909300Y-127233440D02*
X102909300Y-124988560D01*
G75*
G02*
X103385860Y-124512000I476560J0D01*
G01*
X103624140Y-124512000D01*
G75*
G02*
X104100700Y-124988560I0J-476560D01*
G01*
X104100700Y-127233440D01*
G75*
G02*
X103624140Y-127710000I-476560J0D01*
G01*
X103385860Y-127710000D01*
G75*
G02*
X102909300Y-127233440I0J476560D01*
G01*
G37*
G36*
G01*
X104179300Y-127233440D02*
X104179300Y-124988560D01*
G75*
G02*
X104655860Y-124512000I476560J0D01*
G01*
X104894140Y-124512000D01*
G75*
G02*
X105370700Y-124988560I0J-476560D01*
G01*
X105370700Y-127233440D01*
G75*
G02*
X104894140Y-127710000I-476560J0D01*
G01*
X104655860Y-127710000D01*
G75*
G02*
X104179300Y-127233440I0J476560D01*
G01*
G37*
G36*
G01*
X105449300Y-127233440D02*
X105449300Y-124988560D01*
G75*
G02*
X105925860Y-124512000I476560J0D01*
G01*
X106164140Y-124512000D01*
G75*
G02*
X106640700Y-124988560I0J-476560D01*
G01*
X106640700Y-127233440D01*
G75*
G02*
X106164140Y-127710000I-476560J0D01*
G01*
X105925860Y-127710000D01*
G75*
G02*
X105449300Y-127233440I0J476560D01*
G01*
G37*
G36*
G01*
X106719300Y-127233440D02*
X106719300Y-124988560D01*
G75*
G02*
X107195860Y-124512000I476560J0D01*
G01*
X107434140Y-124512000D01*
G75*
G02*
X107910700Y-124988560I0J-476560D01*
G01*
X107910700Y-127233440D01*
G75*
G02*
X107434140Y-127710000I-476560J0D01*
G01*
X107195860Y-127710000D01*
G75*
G02*
X106719300Y-127233440I0J476560D01*
G01*
G37*
G36*
G01*
X107989300Y-127233440D02*
X107989300Y-124988560D01*
G75*
G02*
X108465860Y-124512000I476560J0D01*
G01*
X108704140Y-124512000D01*
G75*
G02*
X109180700Y-124988560I0J-476560D01*
G01*
X109180700Y-127233440D01*
G75*
G02*
X108704140Y-127710000I-476560J0D01*
G01*
X108465860Y-127710000D01*
G75*
G02*
X107989300Y-127233440I0J476560D01*
G01*
G37*
G36*
G01*
X109259300Y-127233440D02*
X109259300Y-124988560D01*
G75*
G02*
X109735860Y-124512000I476560J0D01*
G01*
X109974140Y-124512000D01*
G75*
G02*
X110450700Y-124988560I0J-476560D01*
G01*
X110450700Y-127233440D01*
G75*
G02*
X109974140Y-127710000I-476560J0D01*
G01*
X109735860Y-127710000D01*
G75*
G02*
X109259300Y-127233440I0J476560D01*
G01*
G37*
G36*
G01*
X110529300Y-127233440D02*
X110529300Y-124988560D01*
G75*
G02*
X111005860Y-124512000I476560J0D01*
G01*
X111244140Y-124512000D01*
G75*
G02*
X111720700Y-124988560I0J-476560D01*
G01*
X111720700Y-127233440D01*
G75*
G02*
X111244140Y-127710000I-476560J0D01*
G01*
X111005860Y-127710000D01*
G75*
G02*
X110529300Y-127233440I0J476560D01*
G01*
G37*
G36*
G01*
X111799300Y-127233440D02*
X111799300Y-124988560D01*
G75*
G02*
X112275860Y-124512000I476560J0D01*
G01*
X112514140Y-124512000D01*
G75*
G02*
X112990700Y-124988560I0J-476560D01*
G01*
X112990700Y-127233440D01*
G75*
G02*
X112514140Y-127710000I-476560J0D01*
G01*
X112275860Y-127710000D01*
G75*
G02*
X111799300Y-127233440I0J476560D01*
G01*
G37*
G36*
G01*
X113069300Y-127233440D02*
X113069300Y-124988560D01*
G75*
G02*
X113545860Y-124512000I476560J0D01*
G01*
X113784140Y-124512000D01*
G75*
G02*
X114260700Y-124988560I0J-476560D01*
G01*
X114260700Y-127233440D01*
G75*
G02*
X113784140Y-127710000I-476560J0D01*
G01*
X113545860Y-127710000D01*
G75*
G02*
X113069300Y-127233440I0J476560D01*
G01*
G37*
G36*
G01*
X114339300Y-127233440D02*
X114339300Y-124988560D01*
G75*
G02*
X114815860Y-124512000I476560J0D01*
G01*
X115054140Y-124512000D01*
G75*
G02*
X115530700Y-124988560I0J-476560D01*
G01*
X115530700Y-127233440D01*
G75*
G02*
X115054140Y-127710000I-476560J0D01*
G01*
X114815860Y-127710000D01*
G75*
G02*
X114339300Y-127233440I0J476560D01*
G01*
G37*
G36*
G01*
X115609300Y-127233440D02*
X115609300Y-124988560D01*
G75*
G02*
X116085860Y-124512000I476560J0D01*
G01*
X116324140Y-124512000D01*
G75*
G02*
X116800700Y-124988560I0J-476560D01*
G01*
X116800700Y-127233440D01*
G75*
G02*
X116324140Y-127710000I-476560J0D01*
G01*
X116085860Y-127710000D01*
G75*
G02*
X115609300Y-127233440I0J476560D01*
G01*
G37*
G36*
G01*
X116879300Y-127233440D02*
X116879300Y-124988560D01*
G75*
G02*
X117355860Y-124512000I476560J0D01*
G01*
X117594140Y-124512000D01*
G75*
G02*
X118070700Y-124988560I0J-476560D01*
G01*
X118070700Y-127233440D01*
G75*
G02*
X117594140Y-127710000I-476560J0D01*
G01*
X117355860Y-127710000D01*
G75*
G02*
X116879300Y-127233440I0J476560D01*
G01*
G37*
G36*
G01*
X123229300Y-127233440D02*
X123229300Y-124988560D01*
G75*
G02*
X123705860Y-124512000I476560J0D01*
G01*
X123944140Y-124512000D01*
G75*
G02*
X124420700Y-124988560I0J-476560D01*
G01*
X124420700Y-127233440D01*
G75*
G02*
X123944140Y-127710000I-476560J0D01*
G01*
X123705860Y-127710000D01*
G75*
G02*
X123229300Y-127233440I0J476560D01*
G01*
G37*
G36*
G01*
X124499300Y-127233440D02*
X124499300Y-124988560D01*
G75*
G02*
X124975860Y-124512000I476560J0D01*
G01*
X125214140Y-124512000D01*
G75*
G02*
X125690700Y-124988560I0J-476560D01*
G01*
X125690700Y-127233440D01*
G75*
G02*
X125214140Y-127710000I-476560J0D01*
G01*
X124975860Y-127710000D01*
G75*
G02*
X124499300Y-127233440I0J476560D01*
G01*
G37*
G36*
G01*
X125769300Y-127233440D02*
X125769300Y-124988560D01*
G75*
G02*
X126245860Y-124512000I476560J0D01*
G01*
X126484140Y-124512000D01*
G75*
G02*
X126960700Y-124988560I0J-476560D01*
G01*
X126960700Y-127233440D01*
G75*
G02*
X126484140Y-127710000I-476560J0D01*
G01*
X126245860Y-127710000D01*
G75*
G02*
X125769300Y-127233440I0J476560D01*
G01*
G37*
G36*
G01*
X127039300Y-127233440D02*
X127039300Y-124988560D01*
G75*
G02*
X127515860Y-124512000I476560J0D01*
G01*
X127754140Y-124512000D01*
G75*
G02*
X128230700Y-124988560I0J-476560D01*
G01*
X128230700Y-127233440D01*
G75*
G02*
X127754140Y-127710000I-476560J0D01*
G01*
X127515860Y-127710000D01*
G75*
G02*
X127039300Y-127233440I0J476560D01*
G01*
G37*
G36*
G01*
X128309300Y-127233440D02*
X128309300Y-124988560D01*
G75*
G02*
X128785860Y-124512000I476560J0D01*
G01*
X129024140Y-124512000D01*
G75*
G02*
X129500700Y-124988560I0J-476560D01*
G01*
X129500700Y-127233440D01*
G75*
G02*
X129024140Y-127710000I-476560J0D01*
G01*
X128785860Y-127710000D01*
G75*
G02*
X128309300Y-127233440I0J476560D01*
G01*
G37*
G36*
G01*
X129579300Y-127233440D02*
X129579300Y-124988560D01*
G75*
G02*
X130055860Y-124512000I476560J0D01*
G01*
X130294140Y-124512000D01*
G75*
G02*
X130770700Y-124988560I0J-476560D01*
G01*
X130770700Y-127233440D01*
G75*
G02*
X130294140Y-127710000I-476560J0D01*
G01*
X130055860Y-127710000D01*
G75*
G02*
X129579300Y-127233440I0J476560D01*
G01*
G37*
G36*
G01*
X130849300Y-127233440D02*
X130849300Y-124988560D01*
G75*
G02*
X131325860Y-124512000I476560J0D01*
G01*
X131564140Y-124512000D01*
G75*
G02*
X132040700Y-124988560I0J-476560D01*
G01*
X132040700Y-127233440D01*
G75*
G02*
X131564140Y-127710000I-476560J0D01*
G01*
X131325860Y-127710000D01*
G75*
G02*
X130849300Y-127233440I0J476560D01*
G01*
G37*
G36*
G01*
X132119300Y-127233440D02*
X132119300Y-124988560D01*
G75*
G02*
X132595860Y-124512000I476560J0D01*
G01*
X132834140Y-124512000D01*
G75*
G02*
X133310700Y-124988560I0J-476560D01*
G01*
X133310700Y-127233440D01*
G75*
G02*
X132834140Y-127710000I-476560J0D01*
G01*
X132595860Y-127710000D01*
G75*
G02*
X132119300Y-127233440I0J476560D01*
G01*
G37*
G36*
G01*
X133389300Y-127233440D02*
X133389300Y-124988560D01*
G75*
G02*
X133865860Y-124512000I476560J0D01*
G01*
X134104140Y-124512000D01*
G75*
G02*
X134580700Y-124988560I0J-476560D01*
G01*
X134580700Y-127233440D01*
G75*
G02*
X134104140Y-127710000I-476560J0D01*
G01*
X133865860Y-127710000D01*
G75*
G02*
X133389300Y-127233440I0J476560D01*
G01*
G37*
G36*
G01*
X134659300Y-127233440D02*
X134659300Y-124988560D01*
G75*
G02*
X135135860Y-124512000I476560J0D01*
G01*
X135374140Y-124512000D01*
G75*
G02*
X135850700Y-124988560I0J-476560D01*
G01*
X135850700Y-127233440D01*
G75*
G02*
X135374140Y-127710000I-476560J0D01*
G01*
X135135860Y-127710000D01*
G75*
G02*
X134659300Y-127233440I0J476560D01*
G01*
G37*
G36*
G01*
X135929300Y-127233440D02*
X135929300Y-124988560D01*
G75*
G02*
X136405860Y-124512000I476560J0D01*
G01*
X136644140Y-124512000D01*
G75*
G02*
X137120700Y-124988560I0J-476560D01*
G01*
X137120700Y-127233440D01*
G75*
G02*
X136644140Y-127710000I-476560J0D01*
G01*
X136405860Y-127710000D01*
G75*
G02*
X135929300Y-127233440I0J476560D01*
G01*
G37*
G36*
G01*
X137199300Y-127233440D02*
X137199300Y-124988560D01*
G75*
G02*
X137675860Y-124512000I476560J0D01*
G01*
X137914140Y-124512000D01*
G75*
G02*
X138390700Y-124988560I0J-476560D01*
G01*
X138390700Y-127233440D01*
G75*
G02*
X137914140Y-127710000I-476560J0D01*
G01*
X137675860Y-127710000D01*
G75*
G02*
X137199300Y-127233440I0J476560D01*
G01*
G37*
G36*
G01*
X138469300Y-127233440D02*
X138469300Y-124988560D01*
G75*
G02*
X138945860Y-124512000I476560J0D01*
G01*
X139184140Y-124512000D01*
G75*
G02*
X139660700Y-124988560I0J-476560D01*
G01*
X139660700Y-127233440D01*
G75*
G02*
X139184140Y-127710000I-476560J0D01*
G01*
X138945860Y-127710000D01*
G75*
G02*
X138469300Y-127233440I0J476560D01*
G01*
G37*
G36*
G01*
X139739300Y-127233440D02*
X139739300Y-124988560D01*
G75*
G02*
X140215860Y-124512000I476560J0D01*
G01*
X140454140Y-124512000D01*
G75*
G02*
X140930700Y-124988560I0J-476560D01*
G01*
X140930700Y-127233440D01*
G75*
G02*
X140454140Y-127710000I-476560J0D01*
G01*
X140215860Y-127710000D01*
G75*
G02*
X139739300Y-127233440I0J476560D01*
G01*
G37*
G36*
G01*
X141009300Y-127233440D02*
X141009300Y-124988560D01*
G75*
G02*
X141485860Y-124512000I476560J0D01*
G01*
X141724140Y-124512000D01*
G75*
G02*
X142200700Y-124988560I0J-476560D01*
G01*
X142200700Y-127233440D01*
G75*
G02*
X141724140Y-127710000I-476560J0D01*
G01*
X141485860Y-127710000D01*
G75*
G02*
X141009300Y-127233440I0J476560D01*
G01*
G37*
G36*
G01*
X142279300Y-127233440D02*
X142279300Y-124988560D01*
G75*
G02*
X142755860Y-124512000I476560J0D01*
G01*
X142994140Y-124512000D01*
G75*
G02*
X143470700Y-124988560I0J-476560D01*
G01*
X143470700Y-127233440D01*
G75*
G02*
X142994140Y-127710000I-476560J0D01*
G01*
X142755860Y-127710000D01*
G75*
G02*
X142279300Y-127233440I0J476560D01*
G01*
G37*
G36*
G01*
X143549300Y-127233440D02*
X143549300Y-124988560D01*
G75*
G02*
X144025860Y-124512000I476560J0D01*
G01*
X144264140Y-124512000D01*
G75*
G02*
X144740700Y-124988560I0J-476560D01*
G01*
X144740700Y-127233440D01*
G75*
G02*
X144264140Y-127710000I-476560J0D01*
G01*
X144025860Y-127710000D01*
G75*
G02*
X143549300Y-127233440I0J476560D01*
G01*
G37*
G36*
G01*
X144819300Y-127233440D02*
X144819300Y-124988560D01*
G75*
G02*
X145295860Y-124512000I476560J0D01*
G01*
X145534140Y-124512000D01*
G75*
G02*
X146010700Y-124988560I0J-476560D01*
G01*
X146010700Y-127233440D01*
G75*
G02*
X145534140Y-127710000I-476560J0D01*
G01*
X145295860Y-127710000D01*
G75*
G02*
X144819300Y-127233440I0J476560D01*
G01*
G37*
G36*
G01*
X146089300Y-127233440D02*
X146089300Y-124988560D01*
G75*
G02*
X146565860Y-124512000I476560J0D01*
G01*
X146804140Y-124512000D01*
G75*
G02*
X147280700Y-124988560I0J-476560D01*
G01*
X147280700Y-127233440D01*
G75*
G02*
X146804140Y-127710000I-476560J0D01*
G01*
X146565860Y-127710000D01*
G75*
G02*
X146089300Y-127233440I0J476560D01*
G01*
G37*
G36*
G01*
X147359300Y-127233440D02*
X147359300Y-124988560D01*
G75*
G02*
X147835860Y-124512000I476560J0D01*
G01*
X148074140Y-124512000D01*
G75*
G02*
X148550700Y-124988560I0J-476560D01*
G01*
X148550700Y-127233440D01*
G75*
G02*
X148074140Y-127710000I-476560J0D01*
G01*
X147835860Y-127710000D01*
G75*
G02*
X147359300Y-127233440I0J476560D01*
G01*
G37*
G36*
G01*
X148629300Y-127233440D02*
X148629300Y-124988560D01*
G75*
G02*
X149105860Y-124512000I476560J0D01*
G01*
X149344140Y-124512000D01*
G75*
G02*
X149820700Y-124988560I0J-476560D01*
G01*
X149820700Y-127233440D01*
G75*
G02*
X149344140Y-127710000I-476560J0D01*
G01*
X149105860Y-127710000D01*
G75*
G02*
X148629300Y-127233440I0J476560D01*
G01*
G37*
G36*
G01*
X149899300Y-127233440D02*
X149899300Y-124988560D01*
G75*
G02*
X150375860Y-124512000I476560J0D01*
G01*
X150614140Y-124512000D01*
G75*
G02*
X151090700Y-124988560I0J-476560D01*
G01*
X151090700Y-127233440D01*
G75*
G02*
X150614140Y-127710000I-476560J0D01*
G01*
X150375860Y-127710000D01*
G75*
G02*
X149899300Y-127233440I0J476560D01*
G01*
G37*
G36*
G01*
X151169300Y-127233440D02*
X151169300Y-124988560D01*
G75*
G02*
X151645860Y-124512000I476560J0D01*
G01*
X151884140Y-124512000D01*
G75*
G02*
X152360700Y-124988560I0J-476560D01*
G01*
X152360700Y-127233440D01*
G75*
G02*
X151884140Y-127710000I-476560J0D01*
G01*
X151645860Y-127710000D01*
G75*
G02*
X151169300Y-127233440I0J476560D01*
G01*
G37*
G36*
G01*
X152439300Y-127233440D02*
X152439300Y-124988560D01*
G75*
G02*
X152915860Y-124512000I476560J0D01*
G01*
X153154140Y-124512000D01*
G75*
G02*
X153630700Y-124988560I0J-476560D01*
G01*
X153630700Y-127233440D01*
G75*
G02*
X153154140Y-127710000I-476560J0D01*
G01*
X152915860Y-127710000D01*
G75*
G02*
X152439300Y-127233440I0J476560D01*
G01*
G37*
G36*
G01*
X153709300Y-127233440D02*
X153709300Y-124988560D01*
G75*
G02*
X154185860Y-124512000I476560J0D01*
G01*
X154424140Y-124512000D01*
G75*
G02*
X154900700Y-124988560I0J-476560D01*
G01*
X154900700Y-127233440D01*
G75*
G02*
X154424140Y-127710000I-476560J0D01*
G01*
X154185860Y-127710000D01*
G75*
G02*
X153709300Y-127233440I0J476560D01*
G01*
G37*
G36*
G01*
X154979300Y-127233440D02*
X154979300Y-124988560D01*
G75*
G02*
X155455860Y-124512000I476560J0D01*
G01*
X155694140Y-124512000D01*
G75*
G02*
X156170700Y-124988560I0J-476560D01*
G01*
X156170700Y-127233440D01*
G75*
G02*
X155694140Y-127710000I-476560J0D01*
G01*
X155455860Y-127710000D01*
G75*
G02*
X154979300Y-127233440I0J476560D01*
G01*
G37*
G36*
G01*
X156249300Y-127233440D02*
X156249300Y-124988560D01*
G75*
G02*
X156725860Y-124512000I476560J0D01*
G01*
X156964140Y-124512000D01*
G75*
G02*
X157440700Y-124988560I0J-476560D01*
G01*
X157440700Y-127233440D01*
G75*
G02*
X156964140Y-127710000I-476560J0D01*
G01*
X156725860Y-127710000D01*
G75*
G02*
X156249300Y-127233440I0J476560D01*
G01*
G37*
G36*
G01*
X157519300Y-127233440D02*
X157519300Y-124988560D01*
G75*
G02*
X157995860Y-124512000I476560J0D01*
G01*
X158234140Y-124512000D01*
G75*
G02*
X158710700Y-124988560I0J-476560D01*
G01*
X158710700Y-127233440D01*
G75*
G02*
X158234140Y-127710000I-476560J0D01*
G01*
X157995860Y-127710000D01*
G75*
G02*
X157519300Y-127233440I0J476560D01*
G01*
G37*
G36*
G01*
X158789300Y-127233440D02*
X158789300Y-124988560D01*
G75*
G02*
X159265860Y-124512000I476560J0D01*
G01*
X159504140Y-124512000D01*
G75*
G02*
X159980700Y-124988560I0J-476560D01*
G01*
X159980700Y-127233440D01*
G75*
G02*
X159504140Y-127710000I-476560J0D01*
G01*
X159265860Y-127710000D01*
G75*
G02*
X158789300Y-127233440I0J476560D01*
G01*
G37*
G36*
G01*
X160059300Y-127233440D02*
X160059300Y-124988560D01*
G75*
G02*
X160535860Y-124512000I476560J0D01*
G01*
X160774140Y-124512000D01*
G75*
G02*
X161250700Y-124988560I0J-476560D01*
G01*
X161250700Y-127233440D01*
G75*
G02*
X160774140Y-127710000I-476560J0D01*
G01*
X160535860Y-127710000D01*
G75*
G02*
X160059300Y-127233440I0J476560D01*
G01*
G37*
G36*
G01*
X161329300Y-127233440D02*
X161329300Y-124988560D01*
G75*
G02*
X161805860Y-124512000I476560J0D01*
G01*
X162044140Y-124512000D01*
G75*
G02*
X162520700Y-124988560I0J-476560D01*
G01*
X162520700Y-127233440D01*
G75*
G02*
X162044140Y-127710000I-476560J0D01*
G01*
X161805860Y-127710000D01*
G75*
G02*
X161329300Y-127233440I0J476560D01*
G01*
G37*
G36*
G01*
X162599300Y-127233440D02*
X162599300Y-124988560D01*
G75*
G02*
X163075860Y-124512000I476560J0D01*
G01*
X163314140Y-124512000D01*
G75*
G02*
X163790700Y-124988560I0J-476560D01*
G01*
X163790700Y-127233440D01*
G75*
G02*
X163314140Y-127710000I-476560J0D01*
G01*
X163075860Y-127710000D01*
G75*
G02*
X162599300Y-127233440I0J476560D01*
G01*
G37*
D14*
X73406000Y-103886000D03*
X75438000Y-125984000D03*
X167894000Y-125984000D03*
X167894000Y-103886000D03*
M02*
