G04 #@! TF.GenerationSoftware,KiCad,Pcbnew,(5.1.10-1-10_14)*
G04 #@! TF.CreationDate,2021-12-06T12:39:38-05:00*
G04 #@! TF.ProjectId,MacIIfxRAMSIMM,4d616349-4966-4785-9241-4d53494d4d2e,rev?*
G04 #@! TF.SameCoordinates,Original*
G04 #@! TF.FileFunction,Paste,Top*
G04 #@! TF.FilePolarity,Positive*
%FSLAX46Y46*%
G04 Gerber Fmt 4.6, Leading zero omitted, Abs format (unit mm)*
G04 Created by KiCad (PCBNEW (5.1.10-1-10_14)) date 2021-12-06 12:39:38*
%MOMM*%
%LPD*%
G01*
G04 APERTURE LIST*
G04 APERTURE END LIST*
G36*
G01*
X154584000Y-115961500D02*
X154584000Y-115686500D01*
G75*
G02*
X154721500Y-115549000I137500J0D01*
G01*
X157444500Y-115549000D01*
G75*
G02*
X157582000Y-115686500I0J-137500D01*
G01*
X157582000Y-115961500D01*
G75*
G02*
X157444500Y-116099000I-137500J0D01*
G01*
X154721500Y-116099000D01*
G75*
G02*
X154584000Y-115961500I0J137500D01*
G01*
G37*
G36*
G01*
X160934000Y-115961500D02*
X160934000Y-115686500D01*
G75*
G02*
X161071500Y-115549000I137500J0D01*
G01*
X163794500Y-115549000D01*
G75*
G02*
X163932000Y-115686500I0J-137500D01*
G01*
X163932000Y-115961500D01*
G75*
G02*
X163794500Y-116099000I-137500J0D01*
G01*
X161071500Y-116099000D01*
G75*
G02*
X160934000Y-115961500I0J137500D01*
G01*
G37*
G36*
G01*
X154584000Y-113421500D02*
X154584000Y-113146500D01*
G75*
G02*
X154721500Y-113009000I137500J0D01*
G01*
X157444500Y-113009000D01*
G75*
G02*
X157582000Y-113146500I0J-137500D01*
G01*
X157582000Y-113421500D01*
G75*
G02*
X157444500Y-113559000I-137500J0D01*
G01*
X154721500Y-113559000D01*
G75*
G02*
X154584000Y-113421500I0J137500D01*
G01*
G37*
G36*
G01*
X160934000Y-113421500D02*
X160934000Y-113146500D01*
G75*
G02*
X161071500Y-113009000I137500J0D01*
G01*
X163794500Y-113009000D01*
G75*
G02*
X163932000Y-113146500I0J-137500D01*
G01*
X163932000Y-113421500D01*
G75*
G02*
X163794500Y-113559000I-137500J0D01*
G01*
X161071500Y-113559000D01*
G75*
G02*
X160934000Y-113421500I0J137500D01*
G01*
G37*
G36*
G01*
X154584000Y-107071500D02*
X154584000Y-106796500D01*
G75*
G02*
X154721500Y-106659000I137500J0D01*
G01*
X157444500Y-106659000D01*
G75*
G02*
X157582000Y-106796500I0J-137500D01*
G01*
X157582000Y-107071500D01*
G75*
G02*
X157444500Y-107209000I-137500J0D01*
G01*
X154721500Y-107209000D01*
G75*
G02*
X154584000Y-107071500I0J137500D01*
G01*
G37*
G36*
G01*
X154584000Y-108341500D02*
X154584000Y-108066500D01*
G75*
G02*
X154721500Y-107929000I137500J0D01*
G01*
X157444500Y-107929000D01*
G75*
G02*
X157582000Y-108066500I0J-137500D01*
G01*
X157582000Y-108341500D01*
G75*
G02*
X157444500Y-108479000I-137500J0D01*
G01*
X154721500Y-108479000D01*
G75*
G02*
X154584000Y-108341500I0J137500D01*
G01*
G37*
G36*
G01*
X154584000Y-109611500D02*
X154584000Y-109336500D01*
G75*
G02*
X154721500Y-109199000I137500J0D01*
G01*
X157444500Y-109199000D01*
G75*
G02*
X157582000Y-109336500I0J-137500D01*
G01*
X157582000Y-109611500D01*
G75*
G02*
X157444500Y-109749000I-137500J0D01*
G01*
X154721500Y-109749000D01*
G75*
G02*
X154584000Y-109611500I0J137500D01*
G01*
G37*
G36*
G01*
X154584000Y-110881500D02*
X154584000Y-110606500D01*
G75*
G02*
X154721500Y-110469000I137500J0D01*
G01*
X157444500Y-110469000D01*
G75*
G02*
X157582000Y-110606500I0J-137500D01*
G01*
X157582000Y-110881500D01*
G75*
G02*
X157444500Y-111019000I-137500J0D01*
G01*
X154721500Y-111019000D01*
G75*
G02*
X154584000Y-110881500I0J137500D01*
G01*
G37*
G36*
G01*
X154584000Y-112151500D02*
X154584000Y-111876500D01*
G75*
G02*
X154721500Y-111739000I137500J0D01*
G01*
X157444500Y-111739000D01*
G75*
G02*
X157582000Y-111876500I0J-137500D01*
G01*
X157582000Y-112151500D01*
G75*
G02*
X157444500Y-112289000I-137500J0D01*
G01*
X154721500Y-112289000D01*
G75*
G02*
X154584000Y-112151500I0J137500D01*
G01*
G37*
G36*
G01*
X154584000Y-117231500D02*
X154584000Y-116956500D01*
G75*
G02*
X154721500Y-116819000I137500J0D01*
G01*
X157444500Y-116819000D01*
G75*
G02*
X157582000Y-116956500I0J-137500D01*
G01*
X157582000Y-117231500D01*
G75*
G02*
X157444500Y-117369000I-137500J0D01*
G01*
X154721500Y-117369000D01*
G75*
G02*
X154584000Y-117231500I0J137500D01*
G01*
G37*
G36*
G01*
X154584000Y-118501500D02*
X154584000Y-118226500D01*
G75*
G02*
X154721500Y-118089000I137500J0D01*
G01*
X157444500Y-118089000D01*
G75*
G02*
X157582000Y-118226500I0J-137500D01*
G01*
X157582000Y-118501500D01*
G75*
G02*
X157444500Y-118639000I-137500J0D01*
G01*
X154721500Y-118639000D01*
G75*
G02*
X154584000Y-118501500I0J137500D01*
G01*
G37*
G36*
G01*
X154584000Y-119771500D02*
X154584000Y-119496500D01*
G75*
G02*
X154721500Y-119359000I137500J0D01*
G01*
X157444500Y-119359000D01*
G75*
G02*
X157582000Y-119496500I0J-137500D01*
G01*
X157582000Y-119771500D01*
G75*
G02*
X157444500Y-119909000I-137500J0D01*
G01*
X154721500Y-119909000D01*
G75*
G02*
X154584000Y-119771500I0J137500D01*
G01*
G37*
G36*
G01*
X154584000Y-121041500D02*
X154584000Y-120766500D01*
G75*
G02*
X154721500Y-120629000I137500J0D01*
G01*
X157444500Y-120629000D01*
G75*
G02*
X157582000Y-120766500I0J-137500D01*
G01*
X157582000Y-121041500D01*
G75*
G02*
X157444500Y-121179000I-137500J0D01*
G01*
X154721500Y-121179000D01*
G75*
G02*
X154584000Y-121041500I0J137500D01*
G01*
G37*
G36*
G01*
X154584000Y-122311500D02*
X154584000Y-122036500D01*
G75*
G02*
X154721500Y-121899000I137500J0D01*
G01*
X157444500Y-121899000D01*
G75*
G02*
X157582000Y-122036500I0J-137500D01*
G01*
X157582000Y-122311500D01*
G75*
G02*
X157444500Y-122449000I-137500J0D01*
G01*
X154721500Y-122449000D01*
G75*
G02*
X154584000Y-122311500I0J137500D01*
G01*
G37*
G36*
G01*
X160934000Y-121041500D02*
X160934000Y-120766500D01*
G75*
G02*
X161071500Y-120629000I137500J0D01*
G01*
X163794500Y-120629000D01*
G75*
G02*
X163932000Y-120766500I0J-137500D01*
G01*
X163932000Y-121041500D01*
G75*
G02*
X163794500Y-121179000I-137500J0D01*
G01*
X161071500Y-121179000D01*
G75*
G02*
X160934000Y-121041500I0J137500D01*
G01*
G37*
G36*
G01*
X160934000Y-119771500D02*
X160934000Y-119496500D01*
G75*
G02*
X161071500Y-119359000I137500J0D01*
G01*
X163794500Y-119359000D01*
G75*
G02*
X163932000Y-119496500I0J-137500D01*
G01*
X163932000Y-119771500D01*
G75*
G02*
X163794500Y-119909000I-137500J0D01*
G01*
X161071500Y-119909000D01*
G75*
G02*
X160934000Y-119771500I0J137500D01*
G01*
G37*
G36*
G01*
X160934000Y-118501500D02*
X160934000Y-118226500D01*
G75*
G02*
X161071500Y-118089000I137500J0D01*
G01*
X163794500Y-118089000D01*
G75*
G02*
X163932000Y-118226500I0J-137500D01*
G01*
X163932000Y-118501500D01*
G75*
G02*
X163794500Y-118639000I-137500J0D01*
G01*
X161071500Y-118639000D01*
G75*
G02*
X160934000Y-118501500I0J137500D01*
G01*
G37*
G36*
G01*
X160934000Y-117231500D02*
X160934000Y-116956500D01*
G75*
G02*
X161071500Y-116819000I137500J0D01*
G01*
X163794500Y-116819000D01*
G75*
G02*
X163932000Y-116956500I0J-137500D01*
G01*
X163932000Y-117231500D01*
G75*
G02*
X163794500Y-117369000I-137500J0D01*
G01*
X161071500Y-117369000D01*
G75*
G02*
X160934000Y-117231500I0J137500D01*
G01*
G37*
G36*
G01*
X160934000Y-112151500D02*
X160934000Y-111876500D01*
G75*
G02*
X161071500Y-111739000I137500J0D01*
G01*
X163794500Y-111739000D01*
G75*
G02*
X163932000Y-111876500I0J-137500D01*
G01*
X163932000Y-112151500D01*
G75*
G02*
X163794500Y-112289000I-137500J0D01*
G01*
X161071500Y-112289000D01*
G75*
G02*
X160934000Y-112151500I0J137500D01*
G01*
G37*
G36*
G01*
X160934000Y-110881500D02*
X160934000Y-110606500D01*
G75*
G02*
X161071500Y-110469000I137500J0D01*
G01*
X163794500Y-110469000D01*
G75*
G02*
X163932000Y-110606500I0J-137500D01*
G01*
X163932000Y-110881500D01*
G75*
G02*
X163794500Y-111019000I-137500J0D01*
G01*
X161071500Y-111019000D01*
G75*
G02*
X160934000Y-110881500I0J137500D01*
G01*
G37*
G36*
G01*
X160934000Y-109611500D02*
X160934000Y-109336500D01*
G75*
G02*
X161071500Y-109199000I137500J0D01*
G01*
X163794500Y-109199000D01*
G75*
G02*
X163932000Y-109336500I0J-137500D01*
G01*
X163932000Y-109611500D01*
G75*
G02*
X163794500Y-109749000I-137500J0D01*
G01*
X161071500Y-109749000D01*
G75*
G02*
X160934000Y-109611500I0J137500D01*
G01*
G37*
G36*
G01*
X160934000Y-108341500D02*
X160934000Y-108066500D01*
G75*
G02*
X161071500Y-107929000I137500J0D01*
G01*
X163794500Y-107929000D01*
G75*
G02*
X163932000Y-108066500I0J-137500D01*
G01*
X163932000Y-108341500D01*
G75*
G02*
X163794500Y-108479000I-137500J0D01*
G01*
X161071500Y-108479000D01*
G75*
G02*
X160934000Y-108341500I0J137500D01*
G01*
G37*
G36*
G01*
X160934000Y-107071500D02*
X160934000Y-106796500D01*
G75*
G02*
X161071500Y-106659000I137500J0D01*
G01*
X163794500Y-106659000D01*
G75*
G02*
X163932000Y-106796500I0J-137500D01*
G01*
X163932000Y-107071500D01*
G75*
G02*
X163794500Y-107209000I-137500J0D01*
G01*
X161071500Y-107209000D01*
G75*
G02*
X160934000Y-107071500I0J137500D01*
G01*
G37*
G36*
G01*
X160934000Y-122311500D02*
X160934000Y-122036500D01*
G75*
G02*
X161071500Y-121899000I137500J0D01*
G01*
X163794500Y-121899000D01*
G75*
G02*
X163932000Y-122036500I0J-137500D01*
G01*
X163932000Y-122311500D01*
G75*
G02*
X163794500Y-122449000I-137500J0D01*
G01*
X161071500Y-122449000D01*
G75*
G02*
X160934000Y-122311500I0J137500D01*
G01*
G37*
G36*
G01*
X83718000Y-122311500D02*
X83718000Y-122036500D01*
G75*
G02*
X83855500Y-121899000I137500J0D01*
G01*
X86578500Y-121899000D01*
G75*
G02*
X86716000Y-122036500I0J-137500D01*
G01*
X86716000Y-122311500D01*
G75*
G02*
X86578500Y-122449000I-137500J0D01*
G01*
X83855500Y-122449000D01*
G75*
G02*
X83718000Y-122311500I0J137500D01*
G01*
G37*
G36*
G01*
X83718000Y-107071500D02*
X83718000Y-106796500D01*
G75*
G02*
X83855500Y-106659000I137500J0D01*
G01*
X86578500Y-106659000D01*
G75*
G02*
X86716000Y-106796500I0J-137500D01*
G01*
X86716000Y-107071500D01*
G75*
G02*
X86578500Y-107209000I-137500J0D01*
G01*
X83855500Y-107209000D01*
G75*
G02*
X83718000Y-107071500I0J137500D01*
G01*
G37*
G36*
G01*
X83718000Y-108341500D02*
X83718000Y-108066500D01*
G75*
G02*
X83855500Y-107929000I137500J0D01*
G01*
X86578500Y-107929000D01*
G75*
G02*
X86716000Y-108066500I0J-137500D01*
G01*
X86716000Y-108341500D01*
G75*
G02*
X86578500Y-108479000I-137500J0D01*
G01*
X83855500Y-108479000D01*
G75*
G02*
X83718000Y-108341500I0J137500D01*
G01*
G37*
G36*
G01*
X83718000Y-109611500D02*
X83718000Y-109336500D01*
G75*
G02*
X83855500Y-109199000I137500J0D01*
G01*
X86578500Y-109199000D01*
G75*
G02*
X86716000Y-109336500I0J-137500D01*
G01*
X86716000Y-109611500D01*
G75*
G02*
X86578500Y-109749000I-137500J0D01*
G01*
X83855500Y-109749000D01*
G75*
G02*
X83718000Y-109611500I0J137500D01*
G01*
G37*
G36*
G01*
X83718000Y-110881500D02*
X83718000Y-110606500D01*
G75*
G02*
X83855500Y-110469000I137500J0D01*
G01*
X86578500Y-110469000D01*
G75*
G02*
X86716000Y-110606500I0J-137500D01*
G01*
X86716000Y-110881500D01*
G75*
G02*
X86578500Y-111019000I-137500J0D01*
G01*
X83855500Y-111019000D01*
G75*
G02*
X83718000Y-110881500I0J137500D01*
G01*
G37*
G36*
G01*
X83718000Y-112151500D02*
X83718000Y-111876500D01*
G75*
G02*
X83855500Y-111739000I137500J0D01*
G01*
X86578500Y-111739000D01*
G75*
G02*
X86716000Y-111876500I0J-137500D01*
G01*
X86716000Y-112151500D01*
G75*
G02*
X86578500Y-112289000I-137500J0D01*
G01*
X83855500Y-112289000D01*
G75*
G02*
X83718000Y-112151500I0J137500D01*
G01*
G37*
G36*
G01*
X83718000Y-117231500D02*
X83718000Y-116956500D01*
G75*
G02*
X83855500Y-116819000I137500J0D01*
G01*
X86578500Y-116819000D01*
G75*
G02*
X86716000Y-116956500I0J-137500D01*
G01*
X86716000Y-117231500D01*
G75*
G02*
X86578500Y-117369000I-137500J0D01*
G01*
X83855500Y-117369000D01*
G75*
G02*
X83718000Y-117231500I0J137500D01*
G01*
G37*
G36*
G01*
X83718000Y-118501500D02*
X83718000Y-118226500D01*
G75*
G02*
X83855500Y-118089000I137500J0D01*
G01*
X86578500Y-118089000D01*
G75*
G02*
X86716000Y-118226500I0J-137500D01*
G01*
X86716000Y-118501500D01*
G75*
G02*
X86578500Y-118639000I-137500J0D01*
G01*
X83855500Y-118639000D01*
G75*
G02*
X83718000Y-118501500I0J137500D01*
G01*
G37*
G36*
G01*
X83718000Y-119771500D02*
X83718000Y-119496500D01*
G75*
G02*
X83855500Y-119359000I137500J0D01*
G01*
X86578500Y-119359000D01*
G75*
G02*
X86716000Y-119496500I0J-137500D01*
G01*
X86716000Y-119771500D01*
G75*
G02*
X86578500Y-119909000I-137500J0D01*
G01*
X83855500Y-119909000D01*
G75*
G02*
X83718000Y-119771500I0J137500D01*
G01*
G37*
G36*
G01*
X83718000Y-121041500D02*
X83718000Y-120766500D01*
G75*
G02*
X83855500Y-120629000I137500J0D01*
G01*
X86578500Y-120629000D01*
G75*
G02*
X86716000Y-120766500I0J-137500D01*
G01*
X86716000Y-121041500D01*
G75*
G02*
X86578500Y-121179000I-137500J0D01*
G01*
X83855500Y-121179000D01*
G75*
G02*
X83718000Y-121041500I0J137500D01*
G01*
G37*
G36*
G01*
X77368000Y-122311500D02*
X77368000Y-122036500D01*
G75*
G02*
X77505500Y-121899000I137500J0D01*
G01*
X80228500Y-121899000D01*
G75*
G02*
X80366000Y-122036500I0J-137500D01*
G01*
X80366000Y-122311500D01*
G75*
G02*
X80228500Y-122449000I-137500J0D01*
G01*
X77505500Y-122449000D01*
G75*
G02*
X77368000Y-122311500I0J137500D01*
G01*
G37*
G36*
G01*
X77368000Y-121041500D02*
X77368000Y-120766500D01*
G75*
G02*
X77505500Y-120629000I137500J0D01*
G01*
X80228500Y-120629000D01*
G75*
G02*
X80366000Y-120766500I0J-137500D01*
G01*
X80366000Y-121041500D01*
G75*
G02*
X80228500Y-121179000I-137500J0D01*
G01*
X77505500Y-121179000D01*
G75*
G02*
X77368000Y-121041500I0J137500D01*
G01*
G37*
G36*
G01*
X77368000Y-119771500D02*
X77368000Y-119496500D01*
G75*
G02*
X77505500Y-119359000I137500J0D01*
G01*
X80228500Y-119359000D01*
G75*
G02*
X80366000Y-119496500I0J-137500D01*
G01*
X80366000Y-119771500D01*
G75*
G02*
X80228500Y-119909000I-137500J0D01*
G01*
X77505500Y-119909000D01*
G75*
G02*
X77368000Y-119771500I0J137500D01*
G01*
G37*
G36*
G01*
X77368000Y-118501500D02*
X77368000Y-118226500D01*
G75*
G02*
X77505500Y-118089000I137500J0D01*
G01*
X80228500Y-118089000D01*
G75*
G02*
X80366000Y-118226500I0J-137500D01*
G01*
X80366000Y-118501500D01*
G75*
G02*
X80228500Y-118639000I-137500J0D01*
G01*
X77505500Y-118639000D01*
G75*
G02*
X77368000Y-118501500I0J137500D01*
G01*
G37*
G36*
G01*
X77368000Y-117231500D02*
X77368000Y-116956500D01*
G75*
G02*
X77505500Y-116819000I137500J0D01*
G01*
X80228500Y-116819000D01*
G75*
G02*
X80366000Y-116956500I0J-137500D01*
G01*
X80366000Y-117231500D01*
G75*
G02*
X80228500Y-117369000I-137500J0D01*
G01*
X77505500Y-117369000D01*
G75*
G02*
X77368000Y-117231500I0J137500D01*
G01*
G37*
G36*
G01*
X77368000Y-112151500D02*
X77368000Y-111876500D01*
G75*
G02*
X77505500Y-111739000I137500J0D01*
G01*
X80228500Y-111739000D01*
G75*
G02*
X80366000Y-111876500I0J-137500D01*
G01*
X80366000Y-112151500D01*
G75*
G02*
X80228500Y-112289000I-137500J0D01*
G01*
X77505500Y-112289000D01*
G75*
G02*
X77368000Y-112151500I0J137500D01*
G01*
G37*
G36*
G01*
X77368000Y-110881500D02*
X77368000Y-110606500D01*
G75*
G02*
X77505500Y-110469000I137500J0D01*
G01*
X80228500Y-110469000D01*
G75*
G02*
X80366000Y-110606500I0J-137500D01*
G01*
X80366000Y-110881500D01*
G75*
G02*
X80228500Y-111019000I-137500J0D01*
G01*
X77505500Y-111019000D01*
G75*
G02*
X77368000Y-110881500I0J137500D01*
G01*
G37*
G36*
G01*
X77368000Y-109611500D02*
X77368000Y-109336500D01*
G75*
G02*
X77505500Y-109199000I137500J0D01*
G01*
X80228500Y-109199000D01*
G75*
G02*
X80366000Y-109336500I0J-137500D01*
G01*
X80366000Y-109611500D01*
G75*
G02*
X80228500Y-109749000I-137500J0D01*
G01*
X77505500Y-109749000D01*
G75*
G02*
X77368000Y-109611500I0J137500D01*
G01*
G37*
G36*
G01*
X77368000Y-108341500D02*
X77368000Y-108066500D01*
G75*
G02*
X77505500Y-107929000I137500J0D01*
G01*
X80228500Y-107929000D01*
G75*
G02*
X80366000Y-108066500I0J-137500D01*
G01*
X80366000Y-108341500D01*
G75*
G02*
X80228500Y-108479000I-137500J0D01*
G01*
X77505500Y-108479000D01*
G75*
G02*
X77368000Y-108341500I0J137500D01*
G01*
G37*
G36*
G01*
X77368000Y-107071500D02*
X77368000Y-106796500D01*
G75*
G02*
X77505500Y-106659000I137500J0D01*
G01*
X80228500Y-106659000D01*
G75*
G02*
X80366000Y-106796500I0J-137500D01*
G01*
X80366000Y-107071500D01*
G75*
G02*
X80228500Y-107209000I-137500J0D01*
G01*
X77505500Y-107209000D01*
G75*
G02*
X77368000Y-107071500I0J137500D01*
G01*
G37*
G36*
G01*
X83718000Y-113421500D02*
X83718000Y-113146500D01*
G75*
G02*
X83855500Y-113009000I137500J0D01*
G01*
X86578500Y-113009000D01*
G75*
G02*
X86716000Y-113146500I0J-137500D01*
G01*
X86716000Y-113421500D01*
G75*
G02*
X86578500Y-113559000I-137500J0D01*
G01*
X83855500Y-113559000D01*
G75*
G02*
X83718000Y-113421500I0J137500D01*
G01*
G37*
G36*
G01*
X77368000Y-113421500D02*
X77368000Y-113146500D01*
G75*
G02*
X77505500Y-113009000I137500J0D01*
G01*
X80228500Y-113009000D01*
G75*
G02*
X80366000Y-113146500I0J-137500D01*
G01*
X80366000Y-113421500D01*
G75*
G02*
X80228500Y-113559000I-137500J0D01*
G01*
X77505500Y-113559000D01*
G75*
G02*
X77368000Y-113421500I0J137500D01*
G01*
G37*
G36*
G01*
X83718000Y-115961500D02*
X83718000Y-115686500D01*
G75*
G02*
X83855500Y-115549000I137500J0D01*
G01*
X86578500Y-115549000D01*
G75*
G02*
X86716000Y-115686500I0J-137500D01*
G01*
X86716000Y-115961500D01*
G75*
G02*
X86578500Y-116099000I-137500J0D01*
G01*
X83855500Y-116099000D01*
G75*
G02*
X83718000Y-115961500I0J137500D01*
G01*
G37*
G36*
G01*
X77368000Y-115961500D02*
X77368000Y-115686500D01*
G75*
G02*
X77505500Y-115549000I137500J0D01*
G01*
X80228500Y-115549000D01*
G75*
G02*
X80366000Y-115686500I0J-137500D01*
G01*
X80366000Y-115961500D01*
G75*
G02*
X80228500Y-116099000I-137500J0D01*
G01*
X77505500Y-116099000D01*
G75*
G02*
X77368000Y-115961500I0J137500D01*
G01*
G37*
G36*
G01*
X76117000Y-122889000D02*
X75267000Y-122889000D01*
G75*
G02*
X75017000Y-122639000I0J250000D01*
G01*
X75017000Y-122139000D01*
G75*
G02*
X75267000Y-121889000I250000J0D01*
G01*
X76117000Y-121889000D01*
G75*
G02*
X76367000Y-122139000I0J-250000D01*
G01*
X76367000Y-122639000D01*
G75*
G02*
X76117000Y-122889000I-250000J0D01*
G01*
G37*
G36*
G01*
X76117000Y-121189000D02*
X75267000Y-121189000D01*
G75*
G02*
X75017000Y-120939000I0J250000D01*
G01*
X75017000Y-120439000D01*
G75*
G02*
X75267000Y-120189000I250000J0D01*
G01*
X76117000Y-120189000D01*
G75*
G02*
X76367000Y-120439000I0J-250000D01*
G01*
X76367000Y-120939000D01*
G75*
G02*
X76117000Y-121189000I-250000J0D01*
G01*
G37*
G36*
G01*
X165564000Y-121889000D02*
X166414000Y-121889000D01*
G75*
G02*
X166664000Y-122139000I0J-250000D01*
G01*
X166664000Y-122639000D01*
G75*
G02*
X166414000Y-122889000I-250000J0D01*
G01*
X165564000Y-122889000D01*
G75*
G02*
X165314000Y-122639000I0J250000D01*
G01*
X165314000Y-122139000D01*
G75*
G02*
X165564000Y-121889000I250000J0D01*
G01*
G37*
G36*
G01*
X165564000Y-120189000D02*
X166414000Y-120189000D01*
G75*
G02*
X166664000Y-120439000I0J-250000D01*
G01*
X166664000Y-120939000D01*
G75*
G02*
X166414000Y-121189000I-250000J0D01*
G01*
X165564000Y-121189000D01*
G75*
G02*
X165314000Y-120939000I0J250000D01*
G01*
X165314000Y-120439000D01*
G75*
G02*
X165564000Y-120189000I250000J0D01*
G01*
G37*
G36*
G01*
X149885000Y-122311500D02*
X149885000Y-122036500D01*
G75*
G02*
X150022500Y-121899000I137500J0D01*
G01*
X152745500Y-121899000D01*
G75*
G02*
X152883000Y-122036500I0J-137500D01*
G01*
X152883000Y-122311500D01*
G75*
G02*
X152745500Y-122449000I-137500J0D01*
G01*
X150022500Y-122449000D01*
G75*
G02*
X149885000Y-122311500I0J137500D01*
G01*
G37*
G36*
G01*
X149885000Y-107071500D02*
X149885000Y-106796500D01*
G75*
G02*
X150022500Y-106659000I137500J0D01*
G01*
X152745500Y-106659000D01*
G75*
G02*
X152883000Y-106796500I0J-137500D01*
G01*
X152883000Y-107071500D01*
G75*
G02*
X152745500Y-107209000I-137500J0D01*
G01*
X150022500Y-107209000D01*
G75*
G02*
X149885000Y-107071500I0J137500D01*
G01*
G37*
G36*
G01*
X149885000Y-108341500D02*
X149885000Y-108066500D01*
G75*
G02*
X150022500Y-107929000I137500J0D01*
G01*
X152745500Y-107929000D01*
G75*
G02*
X152883000Y-108066500I0J-137500D01*
G01*
X152883000Y-108341500D01*
G75*
G02*
X152745500Y-108479000I-137500J0D01*
G01*
X150022500Y-108479000D01*
G75*
G02*
X149885000Y-108341500I0J137500D01*
G01*
G37*
G36*
G01*
X149885000Y-109611500D02*
X149885000Y-109336500D01*
G75*
G02*
X150022500Y-109199000I137500J0D01*
G01*
X152745500Y-109199000D01*
G75*
G02*
X152883000Y-109336500I0J-137500D01*
G01*
X152883000Y-109611500D01*
G75*
G02*
X152745500Y-109749000I-137500J0D01*
G01*
X150022500Y-109749000D01*
G75*
G02*
X149885000Y-109611500I0J137500D01*
G01*
G37*
G36*
G01*
X149885000Y-110881500D02*
X149885000Y-110606500D01*
G75*
G02*
X150022500Y-110469000I137500J0D01*
G01*
X152745500Y-110469000D01*
G75*
G02*
X152883000Y-110606500I0J-137500D01*
G01*
X152883000Y-110881500D01*
G75*
G02*
X152745500Y-111019000I-137500J0D01*
G01*
X150022500Y-111019000D01*
G75*
G02*
X149885000Y-110881500I0J137500D01*
G01*
G37*
G36*
G01*
X149885000Y-112151500D02*
X149885000Y-111876500D01*
G75*
G02*
X150022500Y-111739000I137500J0D01*
G01*
X152745500Y-111739000D01*
G75*
G02*
X152883000Y-111876500I0J-137500D01*
G01*
X152883000Y-112151500D01*
G75*
G02*
X152745500Y-112289000I-137500J0D01*
G01*
X150022500Y-112289000D01*
G75*
G02*
X149885000Y-112151500I0J137500D01*
G01*
G37*
G36*
G01*
X149885000Y-117231500D02*
X149885000Y-116956500D01*
G75*
G02*
X150022500Y-116819000I137500J0D01*
G01*
X152745500Y-116819000D01*
G75*
G02*
X152883000Y-116956500I0J-137500D01*
G01*
X152883000Y-117231500D01*
G75*
G02*
X152745500Y-117369000I-137500J0D01*
G01*
X150022500Y-117369000D01*
G75*
G02*
X149885000Y-117231500I0J137500D01*
G01*
G37*
G36*
G01*
X149885000Y-118501500D02*
X149885000Y-118226500D01*
G75*
G02*
X150022500Y-118089000I137500J0D01*
G01*
X152745500Y-118089000D01*
G75*
G02*
X152883000Y-118226500I0J-137500D01*
G01*
X152883000Y-118501500D01*
G75*
G02*
X152745500Y-118639000I-137500J0D01*
G01*
X150022500Y-118639000D01*
G75*
G02*
X149885000Y-118501500I0J137500D01*
G01*
G37*
G36*
G01*
X149885000Y-119771500D02*
X149885000Y-119496500D01*
G75*
G02*
X150022500Y-119359000I137500J0D01*
G01*
X152745500Y-119359000D01*
G75*
G02*
X152883000Y-119496500I0J-137500D01*
G01*
X152883000Y-119771500D01*
G75*
G02*
X152745500Y-119909000I-137500J0D01*
G01*
X150022500Y-119909000D01*
G75*
G02*
X149885000Y-119771500I0J137500D01*
G01*
G37*
G36*
G01*
X149885000Y-121041500D02*
X149885000Y-120766500D01*
G75*
G02*
X150022500Y-120629000I137500J0D01*
G01*
X152745500Y-120629000D01*
G75*
G02*
X152883000Y-120766500I0J-137500D01*
G01*
X152883000Y-121041500D01*
G75*
G02*
X152745500Y-121179000I-137500J0D01*
G01*
X150022500Y-121179000D01*
G75*
G02*
X149885000Y-121041500I0J137500D01*
G01*
G37*
G36*
G01*
X143535000Y-122311500D02*
X143535000Y-122036500D01*
G75*
G02*
X143672500Y-121899000I137500J0D01*
G01*
X146395500Y-121899000D01*
G75*
G02*
X146533000Y-122036500I0J-137500D01*
G01*
X146533000Y-122311500D01*
G75*
G02*
X146395500Y-122449000I-137500J0D01*
G01*
X143672500Y-122449000D01*
G75*
G02*
X143535000Y-122311500I0J137500D01*
G01*
G37*
G36*
G01*
X143535000Y-121041500D02*
X143535000Y-120766500D01*
G75*
G02*
X143672500Y-120629000I137500J0D01*
G01*
X146395500Y-120629000D01*
G75*
G02*
X146533000Y-120766500I0J-137500D01*
G01*
X146533000Y-121041500D01*
G75*
G02*
X146395500Y-121179000I-137500J0D01*
G01*
X143672500Y-121179000D01*
G75*
G02*
X143535000Y-121041500I0J137500D01*
G01*
G37*
G36*
G01*
X143535000Y-119771500D02*
X143535000Y-119496500D01*
G75*
G02*
X143672500Y-119359000I137500J0D01*
G01*
X146395500Y-119359000D01*
G75*
G02*
X146533000Y-119496500I0J-137500D01*
G01*
X146533000Y-119771500D01*
G75*
G02*
X146395500Y-119909000I-137500J0D01*
G01*
X143672500Y-119909000D01*
G75*
G02*
X143535000Y-119771500I0J137500D01*
G01*
G37*
G36*
G01*
X143535000Y-118501500D02*
X143535000Y-118226500D01*
G75*
G02*
X143672500Y-118089000I137500J0D01*
G01*
X146395500Y-118089000D01*
G75*
G02*
X146533000Y-118226500I0J-137500D01*
G01*
X146533000Y-118501500D01*
G75*
G02*
X146395500Y-118639000I-137500J0D01*
G01*
X143672500Y-118639000D01*
G75*
G02*
X143535000Y-118501500I0J137500D01*
G01*
G37*
G36*
G01*
X143535000Y-117231500D02*
X143535000Y-116956500D01*
G75*
G02*
X143672500Y-116819000I137500J0D01*
G01*
X146395500Y-116819000D01*
G75*
G02*
X146533000Y-116956500I0J-137500D01*
G01*
X146533000Y-117231500D01*
G75*
G02*
X146395500Y-117369000I-137500J0D01*
G01*
X143672500Y-117369000D01*
G75*
G02*
X143535000Y-117231500I0J137500D01*
G01*
G37*
G36*
G01*
X143535000Y-112151500D02*
X143535000Y-111876500D01*
G75*
G02*
X143672500Y-111739000I137500J0D01*
G01*
X146395500Y-111739000D01*
G75*
G02*
X146533000Y-111876500I0J-137500D01*
G01*
X146533000Y-112151500D01*
G75*
G02*
X146395500Y-112289000I-137500J0D01*
G01*
X143672500Y-112289000D01*
G75*
G02*
X143535000Y-112151500I0J137500D01*
G01*
G37*
G36*
G01*
X143535000Y-110881500D02*
X143535000Y-110606500D01*
G75*
G02*
X143672500Y-110469000I137500J0D01*
G01*
X146395500Y-110469000D01*
G75*
G02*
X146533000Y-110606500I0J-137500D01*
G01*
X146533000Y-110881500D01*
G75*
G02*
X146395500Y-111019000I-137500J0D01*
G01*
X143672500Y-111019000D01*
G75*
G02*
X143535000Y-110881500I0J137500D01*
G01*
G37*
G36*
G01*
X143535000Y-109611500D02*
X143535000Y-109336500D01*
G75*
G02*
X143672500Y-109199000I137500J0D01*
G01*
X146395500Y-109199000D01*
G75*
G02*
X146533000Y-109336500I0J-137500D01*
G01*
X146533000Y-109611500D01*
G75*
G02*
X146395500Y-109749000I-137500J0D01*
G01*
X143672500Y-109749000D01*
G75*
G02*
X143535000Y-109611500I0J137500D01*
G01*
G37*
G36*
G01*
X143535000Y-108341500D02*
X143535000Y-108066500D01*
G75*
G02*
X143672500Y-107929000I137500J0D01*
G01*
X146395500Y-107929000D01*
G75*
G02*
X146533000Y-108066500I0J-137500D01*
G01*
X146533000Y-108341500D01*
G75*
G02*
X146395500Y-108479000I-137500J0D01*
G01*
X143672500Y-108479000D01*
G75*
G02*
X143535000Y-108341500I0J137500D01*
G01*
G37*
G36*
G01*
X143535000Y-107071500D02*
X143535000Y-106796500D01*
G75*
G02*
X143672500Y-106659000I137500J0D01*
G01*
X146395500Y-106659000D01*
G75*
G02*
X146533000Y-106796500I0J-137500D01*
G01*
X146533000Y-107071500D01*
G75*
G02*
X146395500Y-107209000I-137500J0D01*
G01*
X143672500Y-107209000D01*
G75*
G02*
X143535000Y-107071500I0J137500D01*
G01*
G37*
G36*
G01*
X149885000Y-113421500D02*
X149885000Y-113146500D01*
G75*
G02*
X150022500Y-113009000I137500J0D01*
G01*
X152745500Y-113009000D01*
G75*
G02*
X152883000Y-113146500I0J-137500D01*
G01*
X152883000Y-113421500D01*
G75*
G02*
X152745500Y-113559000I-137500J0D01*
G01*
X150022500Y-113559000D01*
G75*
G02*
X149885000Y-113421500I0J137500D01*
G01*
G37*
G36*
G01*
X143535000Y-113421500D02*
X143535000Y-113146500D01*
G75*
G02*
X143672500Y-113009000I137500J0D01*
G01*
X146395500Y-113009000D01*
G75*
G02*
X146533000Y-113146500I0J-137500D01*
G01*
X146533000Y-113421500D01*
G75*
G02*
X146395500Y-113559000I-137500J0D01*
G01*
X143672500Y-113559000D01*
G75*
G02*
X143535000Y-113421500I0J137500D01*
G01*
G37*
G36*
G01*
X149885000Y-115961500D02*
X149885000Y-115686500D01*
G75*
G02*
X150022500Y-115549000I137500J0D01*
G01*
X152745500Y-115549000D01*
G75*
G02*
X152883000Y-115686500I0J-137500D01*
G01*
X152883000Y-115961500D01*
G75*
G02*
X152745500Y-116099000I-137500J0D01*
G01*
X150022500Y-116099000D01*
G75*
G02*
X149885000Y-115961500I0J137500D01*
G01*
G37*
G36*
G01*
X143535000Y-115961500D02*
X143535000Y-115686500D01*
G75*
G02*
X143672500Y-115549000I137500J0D01*
G01*
X146395500Y-115549000D01*
G75*
G02*
X146533000Y-115686500I0J-137500D01*
G01*
X146533000Y-115961500D01*
G75*
G02*
X146395500Y-116099000I-137500J0D01*
G01*
X143672500Y-116099000D01*
G75*
G02*
X143535000Y-115961500I0J137500D01*
G01*
G37*
G36*
G01*
X132486000Y-115961500D02*
X132486000Y-115686500D01*
G75*
G02*
X132623500Y-115549000I137500J0D01*
G01*
X135346500Y-115549000D01*
G75*
G02*
X135484000Y-115686500I0J-137500D01*
G01*
X135484000Y-115961500D01*
G75*
G02*
X135346500Y-116099000I-137500J0D01*
G01*
X132623500Y-116099000D01*
G75*
G02*
X132486000Y-115961500I0J137500D01*
G01*
G37*
G36*
G01*
X138836000Y-115961500D02*
X138836000Y-115686500D01*
G75*
G02*
X138973500Y-115549000I137500J0D01*
G01*
X141696500Y-115549000D01*
G75*
G02*
X141834000Y-115686500I0J-137500D01*
G01*
X141834000Y-115961500D01*
G75*
G02*
X141696500Y-116099000I-137500J0D01*
G01*
X138973500Y-116099000D01*
G75*
G02*
X138836000Y-115961500I0J137500D01*
G01*
G37*
G36*
G01*
X132486000Y-113421500D02*
X132486000Y-113146500D01*
G75*
G02*
X132623500Y-113009000I137500J0D01*
G01*
X135346500Y-113009000D01*
G75*
G02*
X135484000Y-113146500I0J-137500D01*
G01*
X135484000Y-113421500D01*
G75*
G02*
X135346500Y-113559000I-137500J0D01*
G01*
X132623500Y-113559000D01*
G75*
G02*
X132486000Y-113421500I0J137500D01*
G01*
G37*
G36*
G01*
X138836000Y-113421500D02*
X138836000Y-113146500D01*
G75*
G02*
X138973500Y-113009000I137500J0D01*
G01*
X141696500Y-113009000D01*
G75*
G02*
X141834000Y-113146500I0J-137500D01*
G01*
X141834000Y-113421500D01*
G75*
G02*
X141696500Y-113559000I-137500J0D01*
G01*
X138973500Y-113559000D01*
G75*
G02*
X138836000Y-113421500I0J137500D01*
G01*
G37*
G36*
G01*
X132486000Y-107071500D02*
X132486000Y-106796500D01*
G75*
G02*
X132623500Y-106659000I137500J0D01*
G01*
X135346500Y-106659000D01*
G75*
G02*
X135484000Y-106796500I0J-137500D01*
G01*
X135484000Y-107071500D01*
G75*
G02*
X135346500Y-107209000I-137500J0D01*
G01*
X132623500Y-107209000D01*
G75*
G02*
X132486000Y-107071500I0J137500D01*
G01*
G37*
G36*
G01*
X132486000Y-108341500D02*
X132486000Y-108066500D01*
G75*
G02*
X132623500Y-107929000I137500J0D01*
G01*
X135346500Y-107929000D01*
G75*
G02*
X135484000Y-108066500I0J-137500D01*
G01*
X135484000Y-108341500D01*
G75*
G02*
X135346500Y-108479000I-137500J0D01*
G01*
X132623500Y-108479000D01*
G75*
G02*
X132486000Y-108341500I0J137500D01*
G01*
G37*
G36*
G01*
X132486000Y-109611500D02*
X132486000Y-109336500D01*
G75*
G02*
X132623500Y-109199000I137500J0D01*
G01*
X135346500Y-109199000D01*
G75*
G02*
X135484000Y-109336500I0J-137500D01*
G01*
X135484000Y-109611500D01*
G75*
G02*
X135346500Y-109749000I-137500J0D01*
G01*
X132623500Y-109749000D01*
G75*
G02*
X132486000Y-109611500I0J137500D01*
G01*
G37*
G36*
G01*
X132486000Y-110881500D02*
X132486000Y-110606500D01*
G75*
G02*
X132623500Y-110469000I137500J0D01*
G01*
X135346500Y-110469000D01*
G75*
G02*
X135484000Y-110606500I0J-137500D01*
G01*
X135484000Y-110881500D01*
G75*
G02*
X135346500Y-111019000I-137500J0D01*
G01*
X132623500Y-111019000D01*
G75*
G02*
X132486000Y-110881500I0J137500D01*
G01*
G37*
G36*
G01*
X132486000Y-112151500D02*
X132486000Y-111876500D01*
G75*
G02*
X132623500Y-111739000I137500J0D01*
G01*
X135346500Y-111739000D01*
G75*
G02*
X135484000Y-111876500I0J-137500D01*
G01*
X135484000Y-112151500D01*
G75*
G02*
X135346500Y-112289000I-137500J0D01*
G01*
X132623500Y-112289000D01*
G75*
G02*
X132486000Y-112151500I0J137500D01*
G01*
G37*
G36*
G01*
X132486000Y-117231500D02*
X132486000Y-116956500D01*
G75*
G02*
X132623500Y-116819000I137500J0D01*
G01*
X135346500Y-116819000D01*
G75*
G02*
X135484000Y-116956500I0J-137500D01*
G01*
X135484000Y-117231500D01*
G75*
G02*
X135346500Y-117369000I-137500J0D01*
G01*
X132623500Y-117369000D01*
G75*
G02*
X132486000Y-117231500I0J137500D01*
G01*
G37*
G36*
G01*
X132486000Y-118501500D02*
X132486000Y-118226500D01*
G75*
G02*
X132623500Y-118089000I137500J0D01*
G01*
X135346500Y-118089000D01*
G75*
G02*
X135484000Y-118226500I0J-137500D01*
G01*
X135484000Y-118501500D01*
G75*
G02*
X135346500Y-118639000I-137500J0D01*
G01*
X132623500Y-118639000D01*
G75*
G02*
X132486000Y-118501500I0J137500D01*
G01*
G37*
G36*
G01*
X132486000Y-119771500D02*
X132486000Y-119496500D01*
G75*
G02*
X132623500Y-119359000I137500J0D01*
G01*
X135346500Y-119359000D01*
G75*
G02*
X135484000Y-119496500I0J-137500D01*
G01*
X135484000Y-119771500D01*
G75*
G02*
X135346500Y-119909000I-137500J0D01*
G01*
X132623500Y-119909000D01*
G75*
G02*
X132486000Y-119771500I0J137500D01*
G01*
G37*
G36*
G01*
X132486000Y-121041500D02*
X132486000Y-120766500D01*
G75*
G02*
X132623500Y-120629000I137500J0D01*
G01*
X135346500Y-120629000D01*
G75*
G02*
X135484000Y-120766500I0J-137500D01*
G01*
X135484000Y-121041500D01*
G75*
G02*
X135346500Y-121179000I-137500J0D01*
G01*
X132623500Y-121179000D01*
G75*
G02*
X132486000Y-121041500I0J137500D01*
G01*
G37*
G36*
G01*
X132486000Y-122311500D02*
X132486000Y-122036500D01*
G75*
G02*
X132623500Y-121899000I137500J0D01*
G01*
X135346500Y-121899000D01*
G75*
G02*
X135484000Y-122036500I0J-137500D01*
G01*
X135484000Y-122311500D01*
G75*
G02*
X135346500Y-122449000I-137500J0D01*
G01*
X132623500Y-122449000D01*
G75*
G02*
X132486000Y-122311500I0J137500D01*
G01*
G37*
G36*
G01*
X138836000Y-121041500D02*
X138836000Y-120766500D01*
G75*
G02*
X138973500Y-120629000I137500J0D01*
G01*
X141696500Y-120629000D01*
G75*
G02*
X141834000Y-120766500I0J-137500D01*
G01*
X141834000Y-121041500D01*
G75*
G02*
X141696500Y-121179000I-137500J0D01*
G01*
X138973500Y-121179000D01*
G75*
G02*
X138836000Y-121041500I0J137500D01*
G01*
G37*
G36*
G01*
X138836000Y-119771500D02*
X138836000Y-119496500D01*
G75*
G02*
X138973500Y-119359000I137500J0D01*
G01*
X141696500Y-119359000D01*
G75*
G02*
X141834000Y-119496500I0J-137500D01*
G01*
X141834000Y-119771500D01*
G75*
G02*
X141696500Y-119909000I-137500J0D01*
G01*
X138973500Y-119909000D01*
G75*
G02*
X138836000Y-119771500I0J137500D01*
G01*
G37*
G36*
G01*
X138836000Y-118501500D02*
X138836000Y-118226500D01*
G75*
G02*
X138973500Y-118089000I137500J0D01*
G01*
X141696500Y-118089000D01*
G75*
G02*
X141834000Y-118226500I0J-137500D01*
G01*
X141834000Y-118501500D01*
G75*
G02*
X141696500Y-118639000I-137500J0D01*
G01*
X138973500Y-118639000D01*
G75*
G02*
X138836000Y-118501500I0J137500D01*
G01*
G37*
G36*
G01*
X138836000Y-117231500D02*
X138836000Y-116956500D01*
G75*
G02*
X138973500Y-116819000I137500J0D01*
G01*
X141696500Y-116819000D01*
G75*
G02*
X141834000Y-116956500I0J-137500D01*
G01*
X141834000Y-117231500D01*
G75*
G02*
X141696500Y-117369000I-137500J0D01*
G01*
X138973500Y-117369000D01*
G75*
G02*
X138836000Y-117231500I0J137500D01*
G01*
G37*
G36*
G01*
X138836000Y-112151500D02*
X138836000Y-111876500D01*
G75*
G02*
X138973500Y-111739000I137500J0D01*
G01*
X141696500Y-111739000D01*
G75*
G02*
X141834000Y-111876500I0J-137500D01*
G01*
X141834000Y-112151500D01*
G75*
G02*
X141696500Y-112289000I-137500J0D01*
G01*
X138973500Y-112289000D01*
G75*
G02*
X138836000Y-112151500I0J137500D01*
G01*
G37*
G36*
G01*
X138836000Y-110881500D02*
X138836000Y-110606500D01*
G75*
G02*
X138973500Y-110469000I137500J0D01*
G01*
X141696500Y-110469000D01*
G75*
G02*
X141834000Y-110606500I0J-137500D01*
G01*
X141834000Y-110881500D01*
G75*
G02*
X141696500Y-111019000I-137500J0D01*
G01*
X138973500Y-111019000D01*
G75*
G02*
X138836000Y-110881500I0J137500D01*
G01*
G37*
G36*
G01*
X138836000Y-109611500D02*
X138836000Y-109336500D01*
G75*
G02*
X138973500Y-109199000I137500J0D01*
G01*
X141696500Y-109199000D01*
G75*
G02*
X141834000Y-109336500I0J-137500D01*
G01*
X141834000Y-109611500D01*
G75*
G02*
X141696500Y-109749000I-137500J0D01*
G01*
X138973500Y-109749000D01*
G75*
G02*
X138836000Y-109611500I0J137500D01*
G01*
G37*
G36*
G01*
X138836000Y-108341500D02*
X138836000Y-108066500D01*
G75*
G02*
X138973500Y-107929000I137500J0D01*
G01*
X141696500Y-107929000D01*
G75*
G02*
X141834000Y-108066500I0J-137500D01*
G01*
X141834000Y-108341500D01*
G75*
G02*
X141696500Y-108479000I-137500J0D01*
G01*
X138973500Y-108479000D01*
G75*
G02*
X138836000Y-108341500I0J137500D01*
G01*
G37*
G36*
G01*
X138836000Y-107071500D02*
X138836000Y-106796500D01*
G75*
G02*
X138973500Y-106659000I137500J0D01*
G01*
X141696500Y-106659000D01*
G75*
G02*
X141834000Y-106796500I0J-137500D01*
G01*
X141834000Y-107071500D01*
G75*
G02*
X141696500Y-107209000I-137500J0D01*
G01*
X138973500Y-107209000D01*
G75*
G02*
X138836000Y-107071500I0J137500D01*
G01*
G37*
G36*
G01*
X138836000Y-122311500D02*
X138836000Y-122036500D01*
G75*
G02*
X138973500Y-121899000I137500J0D01*
G01*
X141696500Y-121899000D01*
G75*
G02*
X141834000Y-122036500I0J-137500D01*
G01*
X141834000Y-122311500D01*
G75*
G02*
X141696500Y-122449000I-137500J0D01*
G01*
X138973500Y-122449000D01*
G75*
G02*
X138836000Y-122311500I0J137500D01*
G01*
G37*
G36*
G01*
X127787000Y-122311500D02*
X127787000Y-122036500D01*
G75*
G02*
X127924500Y-121899000I137500J0D01*
G01*
X130647500Y-121899000D01*
G75*
G02*
X130785000Y-122036500I0J-137500D01*
G01*
X130785000Y-122311500D01*
G75*
G02*
X130647500Y-122449000I-137500J0D01*
G01*
X127924500Y-122449000D01*
G75*
G02*
X127787000Y-122311500I0J137500D01*
G01*
G37*
G36*
G01*
X127787000Y-107071500D02*
X127787000Y-106796500D01*
G75*
G02*
X127924500Y-106659000I137500J0D01*
G01*
X130647500Y-106659000D01*
G75*
G02*
X130785000Y-106796500I0J-137500D01*
G01*
X130785000Y-107071500D01*
G75*
G02*
X130647500Y-107209000I-137500J0D01*
G01*
X127924500Y-107209000D01*
G75*
G02*
X127787000Y-107071500I0J137500D01*
G01*
G37*
G36*
G01*
X127787000Y-108341500D02*
X127787000Y-108066500D01*
G75*
G02*
X127924500Y-107929000I137500J0D01*
G01*
X130647500Y-107929000D01*
G75*
G02*
X130785000Y-108066500I0J-137500D01*
G01*
X130785000Y-108341500D01*
G75*
G02*
X130647500Y-108479000I-137500J0D01*
G01*
X127924500Y-108479000D01*
G75*
G02*
X127787000Y-108341500I0J137500D01*
G01*
G37*
G36*
G01*
X127787000Y-109611500D02*
X127787000Y-109336500D01*
G75*
G02*
X127924500Y-109199000I137500J0D01*
G01*
X130647500Y-109199000D01*
G75*
G02*
X130785000Y-109336500I0J-137500D01*
G01*
X130785000Y-109611500D01*
G75*
G02*
X130647500Y-109749000I-137500J0D01*
G01*
X127924500Y-109749000D01*
G75*
G02*
X127787000Y-109611500I0J137500D01*
G01*
G37*
G36*
G01*
X127787000Y-110881500D02*
X127787000Y-110606500D01*
G75*
G02*
X127924500Y-110469000I137500J0D01*
G01*
X130647500Y-110469000D01*
G75*
G02*
X130785000Y-110606500I0J-137500D01*
G01*
X130785000Y-110881500D01*
G75*
G02*
X130647500Y-111019000I-137500J0D01*
G01*
X127924500Y-111019000D01*
G75*
G02*
X127787000Y-110881500I0J137500D01*
G01*
G37*
G36*
G01*
X127787000Y-112151500D02*
X127787000Y-111876500D01*
G75*
G02*
X127924500Y-111739000I137500J0D01*
G01*
X130647500Y-111739000D01*
G75*
G02*
X130785000Y-111876500I0J-137500D01*
G01*
X130785000Y-112151500D01*
G75*
G02*
X130647500Y-112289000I-137500J0D01*
G01*
X127924500Y-112289000D01*
G75*
G02*
X127787000Y-112151500I0J137500D01*
G01*
G37*
G36*
G01*
X127787000Y-117231500D02*
X127787000Y-116956500D01*
G75*
G02*
X127924500Y-116819000I137500J0D01*
G01*
X130647500Y-116819000D01*
G75*
G02*
X130785000Y-116956500I0J-137500D01*
G01*
X130785000Y-117231500D01*
G75*
G02*
X130647500Y-117369000I-137500J0D01*
G01*
X127924500Y-117369000D01*
G75*
G02*
X127787000Y-117231500I0J137500D01*
G01*
G37*
G36*
G01*
X127787000Y-118501500D02*
X127787000Y-118226500D01*
G75*
G02*
X127924500Y-118089000I137500J0D01*
G01*
X130647500Y-118089000D01*
G75*
G02*
X130785000Y-118226500I0J-137500D01*
G01*
X130785000Y-118501500D01*
G75*
G02*
X130647500Y-118639000I-137500J0D01*
G01*
X127924500Y-118639000D01*
G75*
G02*
X127787000Y-118501500I0J137500D01*
G01*
G37*
G36*
G01*
X127787000Y-119771500D02*
X127787000Y-119496500D01*
G75*
G02*
X127924500Y-119359000I137500J0D01*
G01*
X130647500Y-119359000D01*
G75*
G02*
X130785000Y-119496500I0J-137500D01*
G01*
X130785000Y-119771500D01*
G75*
G02*
X130647500Y-119909000I-137500J0D01*
G01*
X127924500Y-119909000D01*
G75*
G02*
X127787000Y-119771500I0J137500D01*
G01*
G37*
G36*
G01*
X127787000Y-121041500D02*
X127787000Y-120766500D01*
G75*
G02*
X127924500Y-120629000I137500J0D01*
G01*
X130647500Y-120629000D01*
G75*
G02*
X130785000Y-120766500I0J-137500D01*
G01*
X130785000Y-121041500D01*
G75*
G02*
X130647500Y-121179000I-137500J0D01*
G01*
X127924500Y-121179000D01*
G75*
G02*
X127787000Y-121041500I0J137500D01*
G01*
G37*
G36*
G01*
X121437000Y-122311500D02*
X121437000Y-122036500D01*
G75*
G02*
X121574500Y-121899000I137500J0D01*
G01*
X124297500Y-121899000D01*
G75*
G02*
X124435000Y-122036500I0J-137500D01*
G01*
X124435000Y-122311500D01*
G75*
G02*
X124297500Y-122449000I-137500J0D01*
G01*
X121574500Y-122449000D01*
G75*
G02*
X121437000Y-122311500I0J137500D01*
G01*
G37*
G36*
G01*
X121437000Y-121041500D02*
X121437000Y-120766500D01*
G75*
G02*
X121574500Y-120629000I137500J0D01*
G01*
X124297500Y-120629000D01*
G75*
G02*
X124435000Y-120766500I0J-137500D01*
G01*
X124435000Y-121041500D01*
G75*
G02*
X124297500Y-121179000I-137500J0D01*
G01*
X121574500Y-121179000D01*
G75*
G02*
X121437000Y-121041500I0J137500D01*
G01*
G37*
G36*
G01*
X121437000Y-119771500D02*
X121437000Y-119496500D01*
G75*
G02*
X121574500Y-119359000I137500J0D01*
G01*
X124297500Y-119359000D01*
G75*
G02*
X124435000Y-119496500I0J-137500D01*
G01*
X124435000Y-119771500D01*
G75*
G02*
X124297500Y-119909000I-137500J0D01*
G01*
X121574500Y-119909000D01*
G75*
G02*
X121437000Y-119771500I0J137500D01*
G01*
G37*
G36*
G01*
X121437000Y-118501500D02*
X121437000Y-118226500D01*
G75*
G02*
X121574500Y-118089000I137500J0D01*
G01*
X124297500Y-118089000D01*
G75*
G02*
X124435000Y-118226500I0J-137500D01*
G01*
X124435000Y-118501500D01*
G75*
G02*
X124297500Y-118639000I-137500J0D01*
G01*
X121574500Y-118639000D01*
G75*
G02*
X121437000Y-118501500I0J137500D01*
G01*
G37*
G36*
G01*
X121437000Y-117231500D02*
X121437000Y-116956500D01*
G75*
G02*
X121574500Y-116819000I137500J0D01*
G01*
X124297500Y-116819000D01*
G75*
G02*
X124435000Y-116956500I0J-137500D01*
G01*
X124435000Y-117231500D01*
G75*
G02*
X124297500Y-117369000I-137500J0D01*
G01*
X121574500Y-117369000D01*
G75*
G02*
X121437000Y-117231500I0J137500D01*
G01*
G37*
G36*
G01*
X121437000Y-112151500D02*
X121437000Y-111876500D01*
G75*
G02*
X121574500Y-111739000I137500J0D01*
G01*
X124297500Y-111739000D01*
G75*
G02*
X124435000Y-111876500I0J-137500D01*
G01*
X124435000Y-112151500D01*
G75*
G02*
X124297500Y-112289000I-137500J0D01*
G01*
X121574500Y-112289000D01*
G75*
G02*
X121437000Y-112151500I0J137500D01*
G01*
G37*
G36*
G01*
X121437000Y-110881500D02*
X121437000Y-110606500D01*
G75*
G02*
X121574500Y-110469000I137500J0D01*
G01*
X124297500Y-110469000D01*
G75*
G02*
X124435000Y-110606500I0J-137500D01*
G01*
X124435000Y-110881500D01*
G75*
G02*
X124297500Y-111019000I-137500J0D01*
G01*
X121574500Y-111019000D01*
G75*
G02*
X121437000Y-110881500I0J137500D01*
G01*
G37*
G36*
G01*
X121437000Y-109611500D02*
X121437000Y-109336500D01*
G75*
G02*
X121574500Y-109199000I137500J0D01*
G01*
X124297500Y-109199000D01*
G75*
G02*
X124435000Y-109336500I0J-137500D01*
G01*
X124435000Y-109611500D01*
G75*
G02*
X124297500Y-109749000I-137500J0D01*
G01*
X121574500Y-109749000D01*
G75*
G02*
X121437000Y-109611500I0J137500D01*
G01*
G37*
G36*
G01*
X121437000Y-108341500D02*
X121437000Y-108066500D01*
G75*
G02*
X121574500Y-107929000I137500J0D01*
G01*
X124297500Y-107929000D01*
G75*
G02*
X124435000Y-108066500I0J-137500D01*
G01*
X124435000Y-108341500D01*
G75*
G02*
X124297500Y-108479000I-137500J0D01*
G01*
X121574500Y-108479000D01*
G75*
G02*
X121437000Y-108341500I0J137500D01*
G01*
G37*
G36*
G01*
X121437000Y-107071500D02*
X121437000Y-106796500D01*
G75*
G02*
X121574500Y-106659000I137500J0D01*
G01*
X124297500Y-106659000D01*
G75*
G02*
X124435000Y-106796500I0J-137500D01*
G01*
X124435000Y-107071500D01*
G75*
G02*
X124297500Y-107209000I-137500J0D01*
G01*
X121574500Y-107209000D01*
G75*
G02*
X121437000Y-107071500I0J137500D01*
G01*
G37*
G36*
G01*
X127787000Y-113421500D02*
X127787000Y-113146500D01*
G75*
G02*
X127924500Y-113009000I137500J0D01*
G01*
X130647500Y-113009000D01*
G75*
G02*
X130785000Y-113146500I0J-137500D01*
G01*
X130785000Y-113421500D01*
G75*
G02*
X130647500Y-113559000I-137500J0D01*
G01*
X127924500Y-113559000D01*
G75*
G02*
X127787000Y-113421500I0J137500D01*
G01*
G37*
G36*
G01*
X121437000Y-113421500D02*
X121437000Y-113146500D01*
G75*
G02*
X121574500Y-113009000I137500J0D01*
G01*
X124297500Y-113009000D01*
G75*
G02*
X124435000Y-113146500I0J-137500D01*
G01*
X124435000Y-113421500D01*
G75*
G02*
X124297500Y-113559000I-137500J0D01*
G01*
X121574500Y-113559000D01*
G75*
G02*
X121437000Y-113421500I0J137500D01*
G01*
G37*
G36*
G01*
X127787000Y-115961500D02*
X127787000Y-115686500D01*
G75*
G02*
X127924500Y-115549000I137500J0D01*
G01*
X130647500Y-115549000D01*
G75*
G02*
X130785000Y-115686500I0J-137500D01*
G01*
X130785000Y-115961500D01*
G75*
G02*
X130647500Y-116099000I-137500J0D01*
G01*
X127924500Y-116099000D01*
G75*
G02*
X127787000Y-115961500I0J137500D01*
G01*
G37*
G36*
G01*
X121437000Y-115961500D02*
X121437000Y-115686500D01*
G75*
G02*
X121574500Y-115549000I137500J0D01*
G01*
X124297500Y-115549000D01*
G75*
G02*
X124435000Y-115686500I0J-137500D01*
G01*
X124435000Y-115961500D01*
G75*
G02*
X124297500Y-116099000I-137500J0D01*
G01*
X121574500Y-116099000D01*
G75*
G02*
X121437000Y-115961500I0J137500D01*
G01*
G37*
G36*
G01*
X110515000Y-115961500D02*
X110515000Y-115686500D01*
G75*
G02*
X110652500Y-115549000I137500J0D01*
G01*
X113375500Y-115549000D01*
G75*
G02*
X113513000Y-115686500I0J-137500D01*
G01*
X113513000Y-115961500D01*
G75*
G02*
X113375500Y-116099000I-137500J0D01*
G01*
X110652500Y-116099000D01*
G75*
G02*
X110515000Y-115961500I0J137500D01*
G01*
G37*
G36*
G01*
X116865000Y-115961500D02*
X116865000Y-115686500D01*
G75*
G02*
X117002500Y-115549000I137500J0D01*
G01*
X119725500Y-115549000D01*
G75*
G02*
X119863000Y-115686500I0J-137500D01*
G01*
X119863000Y-115961500D01*
G75*
G02*
X119725500Y-116099000I-137500J0D01*
G01*
X117002500Y-116099000D01*
G75*
G02*
X116865000Y-115961500I0J137500D01*
G01*
G37*
G36*
G01*
X110515000Y-113421500D02*
X110515000Y-113146500D01*
G75*
G02*
X110652500Y-113009000I137500J0D01*
G01*
X113375500Y-113009000D01*
G75*
G02*
X113513000Y-113146500I0J-137500D01*
G01*
X113513000Y-113421500D01*
G75*
G02*
X113375500Y-113559000I-137500J0D01*
G01*
X110652500Y-113559000D01*
G75*
G02*
X110515000Y-113421500I0J137500D01*
G01*
G37*
G36*
G01*
X116865000Y-113421500D02*
X116865000Y-113146500D01*
G75*
G02*
X117002500Y-113009000I137500J0D01*
G01*
X119725500Y-113009000D01*
G75*
G02*
X119863000Y-113146500I0J-137500D01*
G01*
X119863000Y-113421500D01*
G75*
G02*
X119725500Y-113559000I-137500J0D01*
G01*
X117002500Y-113559000D01*
G75*
G02*
X116865000Y-113421500I0J137500D01*
G01*
G37*
G36*
G01*
X110515000Y-107071500D02*
X110515000Y-106796500D01*
G75*
G02*
X110652500Y-106659000I137500J0D01*
G01*
X113375500Y-106659000D01*
G75*
G02*
X113513000Y-106796500I0J-137500D01*
G01*
X113513000Y-107071500D01*
G75*
G02*
X113375500Y-107209000I-137500J0D01*
G01*
X110652500Y-107209000D01*
G75*
G02*
X110515000Y-107071500I0J137500D01*
G01*
G37*
G36*
G01*
X110515000Y-108341500D02*
X110515000Y-108066500D01*
G75*
G02*
X110652500Y-107929000I137500J0D01*
G01*
X113375500Y-107929000D01*
G75*
G02*
X113513000Y-108066500I0J-137500D01*
G01*
X113513000Y-108341500D01*
G75*
G02*
X113375500Y-108479000I-137500J0D01*
G01*
X110652500Y-108479000D01*
G75*
G02*
X110515000Y-108341500I0J137500D01*
G01*
G37*
G36*
G01*
X110515000Y-109611500D02*
X110515000Y-109336500D01*
G75*
G02*
X110652500Y-109199000I137500J0D01*
G01*
X113375500Y-109199000D01*
G75*
G02*
X113513000Y-109336500I0J-137500D01*
G01*
X113513000Y-109611500D01*
G75*
G02*
X113375500Y-109749000I-137500J0D01*
G01*
X110652500Y-109749000D01*
G75*
G02*
X110515000Y-109611500I0J137500D01*
G01*
G37*
G36*
G01*
X110515000Y-110881500D02*
X110515000Y-110606500D01*
G75*
G02*
X110652500Y-110469000I137500J0D01*
G01*
X113375500Y-110469000D01*
G75*
G02*
X113513000Y-110606500I0J-137500D01*
G01*
X113513000Y-110881500D01*
G75*
G02*
X113375500Y-111019000I-137500J0D01*
G01*
X110652500Y-111019000D01*
G75*
G02*
X110515000Y-110881500I0J137500D01*
G01*
G37*
G36*
G01*
X110515000Y-112151500D02*
X110515000Y-111876500D01*
G75*
G02*
X110652500Y-111739000I137500J0D01*
G01*
X113375500Y-111739000D01*
G75*
G02*
X113513000Y-111876500I0J-137500D01*
G01*
X113513000Y-112151500D01*
G75*
G02*
X113375500Y-112289000I-137500J0D01*
G01*
X110652500Y-112289000D01*
G75*
G02*
X110515000Y-112151500I0J137500D01*
G01*
G37*
G36*
G01*
X110515000Y-117231500D02*
X110515000Y-116956500D01*
G75*
G02*
X110652500Y-116819000I137500J0D01*
G01*
X113375500Y-116819000D01*
G75*
G02*
X113513000Y-116956500I0J-137500D01*
G01*
X113513000Y-117231500D01*
G75*
G02*
X113375500Y-117369000I-137500J0D01*
G01*
X110652500Y-117369000D01*
G75*
G02*
X110515000Y-117231500I0J137500D01*
G01*
G37*
G36*
G01*
X110515000Y-118501500D02*
X110515000Y-118226500D01*
G75*
G02*
X110652500Y-118089000I137500J0D01*
G01*
X113375500Y-118089000D01*
G75*
G02*
X113513000Y-118226500I0J-137500D01*
G01*
X113513000Y-118501500D01*
G75*
G02*
X113375500Y-118639000I-137500J0D01*
G01*
X110652500Y-118639000D01*
G75*
G02*
X110515000Y-118501500I0J137500D01*
G01*
G37*
G36*
G01*
X110515000Y-119771500D02*
X110515000Y-119496500D01*
G75*
G02*
X110652500Y-119359000I137500J0D01*
G01*
X113375500Y-119359000D01*
G75*
G02*
X113513000Y-119496500I0J-137500D01*
G01*
X113513000Y-119771500D01*
G75*
G02*
X113375500Y-119909000I-137500J0D01*
G01*
X110652500Y-119909000D01*
G75*
G02*
X110515000Y-119771500I0J137500D01*
G01*
G37*
G36*
G01*
X110515000Y-121041500D02*
X110515000Y-120766500D01*
G75*
G02*
X110652500Y-120629000I137500J0D01*
G01*
X113375500Y-120629000D01*
G75*
G02*
X113513000Y-120766500I0J-137500D01*
G01*
X113513000Y-121041500D01*
G75*
G02*
X113375500Y-121179000I-137500J0D01*
G01*
X110652500Y-121179000D01*
G75*
G02*
X110515000Y-121041500I0J137500D01*
G01*
G37*
G36*
G01*
X110515000Y-122311500D02*
X110515000Y-122036500D01*
G75*
G02*
X110652500Y-121899000I137500J0D01*
G01*
X113375500Y-121899000D01*
G75*
G02*
X113513000Y-122036500I0J-137500D01*
G01*
X113513000Y-122311500D01*
G75*
G02*
X113375500Y-122449000I-137500J0D01*
G01*
X110652500Y-122449000D01*
G75*
G02*
X110515000Y-122311500I0J137500D01*
G01*
G37*
G36*
G01*
X116865000Y-121041500D02*
X116865000Y-120766500D01*
G75*
G02*
X117002500Y-120629000I137500J0D01*
G01*
X119725500Y-120629000D01*
G75*
G02*
X119863000Y-120766500I0J-137500D01*
G01*
X119863000Y-121041500D01*
G75*
G02*
X119725500Y-121179000I-137500J0D01*
G01*
X117002500Y-121179000D01*
G75*
G02*
X116865000Y-121041500I0J137500D01*
G01*
G37*
G36*
G01*
X116865000Y-119771500D02*
X116865000Y-119496500D01*
G75*
G02*
X117002500Y-119359000I137500J0D01*
G01*
X119725500Y-119359000D01*
G75*
G02*
X119863000Y-119496500I0J-137500D01*
G01*
X119863000Y-119771500D01*
G75*
G02*
X119725500Y-119909000I-137500J0D01*
G01*
X117002500Y-119909000D01*
G75*
G02*
X116865000Y-119771500I0J137500D01*
G01*
G37*
G36*
G01*
X116865000Y-118501500D02*
X116865000Y-118226500D01*
G75*
G02*
X117002500Y-118089000I137500J0D01*
G01*
X119725500Y-118089000D01*
G75*
G02*
X119863000Y-118226500I0J-137500D01*
G01*
X119863000Y-118501500D01*
G75*
G02*
X119725500Y-118639000I-137500J0D01*
G01*
X117002500Y-118639000D01*
G75*
G02*
X116865000Y-118501500I0J137500D01*
G01*
G37*
G36*
G01*
X116865000Y-117231500D02*
X116865000Y-116956500D01*
G75*
G02*
X117002500Y-116819000I137500J0D01*
G01*
X119725500Y-116819000D01*
G75*
G02*
X119863000Y-116956500I0J-137500D01*
G01*
X119863000Y-117231500D01*
G75*
G02*
X119725500Y-117369000I-137500J0D01*
G01*
X117002500Y-117369000D01*
G75*
G02*
X116865000Y-117231500I0J137500D01*
G01*
G37*
G36*
G01*
X116865000Y-112151500D02*
X116865000Y-111876500D01*
G75*
G02*
X117002500Y-111739000I137500J0D01*
G01*
X119725500Y-111739000D01*
G75*
G02*
X119863000Y-111876500I0J-137500D01*
G01*
X119863000Y-112151500D01*
G75*
G02*
X119725500Y-112289000I-137500J0D01*
G01*
X117002500Y-112289000D01*
G75*
G02*
X116865000Y-112151500I0J137500D01*
G01*
G37*
G36*
G01*
X116865000Y-110881500D02*
X116865000Y-110606500D01*
G75*
G02*
X117002500Y-110469000I137500J0D01*
G01*
X119725500Y-110469000D01*
G75*
G02*
X119863000Y-110606500I0J-137500D01*
G01*
X119863000Y-110881500D01*
G75*
G02*
X119725500Y-111019000I-137500J0D01*
G01*
X117002500Y-111019000D01*
G75*
G02*
X116865000Y-110881500I0J137500D01*
G01*
G37*
G36*
G01*
X116865000Y-109611500D02*
X116865000Y-109336500D01*
G75*
G02*
X117002500Y-109199000I137500J0D01*
G01*
X119725500Y-109199000D01*
G75*
G02*
X119863000Y-109336500I0J-137500D01*
G01*
X119863000Y-109611500D01*
G75*
G02*
X119725500Y-109749000I-137500J0D01*
G01*
X117002500Y-109749000D01*
G75*
G02*
X116865000Y-109611500I0J137500D01*
G01*
G37*
G36*
G01*
X116865000Y-108341500D02*
X116865000Y-108066500D01*
G75*
G02*
X117002500Y-107929000I137500J0D01*
G01*
X119725500Y-107929000D01*
G75*
G02*
X119863000Y-108066500I0J-137500D01*
G01*
X119863000Y-108341500D01*
G75*
G02*
X119725500Y-108479000I-137500J0D01*
G01*
X117002500Y-108479000D01*
G75*
G02*
X116865000Y-108341500I0J137500D01*
G01*
G37*
G36*
G01*
X116865000Y-107071500D02*
X116865000Y-106796500D01*
G75*
G02*
X117002500Y-106659000I137500J0D01*
G01*
X119725500Y-106659000D01*
G75*
G02*
X119863000Y-106796500I0J-137500D01*
G01*
X119863000Y-107071500D01*
G75*
G02*
X119725500Y-107209000I-137500J0D01*
G01*
X117002500Y-107209000D01*
G75*
G02*
X116865000Y-107071500I0J137500D01*
G01*
G37*
G36*
G01*
X116865000Y-122311500D02*
X116865000Y-122036500D01*
G75*
G02*
X117002500Y-121899000I137500J0D01*
G01*
X119725500Y-121899000D01*
G75*
G02*
X119863000Y-122036500I0J-137500D01*
G01*
X119863000Y-122311500D01*
G75*
G02*
X119725500Y-122449000I-137500J0D01*
G01*
X117002500Y-122449000D01*
G75*
G02*
X116865000Y-122311500I0J137500D01*
G01*
G37*
G36*
G01*
X105816000Y-122311500D02*
X105816000Y-122036500D01*
G75*
G02*
X105953500Y-121899000I137500J0D01*
G01*
X108676500Y-121899000D01*
G75*
G02*
X108814000Y-122036500I0J-137500D01*
G01*
X108814000Y-122311500D01*
G75*
G02*
X108676500Y-122449000I-137500J0D01*
G01*
X105953500Y-122449000D01*
G75*
G02*
X105816000Y-122311500I0J137500D01*
G01*
G37*
G36*
G01*
X105816000Y-107071500D02*
X105816000Y-106796500D01*
G75*
G02*
X105953500Y-106659000I137500J0D01*
G01*
X108676500Y-106659000D01*
G75*
G02*
X108814000Y-106796500I0J-137500D01*
G01*
X108814000Y-107071500D01*
G75*
G02*
X108676500Y-107209000I-137500J0D01*
G01*
X105953500Y-107209000D01*
G75*
G02*
X105816000Y-107071500I0J137500D01*
G01*
G37*
G36*
G01*
X105816000Y-108341500D02*
X105816000Y-108066500D01*
G75*
G02*
X105953500Y-107929000I137500J0D01*
G01*
X108676500Y-107929000D01*
G75*
G02*
X108814000Y-108066500I0J-137500D01*
G01*
X108814000Y-108341500D01*
G75*
G02*
X108676500Y-108479000I-137500J0D01*
G01*
X105953500Y-108479000D01*
G75*
G02*
X105816000Y-108341500I0J137500D01*
G01*
G37*
G36*
G01*
X105816000Y-109611500D02*
X105816000Y-109336500D01*
G75*
G02*
X105953500Y-109199000I137500J0D01*
G01*
X108676500Y-109199000D01*
G75*
G02*
X108814000Y-109336500I0J-137500D01*
G01*
X108814000Y-109611500D01*
G75*
G02*
X108676500Y-109749000I-137500J0D01*
G01*
X105953500Y-109749000D01*
G75*
G02*
X105816000Y-109611500I0J137500D01*
G01*
G37*
G36*
G01*
X105816000Y-110881500D02*
X105816000Y-110606500D01*
G75*
G02*
X105953500Y-110469000I137500J0D01*
G01*
X108676500Y-110469000D01*
G75*
G02*
X108814000Y-110606500I0J-137500D01*
G01*
X108814000Y-110881500D01*
G75*
G02*
X108676500Y-111019000I-137500J0D01*
G01*
X105953500Y-111019000D01*
G75*
G02*
X105816000Y-110881500I0J137500D01*
G01*
G37*
G36*
G01*
X105816000Y-112151500D02*
X105816000Y-111876500D01*
G75*
G02*
X105953500Y-111739000I137500J0D01*
G01*
X108676500Y-111739000D01*
G75*
G02*
X108814000Y-111876500I0J-137500D01*
G01*
X108814000Y-112151500D01*
G75*
G02*
X108676500Y-112289000I-137500J0D01*
G01*
X105953500Y-112289000D01*
G75*
G02*
X105816000Y-112151500I0J137500D01*
G01*
G37*
G36*
G01*
X105816000Y-117231500D02*
X105816000Y-116956500D01*
G75*
G02*
X105953500Y-116819000I137500J0D01*
G01*
X108676500Y-116819000D01*
G75*
G02*
X108814000Y-116956500I0J-137500D01*
G01*
X108814000Y-117231500D01*
G75*
G02*
X108676500Y-117369000I-137500J0D01*
G01*
X105953500Y-117369000D01*
G75*
G02*
X105816000Y-117231500I0J137500D01*
G01*
G37*
G36*
G01*
X105816000Y-118501500D02*
X105816000Y-118226500D01*
G75*
G02*
X105953500Y-118089000I137500J0D01*
G01*
X108676500Y-118089000D01*
G75*
G02*
X108814000Y-118226500I0J-137500D01*
G01*
X108814000Y-118501500D01*
G75*
G02*
X108676500Y-118639000I-137500J0D01*
G01*
X105953500Y-118639000D01*
G75*
G02*
X105816000Y-118501500I0J137500D01*
G01*
G37*
G36*
G01*
X105816000Y-119771500D02*
X105816000Y-119496500D01*
G75*
G02*
X105953500Y-119359000I137500J0D01*
G01*
X108676500Y-119359000D01*
G75*
G02*
X108814000Y-119496500I0J-137500D01*
G01*
X108814000Y-119771500D01*
G75*
G02*
X108676500Y-119909000I-137500J0D01*
G01*
X105953500Y-119909000D01*
G75*
G02*
X105816000Y-119771500I0J137500D01*
G01*
G37*
G36*
G01*
X105816000Y-121041500D02*
X105816000Y-120766500D01*
G75*
G02*
X105953500Y-120629000I137500J0D01*
G01*
X108676500Y-120629000D01*
G75*
G02*
X108814000Y-120766500I0J-137500D01*
G01*
X108814000Y-121041500D01*
G75*
G02*
X108676500Y-121179000I-137500J0D01*
G01*
X105953500Y-121179000D01*
G75*
G02*
X105816000Y-121041500I0J137500D01*
G01*
G37*
G36*
G01*
X99466000Y-122311500D02*
X99466000Y-122036500D01*
G75*
G02*
X99603500Y-121899000I137500J0D01*
G01*
X102326500Y-121899000D01*
G75*
G02*
X102464000Y-122036500I0J-137500D01*
G01*
X102464000Y-122311500D01*
G75*
G02*
X102326500Y-122449000I-137500J0D01*
G01*
X99603500Y-122449000D01*
G75*
G02*
X99466000Y-122311500I0J137500D01*
G01*
G37*
G36*
G01*
X99466000Y-121041500D02*
X99466000Y-120766500D01*
G75*
G02*
X99603500Y-120629000I137500J0D01*
G01*
X102326500Y-120629000D01*
G75*
G02*
X102464000Y-120766500I0J-137500D01*
G01*
X102464000Y-121041500D01*
G75*
G02*
X102326500Y-121179000I-137500J0D01*
G01*
X99603500Y-121179000D01*
G75*
G02*
X99466000Y-121041500I0J137500D01*
G01*
G37*
G36*
G01*
X99466000Y-119771500D02*
X99466000Y-119496500D01*
G75*
G02*
X99603500Y-119359000I137500J0D01*
G01*
X102326500Y-119359000D01*
G75*
G02*
X102464000Y-119496500I0J-137500D01*
G01*
X102464000Y-119771500D01*
G75*
G02*
X102326500Y-119909000I-137500J0D01*
G01*
X99603500Y-119909000D01*
G75*
G02*
X99466000Y-119771500I0J137500D01*
G01*
G37*
G36*
G01*
X99466000Y-118501500D02*
X99466000Y-118226500D01*
G75*
G02*
X99603500Y-118089000I137500J0D01*
G01*
X102326500Y-118089000D01*
G75*
G02*
X102464000Y-118226500I0J-137500D01*
G01*
X102464000Y-118501500D01*
G75*
G02*
X102326500Y-118639000I-137500J0D01*
G01*
X99603500Y-118639000D01*
G75*
G02*
X99466000Y-118501500I0J137500D01*
G01*
G37*
G36*
G01*
X99466000Y-117231500D02*
X99466000Y-116956500D01*
G75*
G02*
X99603500Y-116819000I137500J0D01*
G01*
X102326500Y-116819000D01*
G75*
G02*
X102464000Y-116956500I0J-137500D01*
G01*
X102464000Y-117231500D01*
G75*
G02*
X102326500Y-117369000I-137500J0D01*
G01*
X99603500Y-117369000D01*
G75*
G02*
X99466000Y-117231500I0J137500D01*
G01*
G37*
G36*
G01*
X99466000Y-112151500D02*
X99466000Y-111876500D01*
G75*
G02*
X99603500Y-111739000I137500J0D01*
G01*
X102326500Y-111739000D01*
G75*
G02*
X102464000Y-111876500I0J-137500D01*
G01*
X102464000Y-112151500D01*
G75*
G02*
X102326500Y-112289000I-137500J0D01*
G01*
X99603500Y-112289000D01*
G75*
G02*
X99466000Y-112151500I0J137500D01*
G01*
G37*
G36*
G01*
X99466000Y-110881500D02*
X99466000Y-110606500D01*
G75*
G02*
X99603500Y-110469000I137500J0D01*
G01*
X102326500Y-110469000D01*
G75*
G02*
X102464000Y-110606500I0J-137500D01*
G01*
X102464000Y-110881500D01*
G75*
G02*
X102326500Y-111019000I-137500J0D01*
G01*
X99603500Y-111019000D01*
G75*
G02*
X99466000Y-110881500I0J137500D01*
G01*
G37*
G36*
G01*
X99466000Y-109611500D02*
X99466000Y-109336500D01*
G75*
G02*
X99603500Y-109199000I137500J0D01*
G01*
X102326500Y-109199000D01*
G75*
G02*
X102464000Y-109336500I0J-137500D01*
G01*
X102464000Y-109611500D01*
G75*
G02*
X102326500Y-109749000I-137500J0D01*
G01*
X99603500Y-109749000D01*
G75*
G02*
X99466000Y-109611500I0J137500D01*
G01*
G37*
G36*
G01*
X99466000Y-108341500D02*
X99466000Y-108066500D01*
G75*
G02*
X99603500Y-107929000I137500J0D01*
G01*
X102326500Y-107929000D01*
G75*
G02*
X102464000Y-108066500I0J-137500D01*
G01*
X102464000Y-108341500D01*
G75*
G02*
X102326500Y-108479000I-137500J0D01*
G01*
X99603500Y-108479000D01*
G75*
G02*
X99466000Y-108341500I0J137500D01*
G01*
G37*
G36*
G01*
X99466000Y-107071500D02*
X99466000Y-106796500D01*
G75*
G02*
X99603500Y-106659000I137500J0D01*
G01*
X102326500Y-106659000D01*
G75*
G02*
X102464000Y-106796500I0J-137500D01*
G01*
X102464000Y-107071500D01*
G75*
G02*
X102326500Y-107209000I-137500J0D01*
G01*
X99603500Y-107209000D01*
G75*
G02*
X99466000Y-107071500I0J137500D01*
G01*
G37*
G36*
G01*
X105816000Y-113421500D02*
X105816000Y-113146500D01*
G75*
G02*
X105953500Y-113009000I137500J0D01*
G01*
X108676500Y-113009000D01*
G75*
G02*
X108814000Y-113146500I0J-137500D01*
G01*
X108814000Y-113421500D01*
G75*
G02*
X108676500Y-113559000I-137500J0D01*
G01*
X105953500Y-113559000D01*
G75*
G02*
X105816000Y-113421500I0J137500D01*
G01*
G37*
G36*
G01*
X99466000Y-113421500D02*
X99466000Y-113146500D01*
G75*
G02*
X99603500Y-113009000I137500J0D01*
G01*
X102326500Y-113009000D01*
G75*
G02*
X102464000Y-113146500I0J-137500D01*
G01*
X102464000Y-113421500D01*
G75*
G02*
X102326500Y-113559000I-137500J0D01*
G01*
X99603500Y-113559000D01*
G75*
G02*
X99466000Y-113421500I0J137500D01*
G01*
G37*
G36*
G01*
X105816000Y-115961500D02*
X105816000Y-115686500D01*
G75*
G02*
X105953500Y-115549000I137500J0D01*
G01*
X108676500Y-115549000D01*
G75*
G02*
X108814000Y-115686500I0J-137500D01*
G01*
X108814000Y-115961500D01*
G75*
G02*
X108676500Y-116099000I-137500J0D01*
G01*
X105953500Y-116099000D01*
G75*
G02*
X105816000Y-115961500I0J137500D01*
G01*
G37*
G36*
G01*
X99466000Y-115961500D02*
X99466000Y-115686500D01*
G75*
G02*
X99603500Y-115549000I137500J0D01*
G01*
X102326500Y-115549000D01*
G75*
G02*
X102464000Y-115686500I0J-137500D01*
G01*
X102464000Y-115961500D01*
G75*
G02*
X102326500Y-116099000I-137500J0D01*
G01*
X99603500Y-116099000D01*
G75*
G02*
X99466000Y-115961500I0J137500D01*
G01*
G37*
G36*
G01*
X88417000Y-115961500D02*
X88417000Y-115686500D01*
G75*
G02*
X88554500Y-115549000I137500J0D01*
G01*
X91277500Y-115549000D01*
G75*
G02*
X91415000Y-115686500I0J-137500D01*
G01*
X91415000Y-115961500D01*
G75*
G02*
X91277500Y-116099000I-137500J0D01*
G01*
X88554500Y-116099000D01*
G75*
G02*
X88417000Y-115961500I0J137500D01*
G01*
G37*
G36*
G01*
X94767000Y-115961500D02*
X94767000Y-115686500D01*
G75*
G02*
X94904500Y-115549000I137500J0D01*
G01*
X97627500Y-115549000D01*
G75*
G02*
X97765000Y-115686500I0J-137500D01*
G01*
X97765000Y-115961500D01*
G75*
G02*
X97627500Y-116099000I-137500J0D01*
G01*
X94904500Y-116099000D01*
G75*
G02*
X94767000Y-115961500I0J137500D01*
G01*
G37*
G36*
G01*
X88417000Y-113421500D02*
X88417000Y-113146500D01*
G75*
G02*
X88554500Y-113009000I137500J0D01*
G01*
X91277500Y-113009000D01*
G75*
G02*
X91415000Y-113146500I0J-137500D01*
G01*
X91415000Y-113421500D01*
G75*
G02*
X91277500Y-113559000I-137500J0D01*
G01*
X88554500Y-113559000D01*
G75*
G02*
X88417000Y-113421500I0J137500D01*
G01*
G37*
G36*
G01*
X94767000Y-113421500D02*
X94767000Y-113146500D01*
G75*
G02*
X94904500Y-113009000I137500J0D01*
G01*
X97627500Y-113009000D01*
G75*
G02*
X97765000Y-113146500I0J-137500D01*
G01*
X97765000Y-113421500D01*
G75*
G02*
X97627500Y-113559000I-137500J0D01*
G01*
X94904500Y-113559000D01*
G75*
G02*
X94767000Y-113421500I0J137500D01*
G01*
G37*
G36*
G01*
X88417000Y-107071500D02*
X88417000Y-106796500D01*
G75*
G02*
X88554500Y-106659000I137500J0D01*
G01*
X91277500Y-106659000D01*
G75*
G02*
X91415000Y-106796500I0J-137500D01*
G01*
X91415000Y-107071500D01*
G75*
G02*
X91277500Y-107209000I-137500J0D01*
G01*
X88554500Y-107209000D01*
G75*
G02*
X88417000Y-107071500I0J137500D01*
G01*
G37*
G36*
G01*
X88417000Y-108341500D02*
X88417000Y-108066500D01*
G75*
G02*
X88554500Y-107929000I137500J0D01*
G01*
X91277500Y-107929000D01*
G75*
G02*
X91415000Y-108066500I0J-137500D01*
G01*
X91415000Y-108341500D01*
G75*
G02*
X91277500Y-108479000I-137500J0D01*
G01*
X88554500Y-108479000D01*
G75*
G02*
X88417000Y-108341500I0J137500D01*
G01*
G37*
G36*
G01*
X88417000Y-109611500D02*
X88417000Y-109336500D01*
G75*
G02*
X88554500Y-109199000I137500J0D01*
G01*
X91277500Y-109199000D01*
G75*
G02*
X91415000Y-109336500I0J-137500D01*
G01*
X91415000Y-109611500D01*
G75*
G02*
X91277500Y-109749000I-137500J0D01*
G01*
X88554500Y-109749000D01*
G75*
G02*
X88417000Y-109611500I0J137500D01*
G01*
G37*
G36*
G01*
X88417000Y-110881500D02*
X88417000Y-110606500D01*
G75*
G02*
X88554500Y-110469000I137500J0D01*
G01*
X91277500Y-110469000D01*
G75*
G02*
X91415000Y-110606500I0J-137500D01*
G01*
X91415000Y-110881500D01*
G75*
G02*
X91277500Y-111019000I-137500J0D01*
G01*
X88554500Y-111019000D01*
G75*
G02*
X88417000Y-110881500I0J137500D01*
G01*
G37*
G36*
G01*
X88417000Y-112151500D02*
X88417000Y-111876500D01*
G75*
G02*
X88554500Y-111739000I137500J0D01*
G01*
X91277500Y-111739000D01*
G75*
G02*
X91415000Y-111876500I0J-137500D01*
G01*
X91415000Y-112151500D01*
G75*
G02*
X91277500Y-112289000I-137500J0D01*
G01*
X88554500Y-112289000D01*
G75*
G02*
X88417000Y-112151500I0J137500D01*
G01*
G37*
G36*
G01*
X88417000Y-117231500D02*
X88417000Y-116956500D01*
G75*
G02*
X88554500Y-116819000I137500J0D01*
G01*
X91277500Y-116819000D01*
G75*
G02*
X91415000Y-116956500I0J-137500D01*
G01*
X91415000Y-117231500D01*
G75*
G02*
X91277500Y-117369000I-137500J0D01*
G01*
X88554500Y-117369000D01*
G75*
G02*
X88417000Y-117231500I0J137500D01*
G01*
G37*
G36*
G01*
X88417000Y-118501500D02*
X88417000Y-118226500D01*
G75*
G02*
X88554500Y-118089000I137500J0D01*
G01*
X91277500Y-118089000D01*
G75*
G02*
X91415000Y-118226500I0J-137500D01*
G01*
X91415000Y-118501500D01*
G75*
G02*
X91277500Y-118639000I-137500J0D01*
G01*
X88554500Y-118639000D01*
G75*
G02*
X88417000Y-118501500I0J137500D01*
G01*
G37*
G36*
G01*
X88417000Y-119771500D02*
X88417000Y-119496500D01*
G75*
G02*
X88554500Y-119359000I137500J0D01*
G01*
X91277500Y-119359000D01*
G75*
G02*
X91415000Y-119496500I0J-137500D01*
G01*
X91415000Y-119771500D01*
G75*
G02*
X91277500Y-119909000I-137500J0D01*
G01*
X88554500Y-119909000D01*
G75*
G02*
X88417000Y-119771500I0J137500D01*
G01*
G37*
G36*
G01*
X88417000Y-121041500D02*
X88417000Y-120766500D01*
G75*
G02*
X88554500Y-120629000I137500J0D01*
G01*
X91277500Y-120629000D01*
G75*
G02*
X91415000Y-120766500I0J-137500D01*
G01*
X91415000Y-121041500D01*
G75*
G02*
X91277500Y-121179000I-137500J0D01*
G01*
X88554500Y-121179000D01*
G75*
G02*
X88417000Y-121041500I0J137500D01*
G01*
G37*
G36*
G01*
X88417000Y-122311500D02*
X88417000Y-122036500D01*
G75*
G02*
X88554500Y-121899000I137500J0D01*
G01*
X91277500Y-121899000D01*
G75*
G02*
X91415000Y-122036500I0J-137500D01*
G01*
X91415000Y-122311500D01*
G75*
G02*
X91277500Y-122449000I-137500J0D01*
G01*
X88554500Y-122449000D01*
G75*
G02*
X88417000Y-122311500I0J137500D01*
G01*
G37*
G36*
G01*
X94767000Y-121041500D02*
X94767000Y-120766500D01*
G75*
G02*
X94904500Y-120629000I137500J0D01*
G01*
X97627500Y-120629000D01*
G75*
G02*
X97765000Y-120766500I0J-137500D01*
G01*
X97765000Y-121041500D01*
G75*
G02*
X97627500Y-121179000I-137500J0D01*
G01*
X94904500Y-121179000D01*
G75*
G02*
X94767000Y-121041500I0J137500D01*
G01*
G37*
G36*
G01*
X94767000Y-119771500D02*
X94767000Y-119496500D01*
G75*
G02*
X94904500Y-119359000I137500J0D01*
G01*
X97627500Y-119359000D01*
G75*
G02*
X97765000Y-119496500I0J-137500D01*
G01*
X97765000Y-119771500D01*
G75*
G02*
X97627500Y-119909000I-137500J0D01*
G01*
X94904500Y-119909000D01*
G75*
G02*
X94767000Y-119771500I0J137500D01*
G01*
G37*
G36*
G01*
X94767000Y-118501500D02*
X94767000Y-118226500D01*
G75*
G02*
X94904500Y-118089000I137500J0D01*
G01*
X97627500Y-118089000D01*
G75*
G02*
X97765000Y-118226500I0J-137500D01*
G01*
X97765000Y-118501500D01*
G75*
G02*
X97627500Y-118639000I-137500J0D01*
G01*
X94904500Y-118639000D01*
G75*
G02*
X94767000Y-118501500I0J137500D01*
G01*
G37*
G36*
G01*
X94767000Y-117231500D02*
X94767000Y-116956500D01*
G75*
G02*
X94904500Y-116819000I137500J0D01*
G01*
X97627500Y-116819000D01*
G75*
G02*
X97765000Y-116956500I0J-137500D01*
G01*
X97765000Y-117231500D01*
G75*
G02*
X97627500Y-117369000I-137500J0D01*
G01*
X94904500Y-117369000D01*
G75*
G02*
X94767000Y-117231500I0J137500D01*
G01*
G37*
G36*
G01*
X94767000Y-112151500D02*
X94767000Y-111876500D01*
G75*
G02*
X94904500Y-111739000I137500J0D01*
G01*
X97627500Y-111739000D01*
G75*
G02*
X97765000Y-111876500I0J-137500D01*
G01*
X97765000Y-112151500D01*
G75*
G02*
X97627500Y-112289000I-137500J0D01*
G01*
X94904500Y-112289000D01*
G75*
G02*
X94767000Y-112151500I0J137500D01*
G01*
G37*
G36*
G01*
X94767000Y-110881500D02*
X94767000Y-110606500D01*
G75*
G02*
X94904500Y-110469000I137500J0D01*
G01*
X97627500Y-110469000D01*
G75*
G02*
X97765000Y-110606500I0J-137500D01*
G01*
X97765000Y-110881500D01*
G75*
G02*
X97627500Y-111019000I-137500J0D01*
G01*
X94904500Y-111019000D01*
G75*
G02*
X94767000Y-110881500I0J137500D01*
G01*
G37*
G36*
G01*
X94767000Y-109611500D02*
X94767000Y-109336500D01*
G75*
G02*
X94904500Y-109199000I137500J0D01*
G01*
X97627500Y-109199000D01*
G75*
G02*
X97765000Y-109336500I0J-137500D01*
G01*
X97765000Y-109611500D01*
G75*
G02*
X97627500Y-109749000I-137500J0D01*
G01*
X94904500Y-109749000D01*
G75*
G02*
X94767000Y-109611500I0J137500D01*
G01*
G37*
G36*
G01*
X94767000Y-108341500D02*
X94767000Y-108066500D01*
G75*
G02*
X94904500Y-107929000I137500J0D01*
G01*
X97627500Y-107929000D01*
G75*
G02*
X97765000Y-108066500I0J-137500D01*
G01*
X97765000Y-108341500D01*
G75*
G02*
X97627500Y-108479000I-137500J0D01*
G01*
X94904500Y-108479000D01*
G75*
G02*
X94767000Y-108341500I0J137500D01*
G01*
G37*
G36*
G01*
X94767000Y-107071500D02*
X94767000Y-106796500D01*
G75*
G02*
X94904500Y-106659000I137500J0D01*
G01*
X97627500Y-106659000D01*
G75*
G02*
X97765000Y-106796500I0J-137500D01*
G01*
X97765000Y-107071500D01*
G75*
G02*
X97627500Y-107209000I-137500J0D01*
G01*
X94904500Y-107209000D01*
G75*
G02*
X94767000Y-107071500I0J137500D01*
G01*
G37*
G36*
G01*
X94767000Y-122311500D02*
X94767000Y-122036500D01*
G75*
G02*
X94904500Y-121899000I137500J0D01*
G01*
X97627500Y-121899000D01*
G75*
G02*
X97765000Y-122036500I0J-137500D01*
G01*
X97765000Y-122311500D01*
G75*
G02*
X97627500Y-122449000I-137500J0D01*
G01*
X94904500Y-122449000D01*
G75*
G02*
X94767000Y-122311500I0J137500D01*
G01*
G37*
G36*
G01*
X80067000Y-104819000D02*
X80067000Y-103969000D01*
G75*
G02*
X80317000Y-103719000I250000J0D01*
G01*
X80817000Y-103719000D01*
G75*
G02*
X81067000Y-103969000I0J-250000D01*
G01*
X81067000Y-104819000D01*
G75*
G02*
X80817000Y-105069000I-250000J0D01*
G01*
X80317000Y-105069000D01*
G75*
G02*
X80067000Y-104819000I0J250000D01*
G01*
G37*
G36*
G01*
X78367000Y-104819000D02*
X78367000Y-103969000D01*
G75*
G02*
X78617000Y-103719000I250000J0D01*
G01*
X79117000Y-103719000D01*
G75*
G02*
X79367000Y-103969000I0J-250000D01*
G01*
X79367000Y-104819000D01*
G75*
G02*
X79117000Y-105069000I-250000J0D01*
G01*
X78617000Y-105069000D01*
G75*
G02*
X78367000Y-104819000I0J250000D01*
G01*
G37*
G36*
G01*
X91116000Y-104819000D02*
X91116000Y-103969000D01*
G75*
G02*
X91366000Y-103719000I250000J0D01*
G01*
X91866000Y-103719000D01*
G75*
G02*
X92116000Y-103969000I0J-250000D01*
G01*
X92116000Y-104819000D01*
G75*
G02*
X91866000Y-105069000I-250000J0D01*
G01*
X91366000Y-105069000D01*
G75*
G02*
X91116000Y-104819000I0J250000D01*
G01*
G37*
G36*
G01*
X89416000Y-104819000D02*
X89416000Y-103969000D01*
G75*
G02*
X89666000Y-103719000I250000J0D01*
G01*
X90166000Y-103719000D01*
G75*
G02*
X90416000Y-103969000I0J-250000D01*
G01*
X90416000Y-104819000D01*
G75*
G02*
X90166000Y-105069000I-250000J0D01*
G01*
X89666000Y-105069000D01*
G75*
G02*
X89416000Y-104819000I0J250000D01*
G01*
G37*
G36*
G01*
X100465000Y-104819000D02*
X100465000Y-103969000D01*
G75*
G02*
X100715000Y-103719000I250000J0D01*
G01*
X101215000Y-103719000D01*
G75*
G02*
X101465000Y-103969000I0J-250000D01*
G01*
X101465000Y-104819000D01*
G75*
G02*
X101215000Y-105069000I-250000J0D01*
G01*
X100715000Y-105069000D01*
G75*
G02*
X100465000Y-104819000I0J250000D01*
G01*
G37*
G36*
G01*
X102165000Y-104819000D02*
X102165000Y-103969000D01*
G75*
G02*
X102415000Y-103719000I250000J0D01*
G01*
X102915000Y-103719000D01*
G75*
G02*
X103165000Y-103969000I0J-250000D01*
G01*
X103165000Y-104819000D01*
G75*
G02*
X102915000Y-105069000I-250000J0D01*
G01*
X102415000Y-105069000D01*
G75*
G02*
X102165000Y-104819000I0J250000D01*
G01*
G37*
G36*
G01*
X111514000Y-104819000D02*
X111514000Y-103969000D01*
G75*
G02*
X111764000Y-103719000I250000J0D01*
G01*
X112264000Y-103719000D01*
G75*
G02*
X112514000Y-103969000I0J-250000D01*
G01*
X112514000Y-104819000D01*
G75*
G02*
X112264000Y-105069000I-250000J0D01*
G01*
X111764000Y-105069000D01*
G75*
G02*
X111514000Y-104819000I0J250000D01*
G01*
G37*
G36*
G01*
X113214000Y-104819000D02*
X113214000Y-103969000D01*
G75*
G02*
X113464000Y-103719000I250000J0D01*
G01*
X113964000Y-103719000D01*
G75*
G02*
X114214000Y-103969000I0J-250000D01*
G01*
X114214000Y-104819000D01*
G75*
G02*
X113964000Y-105069000I-250000J0D01*
G01*
X113464000Y-105069000D01*
G75*
G02*
X113214000Y-104819000I0J250000D01*
G01*
G37*
G36*
G01*
X124136000Y-104819000D02*
X124136000Y-103969000D01*
G75*
G02*
X124386000Y-103719000I250000J0D01*
G01*
X124886000Y-103719000D01*
G75*
G02*
X125136000Y-103969000I0J-250000D01*
G01*
X125136000Y-104819000D01*
G75*
G02*
X124886000Y-105069000I-250000J0D01*
G01*
X124386000Y-105069000D01*
G75*
G02*
X124136000Y-104819000I0J250000D01*
G01*
G37*
G36*
G01*
X122436000Y-104819000D02*
X122436000Y-103969000D01*
G75*
G02*
X122686000Y-103719000I250000J0D01*
G01*
X123186000Y-103719000D01*
G75*
G02*
X123436000Y-103969000I0J-250000D01*
G01*
X123436000Y-104819000D01*
G75*
G02*
X123186000Y-105069000I-250000J0D01*
G01*
X122686000Y-105069000D01*
G75*
G02*
X122436000Y-104819000I0J250000D01*
G01*
G37*
G36*
G01*
X133485000Y-104819000D02*
X133485000Y-103969000D01*
G75*
G02*
X133735000Y-103719000I250000J0D01*
G01*
X134235000Y-103719000D01*
G75*
G02*
X134485000Y-103969000I0J-250000D01*
G01*
X134485000Y-104819000D01*
G75*
G02*
X134235000Y-105069000I-250000J0D01*
G01*
X133735000Y-105069000D01*
G75*
G02*
X133485000Y-104819000I0J250000D01*
G01*
G37*
G36*
G01*
X135185000Y-104819000D02*
X135185000Y-103969000D01*
G75*
G02*
X135435000Y-103719000I250000J0D01*
G01*
X135935000Y-103719000D01*
G75*
G02*
X136185000Y-103969000I0J-250000D01*
G01*
X136185000Y-104819000D01*
G75*
G02*
X135935000Y-105069000I-250000J0D01*
G01*
X135435000Y-105069000D01*
G75*
G02*
X135185000Y-104819000I0J250000D01*
G01*
G37*
G36*
G01*
X144534000Y-104819000D02*
X144534000Y-103969000D01*
G75*
G02*
X144784000Y-103719000I250000J0D01*
G01*
X145284000Y-103719000D01*
G75*
G02*
X145534000Y-103969000I0J-250000D01*
G01*
X145534000Y-104819000D01*
G75*
G02*
X145284000Y-105069000I-250000J0D01*
G01*
X144784000Y-105069000D01*
G75*
G02*
X144534000Y-104819000I0J250000D01*
G01*
G37*
G36*
G01*
X146234000Y-104819000D02*
X146234000Y-103969000D01*
G75*
G02*
X146484000Y-103719000I250000J0D01*
G01*
X146984000Y-103719000D01*
G75*
G02*
X147234000Y-103969000I0J-250000D01*
G01*
X147234000Y-104819000D01*
G75*
G02*
X146984000Y-105069000I-250000J0D01*
G01*
X146484000Y-105069000D01*
G75*
G02*
X146234000Y-104819000I0J250000D01*
G01*
G37*
G36*
G01*
X157283000Y-104819000D02*
X157283000Y-103969000D01*
G75*
G02*
X157533000Y-103719000I250000J0D01*
G01*
X158033000Y-103719000D01*
G75*
G02*
X158283000Y-103969000I0J-250000D01*
G01*
X158283000Y-104819000D01*
G75*
G02*
X158033000Y-105069000I-250000J0D01*
G01*
X157533000Y-105069000D01*
G75*
G02*
X157283000Y-104819000I0J250000D01*
G01*
G37*
G36*
G01*
X155583000Y-104819000D02*
X155583000Y-103969000D01*
G75*
G02*
X155833000Y-103719000I250000J0D01*
G01*
X156333000Y-103719000D01*
G75*
G02*
X156583000Y-103969000I0J-250000D01*
G01*
X156583000Y-104819000D01*
G75*
G02*
X156333000Y-105069000I-250000J0D01*
G01*
X155833000Y-105069000D01*
G75*
G02*
X155583000Y-104819000I0J250000D01*
G01*
G37*
M02*
